<svg width="100%" height="100%" viewBox="0 0 3440 1080" version="1.1" xmlns="http://www.w3.org/2000/svg" xmlns:xlink="http://www.w3.org/1999/xlink" xml:space="preserve" xmlns:serif="http://www.serif.com/" style="fill-rule:evenodd;clip-rule:evenodd;stroke-linecap:round;stroke-linejoin:round;stroke-miterlimit:1.5;"><g xmlns="http://www.w3.org/2000/svg" id="Artboard31" serif:id="Artboard3">
        <path d="M2772.77,105.759C2784.67,101.792 2867.12,-2.077 2875.51,9.108C2911.91,57.635 2878.39,87.26 2928.78,121.74C2938.59,114.573 3040,40.465 3062.73,50.203C3063.82,50.673 3051.39,158.855 3067.29,198.604C3077.21,223.389 3080.33,182.703 3151.01,166.641C3156.34,165.428 3197.89,136.583 3193.62,175.012C3188.58,220.42 3177.1,221.207 3179.19,304.689C3199.61,302.647 3200.97,294.246 3292.82,321.968C3251.83,359.151 3207.32,438.329 3211.89,439.09C3347.64,461.715 3360.65,463.205 3351.16,469.531C3343.38,474.713 3336.55,479.272 3268.97,552.483C3267.86,553.683 3254.55,568.104 3259.83,570.748C3289.19,585.425 3349.87,592.553 3368.76,627.533C3374.13,631.004 3378.43,631.39 3373.23,635.435C3348.47,654.691 3346.88,651.561 3290.27,677.292C3269.87,686.567 3273.66,696.184 3273.1,697.469C3278.93,702.896 3350.18,769.305 3332.89,776.987C3332.65,777.093 3209.92,788.812 3189.06,798.296C3182.55,801.255 3224.9,955.031 3217.22,958.873C3209.9,962.533 3209.78,959.159 3119.37,929.055C3097.14,990.675 3090.72,987.952 3074.14,1050.96C3016.28,1010.7 3010.27,1016.83 2969.51,958.78C2898.47,1016.39 2884.43,1000.75 2835.18,1068.46C2823.83,1037.9 2811.33,1008.99 2809.23,933.124C2801.48,940.152 2705.35,1027.38 2701.24,1006.82C2692.27,961.962 2724.55,864.514 2728.49,852.622C2643.95,874.702 2549.24,905.632 2547.51,903.318C2539.83,893.081 2596.19,799.307 2603.33,772.174C2528.57,758.054 2477.55,777.138 2513.26,750.351C2592.55,690.889 2627.16,668.793 2615.24,662.832C2535.91,623.167 2519.15,653.679 2502.61,631.63C2499.1,626.947 2599.79,560.628 2594.69,555.527C2570.7,531.535 2554.16,568.321 2452.5,504.415C2460.96,498.956 2499.8,473.898 2552.84,428.435C2556.61,425.198 2526.6,412.375 2512.5,401.038C2461.76,360.222 2460.73,361.292 2422.24,309.004C2491.6,307.72 2490.93,304.417 2559.69,296.777C2557.69,236.978 2533.77,201.08 2518.59,123.262C2635.56,159.107 2637.13,160.502 2645.68,154.465C2681.98,128.84 2667.34,87.18 2679.54,39.059C2685.48,46.648 2702.53,75.587 2733.2,95.104C2768.08,117.3 2778.72,111.017 2772.77,108.042" style="fill:rgb(255,214,0);"/>
        <path d="M2767.39,105.359C2767.55,103.253 2768.94,101.344 2771.07,100.635C2771.83,100.38 2772.91,99.346 2774.46,97.985C2777.84,95.017 2782.36,90.443 2787.61,84.898C2808.72,62.606 2841.17,25.089 2859.34,10.295C2864.97,5.707 2869.71,3.245 2872.64,2.922L2874.41,2.896L2876.36,3.312L2878.29,4.331L2879.83,5.867C2898.78,31.135 2899.68,51.431 2902.25,69.949C2904.43,85.684 2908.11,99.928 2928.74,115.091C2942.3,105.26 2988.36,72.408 3023.24,55.165C3033.55,50.066 3042.94,46.324 3050.33,44.773C3056.38,43.504 3061.34,43.735 3064.85,45.239L3066.73,46.575L3067.9,48.613C3068.02,48.994 3068.26,50.763 3068.08,53.717C3067.44,64.601 3064.08,101.634 3064.58,137.211C3064.91,160.283 3066.76,182.743 3072.31,196.598C3072.94,198.171 3073.8,199.7 3074.33,200.575C3074.88,200.244 3075.63,199.777 3076.23,199.323C3078.08,197.907 3080.26,196.006 3082.9,193.798C3094.12,184.409 3113.18,169.727 3149.66,161.407C3149.96,161.264 3152.92,159.837 3155.44,158.549C3160.72,155.843 3167.92,152.348 3174.64,150.713C3181.72,148.991 3188.33,149.484 3192.87,153.091C3197.22,156.535 3200.36,163.265 3198.99,175.609C3194.1,219.643 3183.08,221.474 3184.46,298.53C3200.67,295.863 3210.26,291.41 3294.38,316.797C3296.25,317.359 3297.66,318.881 3298.09,320.779C3298.52,322.678 3297.89,324.661 3296.45,325.968C3264.17,355.247 3229.7,410.996 3219.5,432.502C3219.14,433.246 3218.81,434.001 3218.51,434.717C3310.12,449.979 3344.08,455.513 3353.1,459.502C3355.36,460.499 3356.68,461.616 3357.44,462.558L3358.62,464.685L3358.93,466.024L3358.95,467.401L3358.64,468.902L3357.81,470.624C3357.13,471.661 3355.91,472.853 3354.15,474.025C3346.47,479.15 3339.78,483.735 3272.93,556.147C3272.44,556.684 3269.32,560.057 3266.76,563.695C3266.07,564.672 3265.32,566.058 3264.77,567.127C3282.49,575.273 3309.76,581.263 3332.94,591.738C3349.83,599.375 3364.56,609.398 3372.81,623.692C3375.28,625.197 3377.41,626.204 3378.5,627.193L3379.78,628.636L3380.54,630.085L3380.92,631.586L3380.94,633.169L3380.56,634.799L3379.59,636.656C3379,637.506 3378.04,638.532 3376.54,639.699C3351.45,659.215 3349.89,656.129 3292.51,682.209C3284.9,685.669 3281.18,688.962 3279.53,691.882C3278.82,693.148 3278.6,694.276 3278.55,695.168C3288.46,704.51 3329.73,744.085 3338.79,764.056C3342.86,773.018 3340.96,779.313 3335.09,781.922C3335.05,781.938 3333.24,782.388 3329.92,782.727C3310.72,784.682 3217.69,793.996 3193.89,802.198C3193.97,803.649 3194.12,805.761 3194.41,807.791C3195.85,818.034 3199.46,834.966 3203.64,853.821C3211.74,890.328 3221.97,933.927 3223.37,951.092C3223.69,955.001 3223.5,957.851 3223.03,959.42L3221.79,961.919L3220.89,962.864L3219.63,963.704C3215.7,965.668 3213.32,966.551 3204.11,963.804C3194.11,960.822 3173.36,952.797 3122.64,935.842C3101.94,992.18 3095.43,991.297 3079.37,1052.33C3078.92,1054.04 3077.66,1055.42 3076.01,1056.03C3074.35,1056.63 3072.51,1056.4 3071.06,1055.39C3014.02,1015.71 3006.77,1020.42 2968.41,966.586C2942.15,987.459 2923.87,998.205 2908.49,1007.41C2884.92,1021.52 2868.43,1031.92 2839.55,1071.64C2838.38,1073.25 2836.41,1074.08 2834.44,1073.81C2832.47,1073.54 2830.81,1072.21 2830.12,1070.34C2819.22,1041 2807.26,1013.15 2804.24,944.847C2784.52,962.357 2737.85,1002.69 2715.5,1012.66C2711.16,1014.6 2707.49,1015.45 2704.82,1015.34L2701.98,1014.85L2700.53,1014.24L2699.16,1013.34L2697.95,1012.17L2697.01,1010.81L2695.94,1007.88C2692.24,989.397 2695.21,962.241 2700.52,935.534C2706.54,905.306 2715.44,875.653 2720.3,860.37C2646.73,879.966 2568.46,904.969 2551.79,908.35C2549.2,908.876 2547.47,908.863 2546.74,908.728L2544.95,908.09L2543.19,906.558L2541.94,904.13C2541.62,903.179 2541.42,902.04 2541.39,900.715C2541.33,897.528 2542.43,892.624 2544.59,886.541C2554.47,858.802 2586.95,801.933 2596.3,776.405C2554.41,769.35 2520.84,772.468 2507.38,770.903C2504.62,770.582 2502.5,770.036 2501.04,769.357L2498.55,767.707L2497.07,765.791L2496.34,763.736L2496.24,761.653L2496.73,759.51C2497.01,758.74 2497.43,757.892 2498.05,756.981C2499.77,754.441 2503.6,750.844 2510.02,746.03C2557.41,710.49 2588.79,688.363 2603.74,675.055C2606.5,672.594 2608.67,670.469 2610.22,668.627C2610.65,668.113 2611.07,667.495 2611.41,666.96C2566.06,644.557 2542.03,645.907 2526.62,646.116C2513.91,646.288 2506.16,645.371 2498.29,634.871L2497.47,633.365L2497.14,631.854L2497.19,630.367L2497.64,628.82C2498.1,627.693 2499.42,625.822 2501.75,623.595C2510.69,615.019 2537.99,595.517 2560.23,578.848C2572.44,569.703 2583.11,561.53 2587.87,556.678C2580.57,551.008 2573.53,551.347 2563.36,550.974C2543.19,550.234 2512.06,548.237 2449.62,508.988C2448.06,508.005 2447.11,506.293 2447.1,504.447C2447.08,502.601 2448.02,500.877 2449.57,499.876C2457.77,494.584 2494.69,470.758 2545.42,427.661C2537.24,422.103 2519.14,413.305 2509.12,405.247C2457.82,363.989 2456.8,365.059 2417.89,312.205C2416.7,310.579 2416.51,308.421 2417.4,306.611C2418.3,304.801 2420.12,303.641 2422.14,303.603C2489.52,302.357 2490.57,299.185 2554.07,291.973C2550.96,235.396 2527.97,199.555 2513.29,124.297C2512.93,122.435 2513.57,120.518 2514.98,119.249C2516.39,117.979 2518.36,117.542 2520.17,118.098C2589.99,139.494 2618.47,148.579 2631.93,151.104C2638.41,152.32 2640.11,151.787 2642.57,150.052C2659.29,138.245 2664.07,122.635 2666.29,104.542C2668.71,84.708 2668.14,62.038 2674.3,37.731C2674.81,35.734 2676.41,34.199 2678.43,33.774C2680.44,33.349 2682.52,34.107 2683.79,35.729C2689.6,43.141 2706.15,71.488 2736.1,90.548C2750.02,99.404 2759.84,103.56 2766.17,105.109C2766.57,105.207 2766.98,105.289 2767.39,105.359ZM2779.41,107.926L2779.57,108.282L2779.71,110.25L2779.33,111.92L2778.57,113.347L2777.41,114.59L2775.65,115.685C2774.12,116.366 2771.33,116.924 2767.12,116.302C2760.4,115.306 2748.4,111.177 2730.3,99.661C2706.96,84.81 2691.28,64.679 2682.27,52.135C2678.87,71.518 2678.99,89.655 2677.01,105.854C2674.42,127.028 2668.37,145.059 2648.8,158.877C2644.41,161.973 2641.51,163.891 2629.94,161.721C2616.91,159.277 2589.95,150.8 2525.69,131.09C2540.96,203.237 2563.16,238.829 2565.08,296.597C2565.18,299.417 2563.09,301.834 2560.28,302.145C2494.92,309.408 2492.07,312.756 2432.78,314.183C2464.94,357.538 2468.57,358.766 2515.89,396.83C2527.2,405.931 2548.73,416.004 2554.96,421.326C2556.4,422.562 2557.31,423.749 2557.8,424.696L2558.38,426.258L2558.56,427.628L2558.44,429.026L2557.97,430.423L2557.23,431.625L2556.35,432.536C2512.3,470.297 2477.98,494.06 2462.57,504.285C2517.35,537.458 2545.3,539.502 2563.75,540.179C2578.47,540.719 2587.76,540.957 2598.51,551.708L2599.42,552.867L2600.01,554.202L2600.28,555.744L2600.1,557.571C2599.78,558.869 2598.62,561.03 2596.22,563.532C2593,566.898 2587.08,571.843 2579.71,577.589C2556.91,595.362 2519.56,621.263 2509.39,631.167C2514.04,635.501 2519.14,635.414 2526.48,635.314C2542.94,635.091 2568.73,633.538 2617.66,658.002L2620.32,659.848L2621.47,661.212L2622.36,662.87L2622.82,664.566L2622.93,666.254L2622.35,669.283C2621.65,671.312 2620.1,673.83 2617.47,676.744C2606.29,689.132 2572.46,712.707 2516.5,754.672C2513.9,756.622 2511.57,758.682 2509.86,760.297C2511.85,760.471 2514.24,760.56 2516.97,760.613C2534.79,760.959 2566.56,759.734 2604.33,766.867C2605.8,767.145 2607.1,768.023 2607.9,769.29C2608.7,770.557 2608.93,772.1 2608.55,773.549C2603.52,792.681 2574.27,844.744 2559.78,877.774C2556.34,885.603 2553.76,892.288 2552.67,897.079C2575.23,891.611 2654.89,866.262 2727.13,847.397C2729.04,846.896 2731.08,847.484 2732.43,848.928C2733.78,850.372 2734.24,852.442 2733.62,854.321C2731.27,861.401 2718.8,899.045 2711.12,937.642C2706.25,962.126 2703.22,986.993 2706.27,1004.35C2707.14,1004.18 2708.39,1003.89 2709.4,1003.5C2712.91,1002.15 2717.21,999.772 2722.03,996.73C2751.93,977.86 2800.22,934.001 2805.6,929.124C2807.16,927.706 2809.4,927.328 2811.35,928.155C2813.29,928.983 2814.57,930.865 2814.62,932.974C2816.48,1000.17 2826.61,1030.05 2836.76,1057.28C2863.39,1022.26 2879.95,1011.91 2902.94,998.142C2918.86,988.611 2937.97,977.403 2966.11,954.585C2967.27,953.642 2968.77,953.224 2970.25,953.431C2971.74,953.638 2973.07,954.451 2973.93,955.676C3012.6,1010.76 3019.63,1007.19 3070.91,1042.17C3086.11,986.46 3092.89,986.548 3114.29,927.223C3115.28,924.466 3118.29,923.005 3121.07,923.931C3175.22,941.959 3196.92,950.387 3207.19,953.452C3209.93,954.269 3211.43,954.667 3212.62,954.64C3212.53,952.49 3212.31,948.623 3211.74,944.771C3208.76,924.665 3200.1,887.734 3193.1,856.161C3187.63,831.544 3183.2,810.099 3182.98,801.892C3182.92,799.413 3183.28,797.656 3183.69,796.669L3184.98,794.686L3186.82,793.379C3205.83,784.739 3308.33,774.066 3328.82,771.98C3329.25,771.937 3329.64,771.896 3330.01,771.859C3329.84,771.073 3329.56,769.916 3329.18,769.038C3328.72,767.964 3328.14,766.821 3327.46,765.616C3326.55,764.002 3325.47,762.289 3324.24,760.498C3309.08,738.324 3273.44,705.163 3269.42,701.42C3268.1,700.191 3267.51,698.413 3267.76,696.687C3267.73,695.637 3267.73,690.815 3270.12,686.579C3272.44,682.455 3277.28,677.263 3288.04,672.375C3341.95,647.872 3345.31,649.981 3367.45,633.069C3366.9,632.742 3366.35,632.401 3365.83,632.067C3365.07,631.575 3364.44,630.898 3364.01,630.1C3355.14,613.67 3336.23,604.086 3316.32,596.581C3294.92,588.52 3272.23,582.983 3257.42,575.579L3256.05,574.712L3254.86,573.519L3253.97,572.103L3253.44,570.63C3252.99,568.828 3253.18,566.423 3254.28,563.791C3256.7,557.973 3264.13,549.756 3265,548.82C3322.13,486.926 3336.37,473.622 3344.1,467.861C3344.04,467.845 3343.98,467.83 3343.93,467.814C3329.26,463.862 3292.14,457.94 3211,444.417L3209.36,443.883L3207.91,442.833L3207.1,441.823L3206.45,440.418L3206.17,438.183C3206.2,437.44 3206.36,436.372 3206.78,435.03C3210.86,421.878 3246.82,360.204 3282.38,324.487C3200.98,300.469 3199.1,308.127 3179.73,310.063C3178.23,310.213 3176.74,309.733 3175.62,308.739C3174.49,307.745 3173.83,306.326 3173.79,304.824C3171.69,220.875 3183.18,220.078 3188.26,174.416C3189,167.724 3188.58,163.706 3186.32,161.685C3185.01,160.522 3183.18,160.416 3181.2,160.55C3178.14,160.758 3174.76,161.776 3171.48,163.038C3162.69,166.413 3154.42,171.404 3152.2,171.908C3118.8,179.499 3101.03,192.77 3090.48,201.543C3085.38,205.786 3081.71,209.017 3078.84,210.478C3077.13,211.35 3075.55,211.76 3074.09,211.812L3072.2,211.681L3070.34,211.132C3067.75,210.051 3064.87,207.091 3062.28,200.61C3048.12,165.207 3055.78,76.385 3057.2,54.676C3055.83,54.729 3054.27,54.985 3052.55,55.345C3045.85,56.751 3037.37,60.227 3028.02,64.848C2990.1,83.594 2938.78,121.124 2931.97,126.101C2930.12,127.452 2927.62,127.491 2925.74,126.198C2898.71,107.706 2894.2,90.507 2891.55,71.434C2889.25,54.847 2888.67,36.619 2872.57,14.218C2872.23,14.377 2871.89,14.558 2871.58,14.74C2870,15.687 2868.18,17.026 2866.16,18.672C2848.23,33.266 2816.28,70.333 2795.46,92.325C2788.95,99.191 2783.49,104.634 2779.78,107.628C2779.66,107.729 2779.53,107.829 2779.41,107.926Z"/>
        <path d="M3115.82,463.77C3115.47,466.73 3112.77,468.842 3109.81,468.485C3106.85,468.127 3104.74,465.434 3105.1,462.475C3109.22,428.372 3089.27,358.376 3059.7,299.907C3040.15,261.263 3016.44,227.572 2992.23,213.137C2968.08,198.739 2919.31,156.329 2774.03,190.921C2677.04,214.012 2628.32,319.134 2632.67,412.452C2635.55,474.193 2661.67,531.052 2713.41,555.199C2724.47,560.358 2718.88,557.258 2724.39,560.375C2726.98,561.844 2727.89,565.143 2726.42,567.736C2724.95,570.33 2721.66,571.243 2719.06,569.773C2713.95,566.875 2719.13,569.785 2708.85,564.988C2653.59,539.199 2624.95,478.893 2621.88,412.955C2617.31,314.757 2669.47,204.712 2771.52,180.413C2922.18,144.541 2972.72,188.927 2997.76,203.858C3023.3,219.082 3048.72,254.278 3069.34,295.032C3100,355.661 3120.09,428.408 3115.82,463.77Z"/>
        <path d="M2902.42,611.578C2902.55,611.05 2903.46,607.254 2904.2,603.617C2906.57,591.85 2910.66,572.148 2918.37,558.194C2923.46,548.991 2930.22,542.272 2938.55,540.378C2944.3,539.071 2950.93,539.917 2958.52,544.242C2961.76,546.092 2964.56,549.92 2967.32,554.949C2971.3,562.193 2975.71,572.463 2986.26,578.553C2996.99,584.745 3013.75,586.332 3041.96,577.365C3047.08,575.739 3069.69,567.921 3084.38,570.348C3091.02,571.445 3095.58,574.702 3098.95,579.773C3105.13,589.057 3107.77,596.636 3106.69,603.118C3105.58,609.829 3100.61,616.038 3089.63,621.794C3062.77,635.875 2995.41,650.135 2861.57,685.755C2855.66,687.326 2850.18,687.851 2845.82,687.079C2842.05,686.411 2838.98,684.814 2836.74,682.339C2834.41,679.755 2832.89,676.126 2832.88,671.097C2832.86,666.597 2832.1,665.439 2831.85,665.155L2831.07,663.999L2830.52,662.247L2830.49,661.04L2830.79,659.661L2831.93,657.798L2833.65,656.557C2833.76,656.505 2834.08,656.443 2834.7,656.323C2836.08,654.324 2838.1,652.291 2840.72,650.31C2845.27,646.861 2851.82,643.311 2859.1,639.63C2869.33,634.454 2881.09,628.963 2890.27,622.853C2895.6,619.307 2900.05,615.642 2902.42,611.578ZM2842.88,663.823C2843.34,665.671 2843.67,668.049 2843.68,671.07C2843.68,672.837 2843.95,674.195 2844.76,675.102C2845.54,675.964 2846.72,676.307 2848.07,676.5C2851.09,676.932 2854.8,676.379 2858.79,675.316C2991.28,640.055 3058.02,626.166 3084.61,612.227C3091.46,608.638 3095.34,605.533 3096.03,601.349C3096.76,596.939 3094.16,592.074 3089.96,585.759C3088.26,583.203 3085.96,581.559 3082.62,581.006C3069.64,578.862 3049.75,586.224 3045.23,587.66C3016.87,596.676 2998.55,595.597 2986.16,590.508C2973.2,585.187 2966.31,575.426 2961.37,566.614C2959.5,563.286 2957.93,560.129 2956.36,557.537C2955.31,555.817 2954.42,554.34 2953.17,553.626C2948.5,550.963 2944.48,550.106 2940.94,550.911C2935.33,552.187 2931.25,557.222 2927.83,563.419C2920.64,576.41 2917,594.801 2914.78,605.755C2913.63,611.474 2912.62,615.485 2911.96,616.662C2908.92,622.053 2903.3,627.159 2896.25,631.846C2886.74,638.177 2874.58,643.906 2863.97,649.269C2857.36,652.615 2851.38,655.789 2847.24,658.923C2845.32,660.377 2843.78,661.65 2843.23,663.078C2843.13,663.337 2843.01,663.586 2842.88,663.823Z"/>
        <path d="M2714.88,566.282C2714.87,565.443 2715.06,564.589 2715.46,563.788C2716.8,561.126 2720.05,560.054 2722.71,561.395L2723.86,562.168L2724.69,563.076L2725.64,565.273L2725.71,567.222C2725.65,567.69 2725.51,568.406 2725.24,569.337C2723.78,574.462 2717.21,591.268 2717.6,608.415C2717.83,618.826 2720.67,629.438 2729.66,637.04C2741.13,646.746 2759.13,650.672 2776.98,652.151C2805.16,654.485 2833.16,650.413 2837.83,650.103C2840.8,649.904 2843.38,652.158 2843.58,655.132C2843.77,658.107 2841.52,660.683 2838.55,660.881C2833.76,661.2 2805.01,665.312 2776.09,662.916C2755.88,661.242 2735.67,656.275 2722.68,645.286C2711.13,635.516 2707.1,622.039 2706.8,608.658C2706.38,590.12 2713.28,571.91 2714.86,566.369C2714.87,566.342 2714.87,566.312 2714.88,566.282ZM2716.13,569.673C2716.63,570.284 2717.22,570.723 2717.85,571.042C2717.17,570.697 2716.59,570.227 2716.13,569.673Z"/>
        <path d="M3111.44,468.263C3108.47,468.564 3105.82,466.402 3105.52,463.436C3105.21,460.47 3107.38,457.818 3110.34,457.516C3114.76,457.066 3124.49,458.295 3134.32,462.756C3144.15,467.217 3154.03,474.84 3159.02,486.663C3163.22,496.621 3164.07,509.687 3157.91,526.604C3154.53,535.904 3145.21,546.745 3134.75,556.486C3119.91,570.303 3102.98,582.054 3100.28,584.078C3097.9,585.867 3094.51,585.383 3092.72,582.998C3090.93,580.613 3091.41,577.225 3093.8,575.437C3096.43,573.465 3112.93,562.039 3127.39,548.58C3136.46,540.137 3144.83,530.973 3147.76,522.912C3152.7,509.332 3152.44,498.859 3149.07,490.865C3145.22,481.745 3137.43,476.033 3129.85,472.593C3122.28,469.153 3114.85,467.916 3111.44,468.263Z"/>
        <g transform="matrix(1,0,0,1,0.845479,-37.5816)">
            <path d="M2806.22,503.15C2853.6,516.687 2859.32,560.069 2848.06,588.085C2842.95,600.787 2834.25,610.23 2824.59,613.201C2805.07,619.207 2791.56,608.576 2783.35,591.605C2776.74,577.953 2773.72,560.102 2773.54,545.42C2773.41,535.146 2774.75,526.377 2776.97,521.37C2779.51,515.646 2782.1,511.342 2786.11,508.283C2790.13,505.212 2795.67,503.263 2804.55,502.946C2805.11,502.925 2805.68,502.994 2806.22,503.15ZM2804.08,513.778L2804.08,513.777C2798.7,514.041 2795.18,514.944 2792.66,516.869C2790,518.905 2788.54,521.947 2786.84,525.758C2785.04,529.816 2784.24,536.961 2784.34,545.289C2784.5,558.509 2787.12,574.606 2793.07,586.899C2798.81,598.76 2807.77,607.074 2821.41,602.876C2828.47,600.706 2834.3,593.335 2838.03,584.057C2847.32,560.954 2842.67,525.286 2804.08,513.778Z"/>
        </g>
        <g transform="matrix(1,0,0,1.0479,-17.4004,-53.4051)">
            <path d="M3050.41,437.014C3086.96,441.075 3095.16,471.394 3092.7,497.484C3091.59,509.19 3088.35,519.912 3084.91,526.615C3083.11,530.116 3081.15,532.641 3079.42,534.044C3071.85,540.195 3064.18,541.887 3057.01,540.631C3047.04,538.887 3037.69,530.919 3030.97,519.609C3021.57,503.796 3017.21,481.628 3022.23,464.216C3025.82,451.765 3034.02,441.648 3048.11,437.237C3048.85,437.004 3049.64,436.928 3050.41,437.014ZM3050.37,447.401L3050.36,447.401C3038.06,451.759 3032.47,462.466 3031.19,474.515C3029.77,487.964 3033.6,503.142 3040.36,514.524C3046,524.018 3053.48,531.133 3062.07,530.684C3065.47,530.506 3068.92,529.036 3072.42,526.195C3073.77,525.101 3075.06,522.659 3076.42,519.483C3078.93,513.603 3081.1,505.393 3081.94,496.559C3083.89,475.893 3078.66,451.206 3050.37,447.401Z"/>
        </g>
        <path d="M2754.68,587.466C2749.75,606.557 2774.96,618.016 2777.83,619.32" style="fill:none;"/>
        <path d="M2752.01,579.915C2755.68,591.828 2758.05,605.348 2778.28,614.791" style="fill:none;"/>
        <path d="M2684.62,397.263C2682.92,394.812 2683.54,391.445 2685.99,389.748C2688.44,388.051 2691.8,388.664 2693.5,391.115C2727.86,440.742 2731.08,458.164 2734.79,528.607C2734.95,531.584 2732.66,534.128 2729.68,534.285C2726.7,534.441 2724.16,532.152 2724,529.175C2720.45,461.624 2717.57,444.854 2684.62,397.263Z"/>
        <path d="M2860.78,695.445C2862.15,694.288 2863.73,693.164 2865.53,692.089C2880.28,683.276 2910.83,675.919 2941.91,671.869C2968.6,668.392 2995.65,667.327 3013.27,669.499C3013.52,668.099 3014.32,666.799 3015.59,665.949C3016.36,665.436 3041.37,653.591 3074.92,644.271C3108.43,634.966 3150.43,628.213 3185.14,637.27C3187.1,637.781 3188.61,639.344 3189.05,641.319C3189.49,643.294 3188.79,645.35 3187.24,646.646C3176.38,655.698 3177.26,657.039 3135.64,668.054C3080.74,682.587 3055.54,693.413 3043.62,695.962C3037.54,697.263 3033.77,696.473 3031.27,694.693C3028.77,692.908 3027.02,689.73 3026.22,684.405C3025.98,684.219 3025.13,683.552 3024.43,683.212C3022.88,682.462 3020.91,681.853 3018.59,681.332C3002.74,677.765 2972.79,678.74 2943.31,682.581C2917.97,685.882 2892.97,691.32 2877.52,698.1C2872.92,700.117 2869.23,702.198 2866.83,704.439C2866.65,704.608 2866.47,704.772 2866.3,704.933C2866.08,705.217 2865.83,705.473 2865.57,705.699C2865.05,706.304 2864.74,706.908 2864.86,707.606C2865.7,712.629 2863.4,717.495 2857.51,721.486C2851.53,725.541 2841.13,728.972 2828.21,731.552C2790.24,739.135 2729.66,740.218 2703.08,736.49C2697.91,735.765 2693.91,734.818 2691.39,733.774C2689.62,733.039 2688.35,732.166 2687.53,731.339C2683.65,727.466 2682.65,723.656 2683.2,720.299C2683.89,716.087 2687.76,711.663 2695.13,708.367C2723.12,695.853 2808.77,692.059 2845.71,693.894C2852.46,694.229 2857.66,694.765 2860.7,695.427C2860.73,695.433 2860.76,695.439 2860.78,695.445ZM2854.24,705.449C2852.48,705.22 2850.43,704.996 2848.36,704.863C2819.61,703.018 2752.12,705.088 2715.18,713.429C2706.15,715.469 2699.06,717.746 2695.24,720.645C2694.7,721.057 2694.09,721.792 2693.9,722.018C2693.95,722.128 2694.03,722.305 2694.1,722.42C2694.33,722.788 2694.64,723.156 2695,723.537C2695.31,723.663 2696.96,724.32 2698.32,724.651C2702.37,725.637 2708.3,726.38 2715.51,726.906C2744.62,729.029 2793.78,727.414 2826.09,720.959C2837.23,718.735 2846.29,716.041 2851.45,712.544C2852.4,711.897 2853.19,711.246 2853.74,710.533C2854.03,710.162 2854.28,709.806 2854.2,709.382C2853.99,708.089 2854,706.772 2854.24,705.449ZM3026.85,672.529C3029.18,673.417 3031.08,674.437 3032.5,675.545C3035.12,677.577 3036.5,680.007 3036.87,682.616C3037.05,683.833 3037.47,685.257 3037.65,685.817C3037.88,685.834 3038.2,685.852 3038.46,685.838C3039.29,685.792 3040.25,685.636 3041.36,685.399C3053.21,682.864 3078.27,672.066 3132.88,657.611C3156.83,651.273 3165.48,648.571 3171.07,645.386C3140.61,640.663 3106.04,646.84 3077.81,654.679C3054.58,661.132 3035.63,668.728 3026.85,672.529Z"/>
        <path d="M2695.18,722.638C2695.96,723.009 2696.66,723.572 2697.21,724.311C2697.87,725.197 2698.21,726.225 2698.26,727.26C2699.66,728.201 2701.31,728.834 2702.74,729.477C2705.16,730.569 2707.33,731.571 2708.74,732.654L2710.39,734.225L2711.4,735.759C2712.46,737.886 2712.75,740.485 2712.04,743.446C2711.36,746.297 2709.62,749.694 2707.08,753.24C2701.14,761.513 2690.66,771.045 2682.89,776.505C2679.02,779.231 2675.66,780.958 2673.63,781.466C2668.6,782.722 2664.9,782.912 2662.33,782.486C2661.06,782.275 2659.98,781.918 2659.06,781.471L2657.52,780.535L2656.16,779.282C2654.08,776.925 2653.24,773.43 2654.42,769.019C2655.6,764.595 2659.09,758.648 2663.62,752.519C2665.44,750.064 2667.43,747.565 2669.45,745.115C2665.16,747.007 2661.83,748.285 2659.21,749.133C2651.1,751.754 2648.33,750.873 2645.89,750.263C2641.08,749.059 2637.87,747.681 2635.91,746.358C2634.63,745.495 2633.73,744.582 2633.1,743.699L2632.36,742.459L2631.83,741.025L2631.61,738.434L2632.18,736.084C2632.78,734.63 2633.94,733.064 2635.79,731.606C2638.95,729.105 2644.85,726.509 2651.72,724.249L2652.28,724.068C2647.2,723.245 2641.22,721.561 2632.31,718.094C2630.32,717.32 2628.97,715.445 2628.87,713.311C2628.77,711.177 2629.94,709.185 2631.85,708.229C2646.82,700.743 2654.79,697.826 2662.86,697.922C2670.73,698.015 2678.82,701.121 2694.13,706.538C2695.56,707.043 2696.71,708.124 2697.3,709.517C2697.89,710.91 2697.87,712.487 2697.25,713.865C2695.54,717.628 2694.87,720.439 2695.18,722.638ZM2692.12,735.99C2685.33,743.056 2672.93,756.551 2667.16,766.67C2666.2,768.373 2665.41,770.598 2664.99,771.888C2665.15,771.896 2665.3,771.899 2665.44,771.895C2666.93,771.853 2668.77,771.546 2671.01,770.986C2672.28,770.669 2674.26,769.375 2676.68,767.671C2683.61,762.797 2693,754.327 2698.3,746.941C2699.68,745.023 2700.77,743.215 2701.34,741.587C2701.4,741.398 2701.46,741.153 2701.51,740.928C2700.17,740.298 2697.16,738.874 2695.09,737.781C2694.08,737.244 2693.08,736.651 2692.12,735.99ZM2680.67,727.772C2673.39,729.369 2662.9,731.883 2654.26,734.788C2650.63,736.009 2647.35,737.284 2644.86,738.604C2645.95,739.024 2647.22,739.461 2648.51,739.784C2649.87,740.123 2651.38,740.312 2655.88,738.855C2660.84,737.251 2668.43,733.994 2680.67,727.772ZM2685.35,714.942C2685.35,714.919 2685.36,714.896 2685.37,714.873C2674.97,711.117 2668.81,708.795 2662.73,708.723C2658.45,708.672 2654.27,709.804 2648.62,712.218C2661.92,715.803 2666.7,713.232 2685.35,714.942Z"/>
        <path d="M3184.19,642.98C3184.39,642.569 3184.64,642.188 3184.93,641.844C3182.64,642.406 3180.21,641.411 3178.99,639.327C3178.79,638.997 3178.64,638.654 3178.52,638.303L3177.01,638.547C3174.03,638.539 3171.62,636.112 3171.63,633.131C3171.63,631.736 3172.17,630.466 3173.04,629.509C3173.04,629.501 3173.05,629.493 3173.05,629.485C3175.04,626.079 3180.77,614.59 3188.76,606.538C3195.12,600.127 3202.9,595.991 3211.25,597.383L3213.29,597.928L3215.35,599.059L3216.59,600.24L3217.55,601.71L3218.13,603.297L3218.34,604.827L3218.19,606.86C3218.09,607.413 3217.93,607.998 3217.72,608.609C3216.64,611.694 3213.5,616.011 3209.37,620.449C3208.43,621.462 3207.43,622.489 3206.41,623.515C3211.15,622.421 3215.02,621.88 3218.16,621.726C3224.41,621.419 3228.35,622.618 3230.79,624.072C3232.27,624.949 3233.34,625.974 3234.12,627.021L3235.2,628.841L3235.83,630.743L3236.06,632.617L3235.93,634.396L3235.47,636.07L3234.65,637.67C3233.34,639.628 3231.89,642.218 3224.31,644.765C3221.02,645.868 3216.23,647.031 3209.1,648.195C3216.55,652.372 3220.82,656.434 3223.05,659.954C3226.55,665.49 3226.12,670.384 3224.26,674.135C3222.26,678.139 3218.31,680.874 3214.72,681.771C3214.14,681.916 3212.32,682.049 3209.65,681.697C3202.68,680.775 3186.87,677.145 3178.34,671.186C3173.29,667.654 3170.58,663.185 3170.81,658.455C3171.01,654.273 3173.67,649.096 3181.49,643.879C3182.33,643.323 3183.26,643.03 3184.19,642.98ZM3187.01,626.733C3191.93,622.491 3198.44,616.584 3203.05,611.342C3204.01,610.244 3204.89,609.182 3205.63,608.177C3202.85,608.83 3200.29,610.599 3197.93,612.719C3193.46,616.73 3189.75,622.175 3187.01,626.733ZM3190.49,639.747C3206.84,637.993 3215.79,636.231 3220.87,634.525C3222.47,633.987 3223.5,633.513 3224.21,633.071C3223.27,632.806 3221.92,632.504 3220.56,632.481C3214.61,632.381 3205.2,634.248 3190.49,639.747ZM3189.16,651.094C3188.76,651.784 3188.2,652.395 3187.49,652.867C3185.22,654.379 3183.58,655.776 3182.52,657.139C3182,657.809 3181.62,658.383 3181.6,658.979C3181.56,659.795 3182.23,660.385 3182.93,661.046C3184.52,662.553 3186.8,663.831 3189.33,664.98C3197.36,668.623 3210.68,670.826 3212.59,671.129C3213.9,670.596 3215.27,669.224 3214.68,667.305C3214.03,665.219 3212.05,663.026 3208.53,660.507C3204.28,657.466 3198.03,654.302 3189.16,651.094Z"/>
        <path d="M2927.28,708.527C2926.49,708.127 2925.58,707.712 2924.82,707.483C2921.74,706.558 2918.16,706.087 2915.77,706.735C2912.89,707.514 2909.93,705.811 2909.14,702.934C2908.37,700.057 2910.07,697.088 2912.95,696.309C2918.44,694.821 2927.78,696.277 2933.31,699.361C2937.7,701.806 2939.83,705.415 2939.7,708.729C2939.6,711.626 2937.75,715.614 2931.06,718.72C2908.35,729.264 2882.53,730.593 2868.53,725.222C2862.61,722.953 2858.56,719.449 2856.66,715.293C2854.64,710.863 2854.73,705.425 2858.48,699.173C2860.01,696.617 2863.33,695.787 2865.89,697.321C2868.45,698.854 2869.28,702.175 2867.74,704.731C2866.31,707.122 2865.72,709.114 2866.49,710.809C2867.39,712.775 2869.6,714.063 2872.39,715.137C2884.53,719.79 2906.84,718.057 2926.51,708.923C2926.77,708.804 2927.03,708.668 2927.28,708.527Z"/>
        <path d="M2936.74,734.737C2936.57,734.606 2936.4,734.477 2936.23,734.369C2934.94,733.539 2933.2,732.725 2930.98,731.89C2928.18,730.844 2926.77,727.728 2927.82,724.937C2928.86,722.146 2931.98,720.729 2934.77,721.776C2940.07,723.765 2943.39,725.903 2945.28,727.86C2946.24,728.863 2946.92,729.877 2947.39,730.867L2948.03,732.695L2948.27,734.652C2948.3,737.749 2946.58,741.102 2942.76,743.93C2934.37,750.136 2913.3,755.162 2902.82,756.471C2899.86,756.841 2886.82,755.561 2878.75,751.088C2874.1,748.51 2871.05,744.856 2870.43,740.615C2870.06,738.029 2870.5,735.092 2872.4,731.851C2874.39,728.452 2878.3,724.394 2885.12,719.853C2887.6,718.2 2890.95,718.871 2892.61,721.351C2894.26,723.832 2893.59,727.188 2891.11,728.841C2886.89,731.656 2884.05,734.102 2882.38,736.321C2881.57,737.406 2881.01,738.236 2881.12,739.058C2881.21,739.623 2881.68,740.008 2882.17,740.421C2883.33,741.404 2884.89,742.176 2886.56,742.837C2892.35,745.118 2899.61,745.986 2901.48,745.752C2909.23,744.784 2923.55,741.692 2932.42,737.489C2934.01,736.738 2935.74,735.501 2936.74,734.737Z"/>
        <path d="M2940.52,758.581C2940.66,756.418 2942.11,754.461 2944.3,753.775C2947.14,752.885 2950.18,754.472 2951.07,757.317L2951.37,759.205L2951.23,760.827L2950.74,762.399C2950.5,762.985 2950.17,763.619 2949.74,764.28C2947.99,766.963 2943.92,770.665 2938.46,773.925C2927.93,780.206 2912.37,784.761 2900.68,779.348C2892.62,775.617 2885.81,767.353 2883.92,751.142C2883.57,748.181 2885.69,745.496 2888.65,745.15C2891.61,744.804 2894.3,746.927 2894.64,749.887C2895.93,760.915 2899.74,767.007 2905.22,769.545C2913.84,773.535 2925.16,769.279 2932.92,764.649C2935.62,763.035 2937.9,761.334 2939.47,759.788C2939.85,759.415 2940.27,758.904 2940.52,758.581Z"/>
        <path d="M2974.66,700.347C2975.38,700.75 2976.99,701.586 2978.34,701.934C2983.27,703.198 2990.07,703.307 2996.51,702.386C3007.34,700.84 3013.84,698.704 3017.46,696.134C3018.62,695.305 3019.38,694.549 3019.64,693.692C3019.94,692.648 3019.35,691.696 3018.81,690.89C3018.14,689.874 3016.85,688.764 3016.55,688.504C3014.11,687.458 3012.75,684.749 3013.47,682.121C3014.26,679.245 3017.23,677.548 3020.11,678.333C3021.3,678.659 3025.22,681.009 3027.81,684.917C3030.47,688.914 3031.78,694.157 3028.9,699.366C3027.58,701.749 3025.26,704.242 3021.29,706.462C3016.65,709.056 3009.32,711.469 2998.04,713.08C2987.89,714.529 2977.07,713.621 2971.01,710.764C2966,708.408 2963.56,704.704 2963.62,700.552C2963.67,697.302 2965.55,692.951 2971.33,688.284C2973.65,686.412 2977.06,686.776 2978.93,689.095C2980.8,691.415 2980.44,694.818 2978.12,696.69C2976.81,697.749 2975.8,698.72 2975.1,699.639C2974.95,699.843 2974.78,700.116 2974.66,700.347Z"/>
        <path d="M2973.22,726.476L2974.08,727.923C2983.97,730.172 2991.54,730.762 2997.32,730.123C3002.27,729.575 3005.68,728.152 3007.91,726.04C3011.08,723.05 3011.66,718.87 3011.62,715.273C3011.57,710.699 3010.42,706.78 3010.22,705.577C3009.72,702.637 3011.71,699.851 3014.66,699.361C3017.6,698.871 3020.38,700.861 3020.87,703.801C3021.16,705.527 3022.92,711.947 3022.27,718.763C3021.77,724.106 3019.86,729.612 3015.34,733.888C3008.79,740.08 2995.77,744.147 2970.45,738.169L2968.9,737.584L2967.53,736.675C2966.77,736.068 2965.87,735.148 2965.03,734.001C2962.91,731.091 2961.54,726.84 2962.78,723.06C2963.63,720.473 2965.6,717.784 2970.01,716.039C2972.78,714.944 2975.92,716.305 2977.02,719.077C2978.12,721.849 2976.75,724.99 2973.98,726.085C2973.73,726.186 2973.44,726.348 2973.22,726.476Z"/>
        <path d="M3007.52,734.418C3006.18,731.752 3007.26,728.505 3009.93,727.172C3012.6,725.838 3015.85,726.921 3017.18,729.587C3022.27,739.776 3023.42,746.737 3022.24,751.372C3020.87,756.784 3016.8,760.287 3009.81,762.094C3002.6,763.958 2991.49,764.02 2977.83,764.874C2974.85,765.06 2972.29,762.795 2972.1,759.82C2971.91,756.845 2974.18,754.279 2977.15,754.093C2987.97,753.416 2997.12,753.332 3003.83,752.29C3006.04,751.948 3007.94,751.517 3009.47,750.848C3010.6,750.354 3011.5,749.797 3011.77,748.72C3012.55,745.628 3010.91,741.216 3007.52,734.418Z"/>
        <path d="M2907.64,836.238C2901.93,831.36 2898.55,825.835 2896.91,820.13C2893.8,809.329 2897,797.614 2903.75,787.725C2910.96,777.174 2922.12,768.811 2932.79,765.925C2935.67,765.147 2938.64,766.851 2939.42,769.729C2940.2,772.606 2938.49,775.574 2935.61,776.352C2927.14,778.644 2918.39,785.439 2912.67,793.816C2907.8,800.963 2905.04,809.333 2907.29,817.14C2908.76,822.257 2912.43,827.008 2918.75,831.029L2920.54,832.519L2921.5,833.991L2921.99,835.621L2921.95,837.477L2921.56,838.764L2920.77,840.097L2918.55,841.996C2914.1,844.827 2895.68,853.982 2887.72,917.686C2887.23,921.63 2887.22,925.483 2887.3,928.095C2889.74,925.685 2892.61,921.801 2895.84,917.127C2912.36,893.219 2934.65,848.986 2939.83,840.673C2940.6,839.441 2941.23,838.686 2941.57,838.359L2943.55,837.104L2945.42,836.758L2947.19,837.038C2952.82,838.915 2956.45,839.265 2959.09,838.228C2961.19,837.405 2962.45,835.711 2963.72,833.955C2965.03,832.157 2966.27,830.23 2967.72,828.416C2972.51,822.439 2979.14,817.145 2995.05,819.593C2999.9,820.339 3003.89,819.171 3007.11,819.075C3010.02,818.988 3012.55,819.505 3014.79,820.931C3016.74,822.175 3018.6,824.172 3020.07,827.616C3021.62,829.024 3026.14,834.047 3036.18,851.112C3041.1,859.47 3050.59,866.688 3060.61,871.866C3070.63,877.044 3081.23,880.213 3088.65,879.961C3089.89,879.918 3091.01,879.778 3091.99,879.494C3092.72,879.282 3093.37,879.068 3093.73,878.56C3094.04,878.118 3093.99,877.515 3093.89,876.79C3093.74,875.672 3093.32,874.411 3092.67,872.981C3091.66,870.772 3090.14,868.264 3088.05,865.416C3083.93,859.796 3076.41,855.365 3068.45,850.982C3059.49,846.048 3049.94,841.302 3042.83,835.856C3036.07,830.679 3031.46,824.756 3030.33,817.886C3029.55,813.119 3030.36,807.795 3033.63,801.798C3043.66,783.413 3024.66,761.483 2999.21,764.028C2996.24,764.324 2993.6,762.157 2993.3,759.191C2993,756.225 2995.17,753.576 2998.14,753.279C3033.02,749.791 3056.86,781.772 3043.12,806.97C3036.72,818.69 3045.66,825.508 3056.5,832.036C3064.72,836.981 3074.34,841.526 3082.35,846.592C3088.3,850.353 3093.4,854.44 3096.76,859.028C3101.72,865.789 3104.03,871.226 3104.59,875.326C3105.13,879.27 3104.26,882.376 3102.56,884.784C3100.09,888.29 3095.4,890.539 3089.01,890.756C3080.22,891.056 3067.54,887.608 3055.65,881.463C3043.76,875.318 3032.7,866.507 3026.87,856.589C3015.43,837.15 3013.32,836.096 3012.43,835.345L3011.14,833.917L3010.31,832.292C3009.89,831.212 3009.57,830.443 3009,830.054C3008.71,829.856 3008.36,829.883 3008,829.871C3007.27,829.848 3006.49,829.921 3005.65,830.01C3002.2,830.376 2998.14,830.997 2993.41,830.27C2988.66,829.539 2985.14,829.694 2982.41,830.562C2979,831.647 2977.07,833.9 2975.38,836.183C2973.76,838.363 2972.35,840.618 2970.7,842.568C2968.62,845.02 2966.21,847.038 2963.03,848.285C2959.43,849.697 2954.65,850.171 2947.78,848.458C2939.43,863.015 2911.18,918.364 2895.76,934.763C2893.39,937.275 2891.2,939 2889.38,939.914C2888.84,940.184 2888.32,940.397 2887.81,940.56L2886,940.96L2883.18,940.785L2881.2,939.988L2879.57,938.727L2878.39,937.245L2877.58,935.698C2876.28,932.64 2875.74,926.473 2877,916.346C2883.99,860.494 2899.13,842.774 2907.64,836.238Z"/>
        <path d="M2754.73,581.274C2754.29,584.552 2750.95,609.655 2776.92,616.15" style="fill:none;"/>
        <path d="M2747.73,577.979C2748.55,575.112 2751.54,573.45 2754.4,574.269C2757.27,575.088 2758.93,578.08 2758.11,580.946C2757.42,583.357 2758.16,592.614 2761.7,600.902C2764.97,608.575 2771.01,615.55 2782.05,613.973C2785,613.552 2787.74,615.605 2788.16,618.556C2788.58,621.507 2786.53,624.245 2783.58,624.667C2766.54,627.1 2756.82,616.986 2751.76,605.145C2746.97,593.919 2746.79,581.245 2747.73,577.979Z"/>
        <path d="M3097.44,483.963C3097.16,480.995 3099.34,478.358 3102.31,478.078C3105.28,477.797 3107.92,479.978 3108.2,482.946C3108.82,489.511 3110.43,493.584 3111.43,497.363C3113.27,504.356 3113.82,510.579 3105.96,524.98C3104.53,527.597 3101.25,528.563 3098.63,527.135C3096.02,525.708 3095.05,522.424 3096.48,519.807C3103.15,507.577 3102.01,503.547 3100.14,497.156C3099.12,493.658 3097.98,489.61 3097.44,483.963Z"/>
    </g></svg>