<?xml version="1.0" encoding="UTF-8" standalone="no"?><!DOCTYPE svg PUBLIC "-//W3C//DTD SVG 1.1//EN" "http://www.w3.org/Graphics/SVG/1.1/DTD/svg11.dtd"><svg width="100%" height="100%" viewBox="0 0 4500 4500" version="1.1" xmlns="http://www.w3.org/2000/svg" xmlns:xlink="http://www.w3.org/1999/xlink" xml:space="preserve" xmlns:serif="http://www.serif.com/" style="fill-rule:evenodd;clip-rule:evenodd;stroke-linecap:round;stroke-linejoin:round;stroke-miterlimit:1.5;"><g id="general-laptop" serif:id="general laptop"><g id="computer"><g><path d="M229.998,139.413c-183.931,-29.602 -125.456,105.015 -19.237,1230.31c7.668,81.311 73.972,958.44 78.55,1028.98c1.865,28.754 3.938,60.422 24.598,57.677c126.963,-16.807 601.241,-68.816 750.353,-75.692c68.913,-3.184 1179.06,-150.936 1925.38,-214.232c289.915,-24.582 286.08,-45.432 281.982,-73.996c-30.551,-212.865 -37.07,-250.651 -68.423,-835.64c-4.239,-79.136 36.308,-285.873 -16.213,-1009.22c-12.529,-172.563 -138.654,-186.476 -157.562,-188.562c-404.866,-44.683 -497.547,27.816 -1388.91,27.816c-111.175,-0 -110.167,17.206 -1388.9,49.463c-3.57,0.09 20.886,-0.998 -21.611,3.094Z" style="fill:#808080;stroke:#000;stroke-width:21.54px;"/></g><g><path d="M487.966,362.977c-78.785,27.826 -161.471,-1.168 -159.483,106.892c10.344,563.301 77.4,955.596 79.897,1052.53c9.534,370.038 19.859,651.609 138.174,654.334c502.625,11.567 1191.88,-142.303 2385.77,-172.414c189.856,-4.791 95.328,-85.803 58.644,-979.6c-1.884,-45.91 -24.108,-70.332 -49.695,-598.981c-0.066,-1.358 71.24,-156.515 -210.751,-135.177c-1193.3,90.304 -2032.15,21.868 -2275.1,86.212" style="stroke:#000;stroke-width:21.54px;"/></g><g><path d="M306.305,2454.61c-2.025,79.236 1.639,39.004 93.096,265.063c243.639,602.196 356.236,805.759 387.475,881.631c232.542,564.788 107.529,673.915 488.598,633.354c169.093,-18.004 857.119,-22.785 1258.94,-114.367c968.774,-220.789 1974.37,-305.494 1929.45,-350.466c-146.041,-146.225 -958.938,-1605.69 -1183.58,-1632.53c-82.404,-9.851 -1294.49,141.524 -2369.44,244.074c-328.03,31.289 -548.655,69.804 -604.548,73.237Z" style="fill:#808080;stroke:#000;stroke-width:21.54px;"/></g><g><path d="M712.548,2676.71c85.606,228.844 123.591,241.25 165.993,527.572c3.241,21.887 205.994,585.707 289.679,593.093c96.629,8.533 1245.03,-166.136 1451.63,-196.547c523.549,-77.07 521.165,-66.291 1115.6,-189.051c-27.461,-42.647 -406.892,-1045.5 -562.033,-1060.12c-335.001,-31.598 -2261.56,308.259 -2460.87,325.056Z" style="stroke:#000;stroke-width:21.54px;"/></g><g><path d="M113.499,215.409c-39.79,108.442 -139.417,41.895 -27.02,1628.02c52.496,740.724 77.1,670.343 155.539,634.718c27.62,-12.53 44.762,-1.378 49.968,-33.598c10.271,-63.572 -49.949,-515.313 -130.935,-1526.34c-12.545,-156.658 -33.499,-356.119 -41.691,-504.43c-6.32,-114.433 -4.157,-203.026 -5.861,-198.373Z" style="fill:#808080;stroke:#000;stroke-width:21.58px;"/></g><g><path d="M301.831,2459.23c-128.942,68.825 -171.344,-19.273 -84.014,231.279c115.065,330.116 696.401,1890.45 750.721,1736.24c14.112,-40.062 18.474,-161.275 74.612,-184.18c20.82,-8.504 -6.312,4.361 -37.005,-24.583c-52.172,-49.194 -61.734,-230.68 -202.461,-565.437c-10.806,-25.69 -23.373,-50.441 -35.13,-75.473c-256.065,-545.236 -477.067,-1115.89 -466.723,-1117.85Z" style="fill:#808080;stroke:#000;stroke-width:21.54px;"/></g><g><path d="M1191.48,4251.5c-65.484,2.925 -127.293,-20.081 -153.775,-5.11c-43.514,24.592 -42.016,86.152 -57.796,129.977c-35.516,98.647 17.711,84.515 127.943,65.482c569.39,-98.328 1527.66,-157.183 2306.29,-339.009c704.569,-164.519 739.058,-142.622 894.463,-178.971c55.771,-13.044 220.464,-166.335 121.367,-128.739c-32.134,12.187 -109.591,13.863 -212.428,37.757c-57.288,13.314 -82.404,20.23 -103.487,23.005c-674.809,89.016 -1002.53,187.085 -1923.44,320.046c-543.314,78.447 -750.382,41.279 -870.082,64.264c-62.365,11.977 -75.385,8.893 -129.055,11.298Z" style="fill:#808080;stroke:#000;stroke-width:21.54px;"/></g><g><path d="M425.328,295.958c7.876,14.162 -192.909,-1.388 -171.712,298.048" style="fill:none;stroke:#000;stroke-width:21.54px;"/></g><g><path d="M385.412,2145.72c0.255,180.448 137.204,168.282 176.375,135.765" style="fill:none;stroke:#000;stroke-width:21.54px;"/></g><g><path d="M2782.6,190.563c158.494,7.386 204.552,-13.663 230.167,219.772" style="fill:none;stroke:#000;stroke-width:21.54px;"/></g><g><path d="M3112.17,1866.45c8.827,229.662 -131.278,219.392 -209.15,234.413" style="fill:none;stroke:#000;stroke-width:21.54px;"/></g><g><path d="M1582.71,180.164c-43.627,-54.973 -101.979,48.844 -53.218,75.921c47.688,26.469 97.91,-19.112 53.218,-75.921Z" style="fill:#fff;stroke:#000;stroke-width:21.54px;"/></g><g><path d="M2120.7,3812.3c3.466,44.483 3.636,216.248 23.325,226.867c50.882,27.447 912.259,-72.189 943.281,-134.976c21.856,-44.234 21.913,-231.23 -111.777,-212.785c-69.911,9.651 -830.072,101.222 -854.829,120.894Z" style="stroke:#000;stroke-width:21.54px;"/></g><g><path d="M562.635,2543.69c-158.174,-17.975 -54.047,148.101 35.997,112.331c95.866,-38.086 61.649,-145.636 -71.607,-110.345" style="fill:#fff;stroke:#000;stroke-width:21.54px;"/></g></g></g></svg>