<svg width="100%" height="100%" viewBox="0 0 3440 1080" version="1.1" xmlns="http://www.w3.org/2000/svg" xmlns:xlink="http://www.w3.org/1999/xlink" xml:space="preserve" xmlns:serif="http://www.serif.com/" style="fill-rule:evenodd;clip-rule:evenodd;stroke-linecap:round;stroke-linejoin:round;stroke-miterlimit:1.5;"><g xmlns="http://www.w3.org/2000/svg" id="Artboard11" serif:id="Artboard1">
        <g id="happy-duck" serif:id="happy duck">
            <g transform="matrix(1.25846,0,0,1.26753,-245.353,-182.484)">
                <path d="M606.289,231.507C606.322,229.476 613.191,224.458 578.332,204.276C574.371,201.983 519.494,164.678 439.754,183.664C420.819,188.172 384.179,215.722 374.112,229.011C359.258,248.617 338.196,272.618 340.498,348.563C340.849,360.154 352.699,415.383 359.524,425.621C386.119,465.513 399.42,464.854 455.03,495.013C497.198,517.881 612.004,498.037 631.508,460.335C680.534,365.566 655.047,302.545 669.344,277.846C674.274,269.33 680.366,261.698 692.097,260.902C700.753,260.314 720.703,244.825 695.209,242.909C674.906,241.384 658.281,264.37 655.708,268.016C657.24,263.067 669.329,224.009 646.194,203.959C637.291,196.242 640.693,206.919 640.804,208.082C643.753,239.054 635.912,238.502 630.656,247.086C633.519,237.066 643.034,218.458 606.238,198.568C596.731,193.429 601.3,203.987 601.482,204.593C605.287,217.279 605.565,218.469 606.289,231.507Z" style="fill:rgb(255,214,0);"/>
                <path d="M600.02,213.801C599.443,211.637 598.688,209.101 597.674,205.719C597.566,205.36 596.282,202.086 596.253,199.596C596.246,198.979 596.301,198.393 596.412,197.856L596.843,196.522L597.55,195.353L598.643,194.301C600.094,193.251 603.073,192.366 608.138,195.104C628.077,205.882 635.18,216.585 637.199,225.679C637.212,225.738 637.225,225.797 637.238,225.856C637.641,221.637 637.571,216.096 636.859,208.571C636.782,208.221 635.943,204.342 636.155,202.382L636.569,200.617L637.332,199.242L638.481,198.144L640.018,197.426L641.795,197.245L643.981,197.76C645.14,198.225 646.736,199.192 648.807,200.987C658.896,209.731 662.943,221.742 663.937,233.411C664.543,240.511 664.011,247.461 663.124,253.348C665.452,251.113 668.088,248.856 670.975,246.821C677.989,241.877 686.439,238.294 695.509,238.976C700.861,239.378 704.473,240.391 706.777,241.626C709.056,242.847 710.358,244.379 711.05,245.936C712.273,248.686 711.735,251.906 709.498,254.97C705.896,259.902 697.478,264.49 692.368,264.837C682.174,265.529 677.072,272.412 672.788,279.812C670.735,283.36 669.658,287.807 669.013,293.093C667.948,301.81 668.121,312.647 667.942,325.513C667.481,358.519 664.84,404.538 635.042,462.137C626.882,477.91 603.008,491.076 574.193,499.209C531.82,511.168 479.067,512.543 453.126,498.474C396.623,467.832 383.233,468.331 356.211,427.798C354.041,424.543 351.304,417.029 348.648,407.728C342.706,386.914 336.776,356.927 336.526,348.681C334.177,271.139 355.771,246.659 370.936,226.64C381.342,212.904 419.256,184.488 438.827,179.828C520.252,160.441 576.289,198.527 580.334,200.869C589.295,206.057 595.598,210.315 600.02,213.801ZM609.834,224.529C610.395,225.745 610.653,226.791 610.764,227.68C611.006,229.632 610.568,231.012 610.228,232.033L610.226,232.039C609.968,233.941 608.346,235.413 606.367,235.451C604.228,235.492 602.44,233.845 602.322,231.724C602.217,229.839 602.122,228.21 602.024,226.763C601.432,225.868 600.531,224.822 599.237,223.558C595.374,219.788 588.452,214.702 576.331,207.684C572.453,205.439 518.736,168.915 440.68,187.5C422.382,191.857 387.016,218.54 377.287,231.382C362.746,250.576 342.216,274.096 344.469,348.444C344.711,356.425 350.542,385.431 356.293,405.576C358.65,413.829 360.912,420.556 362.837,423.444C389.005,462.695 402.218,461.877 456.935,491.551C481.594,504.924 531.742,502.988 572.02,491.62C588.087,487.085 602.595,481.027 613.256,473.713C619.958,469.116 625.114,464.062 627.974,458.533C661.891,392.97 659.666,342.77 660.16,310.185C660.386,295.209 661.353,283.734 665.899,275.881C671.476,266.247 678.556,257.866 691.827,256.966C694.753,256.768 699.216,254.329 701.966,251.597C702.588,250.979 703.119,250.348 703.472,249.707C703.572,249.525 703.674,249.226 703.721,249.077C703.528,248.934 702.905,248.488 702.298,248.241C700.607,247.553 698.193,247.09 694.91,246.843C687.736,246.304 681.122,249.344 675.575,253.254C666.659,259.539 660.423,268.21 658.961,270.28C657.839,271.869 655.719,272.412 653.963,271.56C652.206,270.707 651.336,268.713 651.91,266.857C652.789,264.017 657.328,249.433 656.02,234.076C655.231,224.818 652.31,215.224 644.789,208.03C645.998,220.961 645.328,228.655 643.839,233.807C642.588,238.134 640.769,240.849 638.791,243.236C637.226,245.124 635.519,246.738 634.051,249.135C633.018,250.822 630.89,251.491 629.068,250.702C627.245,249.913 626.291,247.909 626.834,246.01C628.133,241.463 631.13,234.992 629.439,227.377C627.754,219.789 621.366,211.368 604.992,202.389C605.146,202.951 605.267,203.391 605.289,203.467C608.443,213.981 609.251,216.857 609.834,224.529Z"/>
            </g>
            <g transform="matrix(1.64541,0,0,1.57926,-437.285,-297.477)">
                <path d="M522.185,313.508C525.279,309.073 513.229,288.703 493.98,295.922C477.789,301.994 449.071,349.678 493.029,363.15C502.441,366.034 524.975,351.392 522.185,313.508Z"/>
                <path d="M525.276,314.152L525.276,314.153C527.056,341.877 515.71,357.599 505.5,363.615C500.478,366.575 495.591,367.235 492.171,366.187C480.65,362.656 473.785,356.846 470.12,350.156C464.599,340.075 466.285,327.709 471.253,316.956C476.678,305.213 485.969,295.561 492.951,292.943C508.268,287.199 519.564,296.853 523.763,304.873C524.967,307.173 525.595,309.373 525.692,311.114C525.757,312.276 525.596,313.297 525.276,314.152ZM519.613,311.821C519.616,311.693 519.619,311.326 519.582,311.086C519.437,310.146 519.03,309.055 518.428,307.906C515.239,301.815 506.641,294.539 495.009,298.901C489.038,301.14 481.368,309.661 476.729,319.702C472.639,328.555 470.853,338.718 475.399,347.017C478.446,352.58 484.308,357.177 493.886,360.112C496.979,361.06 501.684,359.37 506.206,355.409C513.951,348.625 520.726,335.077 519.155,313.75C519.105,313.071 519.267,312.395 519.613,311.821Z"/>
            </g>
            <path d="M468.58,297.952C477.481,297.993 483.952,300.871 485.862,301.766C493.086,303.609 497.382,307.256 499.612,311.64C502.828,317.96 501.707,326.599 496.669,335.54C490.281,346.877 477.72,359.008 463.781,366.589C454.162,371.819 443.899,374.859 434.554,374.34C425.347,373.829 419.185,370.655 415.314,366.209C409.586,359.628 408.652,349.691 411.825,339.11C416.03,325.085 427.338,309.917 440.453,302.063C449.508,296.64 459.384,294.66 468.58,297.952Z" style="fill:rgb(255,116,105);"/>
            <path d="M374.127,197.606C373.343,200.41 370.459,202.1 367.616,201.389C364.724,200.666 362.963,197.731 363.686,194.839C363.979,193.667 366.577,187.404 371.125,182.568C376.403,176.956 383.883,173.326 392.677,178.218C395.282,179.667 396.22,182.959 394.771,185.564C393.322,188.169 390.03,189.107 387.425,187.658C383.929,185.713 381.093,187.737 378.994,189.968C376.316,192.815 374.127,197.606 374.127,197.606Z" style="fill:white;"/>
            <g transform="matrix(1.25846,0,0,1.26753,-245.353,-182.484)">
                <path d="M484.754,248.648C482.785,249.606 480.403,248.797 479.438,246.842C478.473,244.887 479.288,242.522 481.257,241.564C496.091,234.346 515.276,235.276 529.593,242.915C539.435,248.165 546.973,256.532 549.539,267.436C550.037,269.556 548.709,271.679 546.573,272.174C544.438,272.669 542.3,271.35 541.801,269.23C539.764,260.572 533.647,254.034 525.832,249.864C513.664,243.372 497.361,242.514 484.754,248.648Z"/>
            </g>
            <g transform="matrix(1.25846,0,0,1.26753,-245.353,-182.484)">
                <path d="M387.31,336.992C374.554,327.29 404.954,272.148 362.061,274.041C332.649,275.339 336.602,215.374 305.932,207.764C230.351,189.011 260.033,318.766 291.979,345.074C293.899,346.655 299.442,353.224 297.687,354.905C296.843,355.714 287.717,367.161 268.196,392.958C258.441,405.85 258.809,441.706 290.394,440.525C331.316,438.995 333.063,402.821 381.722,389.787C394.13,386.464 400.507,386.679 402.969,361.564C403.919,351.871 388.443,338.288 387.31,336.992Z" style="fill:rgb(255,214,0);"/>
                <path d="M293.694,353.505C293.439,353.023 293.093,352.406 292.784,351.966C291.638,350.338 290.206,348.739 289.443,348.11C281.4,341.487 273.383,328.684 267.108,313.213C257.886,290.479 252.325,262.011 255.229,239.909C256.946,226.843 261.651,215.952 269.874,209.266C278.183,202.509 290.192,199.793 306.896,203.937C315.554,206.086 321.858,211.817 326.829,219.351C331.362,226.221 334.786,234.621 338.144,242.746C341.264,250.295 344.3,257.601 348.362,262.92C351.783,267.4 355.957,270.362 361.885,270.1C371.88,269.659 378.389,272.12 382.638,276.04C388.888,281.806 390.398,291.219 389.956,301.339C389.573,310.128 387.831,319.434 387.876,326.513C387.889,328.476 388.035,330.236 388.471,331.703C388.739,332.601 389.081,333.371 389.726,333.861C389.938,334.023 390.134,334.205 390.309,334.405C391.006,335.202 396.973,340.546 401.439,346.825C404.943,351.75 407.381,357.273 406.923,361.946C405.555,375.905 402.752,382.716 398.914,386.607C395.001,390.575 389.789,391.712 382.757,393.596C359.251,399.892 347.119,411.847 335.878,422.344C323.566,433.841 312.197,443.658 290.543,444.467C281.869,444.791 275.279,442.58 270.386,438.971C263.044,433.556 259.446,424.849 258.738,415.921C257.969,406.219 260.651,396.362 265.019,390.589C281.333,369.03 290.504,357.382 293.694,353.505ZM384.678,339.955L384.671,339.949C381.474,337.361 379.969,332.668 379.93,326.563C379.884,319.374 381.628,309.923 382.017,300.998C382.349,293.401 381.921,286.148 377.229,281.819C374.184,279.01 369.402,277.666 362.238,277.982C348.831,278.573 341.015,268.565 334.817,255.104C330.778,246.331 327.302,236.142 322.544,227.588C318.303,219.961 313.093,213.607 304.969,211.591C291.439,208.234 281.639,209.897 274.909,215.37C268.092,220.912 264.532,230.098 263.109,240.93C260.361,261.841 265.753,288.756 274.479,310.266C280.168,324.292 287.224,336.033 294.516,342.038C296.434,343.618 301.102,349.29 301.83,352.53L301.997,354.132L301.808,355.447L301.31,356.643L300.447,357.743C299.614,358.541 290.639,369.866 271.372,395.328C267.937,399.868 266.055,407.672 266.66,415.301C267.189,421.971 269.639,428.592 275.125,432.638C278.784,435.337 283.757,436.826 290.244,436.583C309.513,435.863 319.478,426.827 330.434,416.597C342.463,405.365 355.534,392.716 380.687,385.979C386.066,384.538 390.243,384.123 393.236,381.088C396.305,377.976 397.92,372.341 399.014,361.182C399.317,358.099 397.26,354.626 394.949,351.376C391.14,346.022 386.156,341.407 384.678,339.955Z"/>
            </g>
            <g transform="matrix(1.25846,0,0,1.26753,-245.353,-182.484)">
                <path d="M308.473,339.517C285.488,312.215 258.597,222.213 295.15,231.231C337.26,241.619 305.45,323.68 336.692,346.343C345.495,352.728 346.979,349.243 357.305,352.685C366.539,355.763 349.755,357.262 314.811,396.764C312.531,399.342 295.164,412.794 287.54,403.74C286.311,402.282 280.155,394.528 295.524,385.148C301.151,381.714 327.212,362.704 308.473,339.517Z" style="fill:rgb(240,58,58);"/>
                <path d="M305.407,342.026L305.395,342.012C288.802,322.268 270.339,270.862 273.622,244.991C274.631,237.04 277.726,231.297 282.672,228.542C286.088,226.64 290.508,226.021 296.109,227.403C308.061,230.351 314.862,238.289 318.753,249.084C322.297,258.914 323.336,271.25 323.965,283.991C324.564,296.133 324.81,308.655 326.849,319.535C328.714,329.49 331.995,338.05 339.036,343.158C343.423,346.34 345.615,346.587 348.525,346.88C351.08,347.137 354.05,347.439 358.569,348.945C359.84,349.369 360.77,349.816 361.405,350.244L362.612,351.314L363.345,352.46L363.779,354.298L363.536,355.989L362.839,357.417C362.552,357.854 362.156,358.342 361.628,358.871C357.675,362.841 342.162,371.823 317.797,399.367C316.263,401.1 308.675,407.271 300.979,409.698C294.777,411.654 288.623,411.176 284.492,406.27C283.608,405.221 281.015,401.883 281.344,397.143C281.624,393.109 284.031,387.532 293.444,381.787C298.369,378.781 321.757,362.319 305.407,342.026ZM353.174,355.591C350.046,354.822 347.924,354.789 345.914,354.529C342.641,354.106 339.565,353.311 334.348,349.528C327.401,344.489 323.146,336.877 320.589,327.72C317.068,315.115 316.773,299.467 316.028,284.377C315.44,272.472 314.583,260.928 311.272,251.742C308.308,243.52 303.295,237.305 294.192,235.059C291.019,234.276 288.495,234.345 286.56,235.423C283.476,237.14 282.135,241.02 281.506,245.977C278.424,270.266 295.944,318.484 311.521,336.987L311.571,337.048C332.639,363.116 303.931,384.648 297.605,388.508C291.64,392.149 289.449,395.129 289.272,397.686C289.144,399.532 290.243,400.801 290.588,401.21C292.561,403.553 295.611,403.113 298.573,402.179C304.613,400.274 310.623,395.521 311.826,394.161C329.552,374.123 342.675,363.727 350.192,357.947C351.26,357.126 352.284,356.311 353.174,355.591Z"/>
            </g>
            <g transform="matrix(1.25846,0,0,1.26753,-245.353,-182.484)">
                <path d="M467.589,500.266C354.025,600.64 387.025,660.876 409.845,705.64C428.36,741.96 500.655,786.715 531.029,790.2C553.549,792.784 552.978,795.078 575.594,796.492C576.195,796.529 689.756,795.51 715.056,782.86C765.194,757.791 766.17,735.595 790.554,689.536C801.038,669.734 798.893,653.196 811.002,623.475C811.297,622.749 817.925,606.481 808.38,614.037C781.258,635.509 767.487,635.183 756.999,638.679C790.264,612.068 790.645,598.057 786.884,559.511C764.313,583.887 765.418,584.899 737.345,601.952C747.1,581.322 749.68,581.893 752.805,556.889C756.264,529.216 742.068,558.455 712.959,577.861C754.342,522.683 742.355,514.59 737.076,515.47C714.135,519.294 686.658,588.977 602.857,578.91C499.21,566.458 559.479,492.913 550.145,500.176C543.868,505.059 543.012,506.548 467.589,500.266Z" style="fill:rgb(255,214,0);"/>
                <path d="M467.921,496.335C505.404,499.457 524.358,500.66 534.721,500.464C543.502,500.298 545.051,499.128 547.694,497.071L549.358,496.06L550.271,495.795L551.244,495.734L552.634,496.052L554.017,497.008L554.786,498.163L555.129,499.523L554.908,501.371C554.659,502.214 553.906,503.84 552.857,506.056C550.758,510.497 547.377,517.812 545.841,526.145C544.394,533.992 544.568,542.804 549.455,550.79C556.305,561.986 571.989,571.228 603.334,574.994C660.299,581.837 690.378,550.531 710.991,529.979C716.632,524.354 721.617,519.49 726.226,516.228C729.761,513.726 733.145,512.125 736.419,511.58C738.405,511.249 740.894,511.601 742.986,513.194C744.765,514.549 746.415,516.868 746.745,520.835C747.026,524.2 746.301,529.169 743.386,536.284C741.218,541.574 737.793,548.203 732.623,556.466C738.667,550.613 743.272,545.676 746.363,543.507C748.75,541.832 750.826,541.433 752.276,541.674L753.931,542.239L755.295,543.288L756.318,544.774C756.605,545.356 756.856,546.082 757.025,546.973C757.409,548.997 757.375,552.362 756.748,557.375C754.332,576.701 752.266,581.146 747.115,591.212C763.17,580.813 765.541,576.733 783.959,556.841C785.02,555.695 786.661,555.276 788.147,555.771C789.633,556.265 790.688,557.581 790.839,559.131C792.787,579.101 793.528,592.712 789.608,604.781C786.788,613.462 781.591,621.413 772.564,630.293C780.858,627.484 791.439,622.404 805.903,610.953C809.088,608.432 811.419,607.99 812.746,608.123L814.622,608.68L816.147,609.913L817.096,611.596L817.482,613.73C817.627,617.374 814.892,624.446 814.685,624.954C802.508,654.842 804.614,671.458 794.071,691.371C769.2,738.351 767.983,760.813 716.843,786.383C709,790.305 692.972,793.258 674.326,795.311C631.93,799.98 575.768,800.455 575.344,800.429C552.625,799.009 553.196,796.715 530.572,794.119C514.989,792.331 488.588,780.092 463.771,763.505C438.971,746.93 415.793,726.043 406.3,707.421C394.597,684.464 380.444,657.497 383.617,623.443C386.771,589.592 407.052,548.49 464.947,497.319C465.761,496.6 466.836,496.244 467.921,496.335ZM808.102,619.265C782.137,639.098 768.644,638.959 758.264,642.419C756.44,643.027 754.439,642.25 753.515,640.574C752.59,638.899 753.008,636.806 754.507,635.608C770.313,622.963 778.45,613.429 782.045,602.36C785.079,593.018 784.931,582.679 783.752,568.769C766.793,587.318 765.191,589.661 739.419,605.317C737.922,606.226 736.002,606.053 734.695,604.891C733.387,603.729 733.003,601.853 733.749,600.276C743.25,580.182 745.818,580.757 748.862,556.404C749.077,554.687 749.166,552.994 749.197,551.597C747.536,553.018 745.327,554.971 743.363,556.917C736.526,563.694 727.062,573.211 715.174,581.136C713.567,582.207 711.416,581.973 710.082,580.582C708.747,579.19 708.616,577.046 709.772,575.505C729.832,548.759 737.129,533.521 738.599,524.98C739.012,522.582 738.975,520.938 738.445,519.859C738.264,519.49 737.979,519.319 737.734,519.36C734.636,519.877 731.513,521.945 728.04,524.804C721.927,529.836 715.091,537.304 706.806,545.198C685.232,565.756 654.249,589.057 602.38,582.826C563.988,578.213 547.131,565.129 540.645,551.115C534.014,536.789 538.046,520.939 542.366,510.167C542.705,509.324 543.051,508.489 543.395,507.68C541.259,508.05 538.527,508.283 534.872,508.352C524.541,508.547 505.773,507.392 468.961,504.338C414.257,553.015 394.539,591.868 391.529,624.17C388.516,656.519 402.273,682.051 413.39,703.858C422.412,721.557 444.639,741.207 468.208,756.961C491.762,772.703 516.695,784.585 531.485,786.282C553.901,788.854 553.332,791.148 575.843,792.555C576.261,792.581 631.642,792.074 673.45,787.47C690.893,785.549 705.932,783.006 713.269,779.337C762.406,754.769 763.14,732.84 787.037,687.7C797.462,668.01 795.278,651.549 807.319,621.996C807.375,621.858 807.709,620.677 808.102,619.265Z"/>
            </g>
            <g transform="matrix(1.25846,0,0,1.26753,-245.353,-182.484)">
                <path d="M598.138,586.774C540.946,601.091 498.939,670.706 548.855,690.06C633.287,722.797 711.371,685.3 742.903,632.595C710.442,644.952 711.235,645.987 679.085,659.158C743.792,611.667 744.6,594.669 752.67,580.802C725.068,598.018 725.284,597.712 698.597,616.285C729.18,587.061 731.586,588.19 745.204,548.057C728.131,561.929 728.331,561.427 709.424,573.389C731.302,547.256 735.44,548.305 740.746,520.713C734.475,524.726 680.169,559.482 660.529,567.9C646.57,573.882 612.99,580.833 598.138,586.774Z" style="fill:rgb(255,214,0);"/>
                <path d="M596.903,583.016L596.908,583.014C611.863,577.105 645.095,570.218 658.955,564.278C678.457,555.92 732.367,521.383 738.594,517.398C739.93,516.542 741.65,516.56 742.968,517.443C744.286,518.325 744.947,519.903 744.649,521.453C741.265,539.051 738.401,545.395 731.377,554.041C734.289,551.8 737.762,549.007 742.688,545.005C744.059,543.891 746.007,543.813 747.464,544.813C748.921,545.813 749.535,547.65 748.969,549.317C741.563,571.143 737.413,581.046 730.446,590.029C735.448,586.867 741.514,583.102 750.556,577.462C752.102,576.498 754.112,576.704 755.426,577.962C756.741,579.22 757.023,581.206 756.11,582.776C749.09,594.838 747.503,609.251 705.853,643.468C715.118,639.388 722.802,636.022 741.481,628.911C743.061,628.31 744.851,628.768 745.941,630.052C747.031,631.336 747.183,633.165 746.319,634.609C713.987,688.651 633.984,727.302 547.409,693.735C536.274,689.417 529.326,682.761 525.708,674.9C522.104,667.068 521.804,657.945 524.326,648.459C531.406,621.825 561.236,592.054 596.903,583.016ZM599.11,590.599C566.262,598.822 538.525,625.964 532.009,650.473C529.993,658.057 530.054,665.359 532.936,671.622C535.805,677.856 541.468,682.961 550.3,686.386C627.012,716.129 698.398,686.563 732.622,640.805C711.503,649.134 708.27,651.469 680.601,662.805C678.746,663.565 676.612,662.833 675.626,661.098C674.639,659.363 675.11,657.171 676.724,655.986C722.494,622.393 735.819,604.302 742.638,591.714C726.527,601.77 722.847,604.226 700.877,619.515C699.178,620.697 696.849,620.383 695.53,618.792C694.211,617.202 694.347,614.871 695.842,613.443C721.977,588.469 727.094,586.202 736.865,559.802C729.176,565.771 725.526,567.879 711.559,576.715C709.908,577.76 707.737,577.455 706.443,575.997C705.149,574.539 705.117,572.362 706.368,570.867C724.771,548.886 730.325,546.843 734.835,529.159C717.362,540.215 678.186,564.629 662.104,571.521C648.124,577.513 614.497,584.483 599.623,590.433C599.456,590.5 599.284,590.555 599.11,590.599Z"/>
            </g>
            <g transform="matrix(1.25846,0,0,1.26753,-245.353,-182.484)">
                <path d="M605.478,586.25C513.311,600.474 528.079,670.745 530.504,678.526C537.153,699.856 695.113,713.629 668.073,680.024C650.651,673.055 646.862,678.882 642.946,677.431C650.333,670.951 668.031,657.755 671.015,651.787C674.525,644.768 667.974,645.459 651.339,644.817C654.285,642.83 683.386,623.204 685.695,616.659C686.325,614.875 685.05,614.21 662.053,616.883C672.546,603.338 708.523,567.519 667.345,575.24C636.198,581.08 636.154,578.581 605.478,586.25Z" style="fill:rgb(248,190,70);"/>
                <path d="M604.685,582.38L604.686,582.38C635.3,574.736 635.403,577.214 666.608,571.363C673.453,570.08 678.378,569.966 681.76,570.608C684.857,571.195 686.945,572.431 688.318,573.944C689.882,575.668 690.645,577.831 690.601,580.381C690.553,583.078 689.482,586.376 687.588,589.931C683.885,596.881 676.935,605.192 671.285,611.907C676.875,611.351 680.399,611.13 682.584,611.153C684.681,611.174 685.945,611.458 686.689,611.753L688.283,612.736L689.246,613.972L689.661,615.075L689.781,616.089L689.445,617.963C688.631,620.269 685.201,624.146 680.403,628.242C675.316,632.586 668.73,637.462 663.327,641.313C664.197,641.362 665.004,641.418 665.748,641.485C668.656,641.75 670.791,642.259 672.2,642.971L673.441,643.748L674.585,644.875L675.443,646.345L675.859,647.962C676.028,649.377 675.73,651.229 674.574,653.541C673.545,655.598 671.07,658.468 667.774,661.588C664.086,665.079 659.333,669.022 654.934,672.624C658.56,672.869 663.263,673.847 669.558,676.365C670.192,676.619 670.75,677.031 671.177,677.562C674.498,681.69 675.493,685.396 675.059,688.515C674.622,691.658 672.75,694.468 669.389,696.735C665.612,699.284 659.652,701.226 652.184,702.444C625.407,706.814 578.074,702.554 550.461,694.375C543.019,692.171 536.962,689.652 532.97,686.993C529.537,684.706 527.478,682.158 526.709,679.692C525.168,674.749 518.894,645.986 535.221,620.517C545.925,603.819 566.357,588.335 604.685,582.38ZM667.592,649.738C667.113,649.627 666.527,649.507 665.988,649.442C662.632,649.042 657.698,649.01 651.184,648.758C649.47,648.692 647.992,647.54 647.519,645.903C647.047,644.265 647.687,642.511 649.106,641.554C651.14,640.182 665.819,630.29 675.222,622.261C676.49,621.178 677.658,620.135 678.675,619.156C675.257,619.386 670.134,619.915 662.515,620.801C660.928,620.985 659.385,620.208 658.597,618.828C657.809,617.449 657.93,615.735 658.904,614.478C664.054,607.83 675.5,595.747 680.564,586.242C681.607,584.284 682.372,582.479 682.6,580.894C682.695,580.236 682.792,579.642 682.414,579.225C681.79,578.537 680.634,578.333 679.008,578.185C676.34,577.942 672.76,578.239 668.082,579.116C637.053,584.934 637.008,582.435 606.449,590.075C606.33,590.105 606.21,590.129 606.089,590.148C570.8,595.594 551.766,609.401 541.924,624.753C527.407,647.399 532.93,672.965 534.3,677.359C534.649,678.479 535.838,679.403 537.397,680.442C540.889,682.767 546.223,684.887 552.733,686.815C579.381,694.709 625.054,698.876 650.895,694.659C656.702,693.712 661.444,692.385 664.544,690.456C665.954,689.578 667.014,688.685 667.188,687.435C667.361,686.189 666.746,684.86 665.592,683.294C655.423,679.408 650.729,680.496 647.661,681.166C645.255,681.692 643.414,681.815 641.557,681.127C640.25,680.643 639.294,679.513 639.04,678.15C638.785,676.788 639.269,675.393 640.315,674.475C645.459,669.962 655.633,662.18 662.291,655.878C664.731,653.568 666.695,651.556 667.456,650.033C667.502,649.942 667.547,649.842 667.592,649.738Z"/>
            </g>
            <g transform="matrix(1.25846,0,0,1.26753,-245.353,-182.484)">
                <path d="M404.165,555.349C356.348,505.388 357.308,468.872 350.147,458.846C347.291,454.848 331.226,454.32 335.603,518.515C313.203,498.115 311.385,487.651 307.679,497.12C294.737,530.194 316.911,563.711 320.111,568.548C318.416,567.983 292.721,559.418 299.815,577.861C310.804,606.432 338.85,604.481 331.272,608.27C274.202,636.805 386.159,661.215 387.758,653.751C388.398,650.764 380.429,616.741 395.737,589.953C413.218,559.361 402.215,555.739 404.165,555.349Z" style="fill:rgb(255,214,0);"/>
                <path d="M408.12,554.971C409.913,558.197 413.266,567.271 399.193,591.899C388.94,609.841 389.719,631.195 390.828,643.361C391.382,649.441 391.859,653.572 391.644,654.571L390.969,656.18L390.227,657.062L389.453,657.669C388.701,658.159 387.544,658.619 385.975,658.847C380.11,659.701 364.765,657.524 349.596,652.959C337.652,649.366 325.839,644.309 318.77,638.413C312.965,633.57 310.214,628.02 311.359,622.342C312.287,617.741 316.103,612.595 324.434,607.526C316.235,604.167 303.046,597.319 296.103,579.268C293.59,572.735 294.617,568.604 296.655,566.079C298.751,563.481 302.41,562.201 306.602,562.133C308.326,562.105 310.14,562.268 311.886,562.527C304.619,549.095 293.585,522.245 303.976,495.691C305.24,492.459 306.777,490.863 308.09,490.217L309.869,489.691L311.649,489.772C312.672,489.983 313.886,490.547 315.228,491.677C318.027,494.034 322.481,500.09 331.095,508.734C330.392,490.72 331.507,478.609 333.384,470.598C335.044,463.512 337.393,459.328 339.624,456.947C341.667,454.768 343.779,453.826 345.623,453.523C347.306,453.245 348.844,453.49 350.129,454.019L351.948,455.073L353.388,456.564C355.7,459.801 357.352,465.557 359.744,473.546C364.829,490.528 374.23,518.345 407.045,552.632C407.667,553.282 408.036,554.109 408.12,554.971ZM405.966,558.865C405.649,559.025 405.308,559.144 404.949,559.216C405.349,559.136 405.683,559.014 405.966,558.865ZM383.596,651.097C383.416,649.337 383.156,646.724 382.914,644.072C381.705,630.808 381.103,607.568 392.281,588.006C404.892,565.937 401.818,559.88 400.753,558.094L400.339,557.074C366.976,521.87 357.366,493.291 352.127,475.794C350.119,469.087 348.944,464.132 347.037,461.317C346.879,461.358 346.338,461.516 345.941,461.847C345.749,462.007 345.558,462.193 345.365,462.405C345.113,462.683 344.863,463.002 344.615,463.363C344.303,463.816 343.997,464.331 343.697,464.911C340.015,472.025 337.461,487.362 339.567,518.249C339.677,519.858 338.788,521.372 337.324,522.07C335.86,522.769 334.115,522.512 332.917,521.422C323.808,513.126 318.045,506.449 314.169,502.036C313.19,500.921 312.096,499.78 311.241,498.913C299.249,530.223 320.402,561.804 323.432,566.383C324.362,567.788 324.292,569.625 323.258,570.957C322.223,572.289 320.452,572.823 318.846,572.288C318.082,572.033 311.916,569.937 306.732,570.021C305.166,570.046 303.639,570.042 302.856,571.012C302.527,571.42 302.51,572.016 302.574,572.782C302.659,573.817 302.978,575.028 303.526,576.454C309.152,591.08 319.685,596.939 326.633,599.886C330.187,601.394 332.935,602.317 334.13,603.087L335.273,604.028L336.103,605.244L336.515,606.807L336.31,608.485L335.953,609.298L335.32,610.176L334.376,611.013C334.039,611.256 333.606,611.52 333.06,611.793C327.638,614.504 323.866,617.121 321.524,619.72C319.804,621.628 318.947,623.416 319.059,625.2C319.175,627.057 320.26,628.773 321.834,630.455C323.874,632.635 326.733,634.662 330.082,636.559C336.263,640.058 344.063,643.051 351.9,645.409C362.924,648.726 374.029,650.788 380.896,651.12C381.83,651.165 382.804,651.14 383.596,651.097Z"/>
            </g>
            <g transform="matrix(1.25846,0,0,1.26753,-245.353,-182.484)">
                <path d="M398.802,711.608C354.049,697.45 234.695,729.319 219.221,753.388C183.118,809.548 237.461,805.164 250.998,807.27C350.82,822.798 248.128,862.642 245.471,863.915C248.757,867.393 244,874.292 266.195,878.421C332.55,890.766 411.878,871.607 414.715,894.31C418.625,925.584 337.406,940.234 389.847,952.336C616.145,1004.56 747.801,971.826 757.348,965.461C770.667,956.582 740.1,940.928 730.153,933.892C750.207,932.314 906.432,928.772 883.072,901.908C871.674,888.8 849.835,872.363 851.296,869.441C857.39,857.254 1024.65,869.988 957.678,814.178C926.778,788.427 1038.5,788.977 1044.72,760.987C1049.25,740.583 931.406,687.564 787.805,687.564C769.668,751.855 746.093,806.301 575.67,790.691C509.383,784.619 456.37,747.693 399.518,709.868" style="fill:rgb(41,121,255);"/>
                <path d="M396.841,706.952C398.161,705.757 400.18,705.56 401.73,706.591C458.011,744.036 510.415,780.752 576.035,786.763C659.876,794.442 707.636,785.198 736.626,765.818C765.247,746.685 775.17,717.726 783.979,686.5C784.46,684.797 786.023,683.619 787.805,683.619C889.155,683.619 977.766,709.886 1020.25,732.658C1031.64,738.763 1039.8,744.696 1044.24,749.804C1048.12,754.27 1049.35,758.462 1048.6,761.837C1047.27,767.812 1042.17,772.952 1034.45,777.114C1019.07,785.402 992.854,790.423 974.36,796.157C967.876,798.167 962.402,800.221 958.934,802.648C957.436,803.696 956.243,804.6 956.259,805.902C956.279,807.526 957.75,809.088 960.232,811.156C967.411,817.138 972.03,822.429 974.611,827.042C977.693,832.551 978.077,837.333 976.681,841.446C975.574,844.71 973.281,847.628 969.909,850.143C965.604,853.352 959.403,855.963 951.992,858.028C927.817,864.766 890.131,866.011 868.429,868.652C863.491,869.253 859.436,869.908 856.672,870.761C857.661,871.87 858.981,873.295 860.283,874.533C867.389,881.293 878.823,890.985 886.08,899.33C888.895,902.568 889.73,905.673 889.325,908.477C888.785,912.228 885.666,915.939 879.888,918.903C871.02,923.453 855.261,926.956 837.066,929.547C804.349,934.207 763.605,936.123 742.504,937.159C745.358,938.981 748.363,940.955 751.168,942.995C756.084,946.572 760.376,950.403 762.606,953.98C764.253,956.622 764.893,959.233 764.526,961.648C764.145,964.155 762.724,966.629 759.563,968.736C756.582,970.724 742.216,975.403 717.127,979.203C660.631,987.758 548.081,992.901 388.947,956.178C380.665,954.267 375.462,952.189 372.542,950.116C369.504,947.958 368.342,945.557 368.196,943.233C367.998,940.071 370.146,936.348 374.503,932.681C381.454,926.832 394.351,919.957 403.039,911.356C407.954,906.491 411.562,901.107 410.773,894.795C410.509,892.685 409.011,891.296 406.801,890.2C403.572,888.598 399.041,887.692 393.515,887.123C364.967,884.184 312.029,890.962 265.463,882.298C247.081,878.879 244.752,873.127 243.419,869.008C243.131,868.117 243.162,867.236 242.573,866.613C241.708,865.697 241.334,864.427 241.565,863.193C241.797,861.959 242.606,860.908 243.745,860.362C245.017,859.752 269.808,850.154 283.245,838.67C285.817,836.471 287.955,834.225 289.293,831.941C290.272,830.27 290.823,828.619 290.451,826.978C289.969,824.848 288.111,822.957 284.912,821.019C278.575,817.18 267.61,813.847 250.383,811.167C245.448,810.399 235.161,810.46 225.717,808.229C218.617,806.552 212.021,803.568 207.841,798.512C201.106,790.367 199.933,776.06 215.872,751.266C220.775,743.639 235.37,734.973 254.933,727.398C297.537,710.902 363.717,698.566 396.841,706.952ZM400.413,715.213C399.555,715.592 398.56,715.672 397.596,715.367C366.843,705.638 300.244,718.322 257.82,734.748C247.022,738.929 237.8,743.355 231.182,747.756C227.199,750.406 224.2,752.976 222.57,755.51C215.754,766.114 212.27,774.397 211.293,780.934C210.464,786.481 211.539,790.551 213.983,793.507C217.124,797.307 222.22,799.293 227.556,800.554C236.765,802.729 246.801,802.624 251.613,803.373C270.322,806.283 282.169,810.115 289.051,814.284C294.668,817.687 297.356,821.505 298.204,825.246C299.632,831.547 295.655,838.473 288.429,844.649C277.247,854.207 258.591,862.6 250.769,865.95C251.013,866.833 251.297,867.804 252.078,868.759C253.877,870.96 257.819,872.85 266.927,874.544C313.258,883.164 365.931,876.351 394.335,879.276C401.012,879.963 406.451,881.207 410.353,883.143C415.277,885.586 418.071,889.121 418.658,893.824C419.746,902.525 415.425,910.236 408.65,916.943C399.806,925.698 386.716,932.745 379.641,938.699C378.382,939.758 377.341,940.756 376.65,941.736C376.389,942.106 376.105,942.399 376.127,942.743C376.152,943.145 376.639,943.326 377.166,943.699C378.135,944.388 379.459,945.041 381.162,945.702C383.618,946.655 386.779,947.578 390.746,948.494C548.43,984.882 659.948,979.881 715.929,971.403C739.045,967.903 752.386,964.018 755.133,962.186C755.873,961.693 756.413,961.238 756.619,960.667C756.805,960.151 756.604,959.618 756.347,959.048C755.787,957.812 754.778,956.561 753.531,955.274C746.806,948.334 733.68,941.23 727.847,937.104C726.487,936.142 725.878,934.438 726.324,932.839C726.769,931.241 728.174,930.09 729.839,929.959C743.802,928.861 824.139,926.853 863.112,916.553C870.753,914.534 876.715,912.305 879.911,909.527C880.753,908.795 881.405,908.113 881.469,907.268C881.538,906.373 880.955,905.51 880.065,904.486C870.937,893.988 855.122,881.356 849.91,875.226C848.488,873.555 847.705,872.112 847.44,871.133L847.278,869.278L847.737,867.687L848.735,866.258C849.182,865.776 849.757,865.3 850.478,864.859C852.193,863.81 855.11,862.85 859.01,862.097C877.702,858.484 922.508,858.052 949.844,850.432C955.159,848.951 959.778,847.207 963.311,845.059C966.192,843.307 968.324,841.364 969.151,838.926C969.937,836.612 969.399,833.973 967.665,830.873C965.43,826.879 961.339,822.379 955.124,817.199C950.181,813.08 948.352,809.232 948.313,805.996C948.285,803.638 949.118,801.413 950.834,799.352C952.72,797.088 955.859,794.955 960.003,793.045C973.666,786.748 999.417,782.166 1018.79,775.276C1024.85,773.121 1030.25,770.749 1034.33,767.964C1037.7,765.666 1040.16,763.188 1040.84,760.137C1040.95,759.621 1040.8,759.069 1040.55,758.462C1040.1,757.358 1039.3,756.197 1038.22,754.956C1034.22,750.345 1026.76,745.111 1016.48,739.6C975.107,717.426 889.245,692.025 790.809,691.516C781.648,723.459 770.485,752.694 741.064,772.362C711.126,792.376 661.888,802.549 575.305,794.619C509.56,788.597 456.671,752.682 400.413,715.213Z"/>
            </g>
        </g>
    </g></svg>