<svg width="100%" height="100%" viewBox="0 0 3440 1080" version="1.1" xmlns="http://www.w3.org/2000/svg" xmlns:xlink="http://www.w3.org/1999/xlink" xml:space="preserve" xmlns:serif="http://www.serif.com/" style="fill-rule:evenodd;clip-rule:evenodd;stroke-linecap:round;stroke-linejoin:round;stroke-miterlimit:1.5;"><g xmlns="http://www.w3.org/2000/svg" id="Artboard21" serif:id="Artboard2">
        <g id="computer1" serif:id="computer" transform="matrix(1,0,0,1,1180,0)">
            <g transform="matrix(1.30999,0,0,1.38783,-125.057,-192.247)">
                <path d="M295.354,292.744C275.83,289.778 282.037,303.266 293.312,416.015C294.126,424.162 301.164,512.046 301.65,519.114C301.848,521.995 302.068,525.168 304.261,524.893C317.738,523.209 368.082,517.998 383.91,517.309C391.225,516.99 509.066,502.186 588.286,495.844C619.06,493.381 618.653,491.292 618.218,488.43C614.975,467.102 614.283,463.316 610.955,404.703C610.505,396.774 614.809,376.06 609.234,303.584C607.904,286.294 594.516,284.9 592.509,284.691C549.533,280.214 539.695,287.478 445.078,287.478C433.277,287.478 433.384,289.202 297.648,292.434C297.269,292.443 299.865,292.334 295.354,292.744Z" style="fill:rgb(128,128,128);stroke:black;stroke-width:2.22px;"/>
            </g>
            <g transform="matrix(1.30999,0,0,1.38783,-125.057,-192.247)">
                <path d="M322.737,315.144C314.374,317.932 305.597,315.027 305.808,325.854C306.906,382.294 314.024,421.6 314.289,431.312C315.301,468.388 316.397,496.6 328.956,496.873C382.309,498.032 455.473,482.615 582.202,479.598C602.355,479.118 592.321,471.001 588.427,381.447C588.227,376.847 585.868,374.4 583.152,321.432C583.145,321.296 590.714,305.75 560.781,307.888C434.114,316.936 345.071,310.079 319.282,316.526" style="stroke:black;stroke-width:2.22px;"/>
            </g>
            <g transform="matrix(1.30999,0,0,1.38783,-124.486,-193.077)">
                <path d="M303.018,525.313C302.803,533.252 303.192,529.221 312.9,551.871C338.762,612.208 350.714,632.604 354.03,640.206C378.714,696.795 365.444,707.729 405.894,703.665C423.843,701.861 496.876,701.382 539.529,692.206C642.363,670.084 749.106,661.597 744.338,657.091C728.836,642.44 642.548,496.209 618.703,493.52C609.956,492.533 481.295,507.7 367.19,517.975C332.37,521.11 308.951,524.969 303.018,525.313Z" style="fill:rgb(128,128,128);stroke:black;stroke-width:2.22px;"/>
            </g>
            <g transform="matrix(1.30999,0,0,1.38783,-125.057,-192.247)">
                <path d="M346.576,546.969C355.663,569.898 359.695,571.141 364.196,599.829C364.54,602.022 386.062,658.514 394.945,659.254C405.202,660.109 527.103,642.608 549.034,639.561C604.608,631.839 604.355,632.919 667.453,620.619C664.538,616.346 624.262,515.865 607.794,514.4C572.234,511.234 367.732,545.286 346.576,546.969Z" style="stroke:black;stroke-width:2.22px;"/>
            </g>
            <g transform="matrix(1.30189,0,0,1.38839,-123.278,-195.576)">
                <path d="M283.382,302.635C279.132,313.496 268.491,306.831 280.496,465.689C286.103,539.876 288.731,532.827 297.109,529.259C300.059,528.004 301.89,529.121 302.446,525.894C303.543,519.527 297.111,474.283 288.461,373.024C287.121,357.334 284.883,337.357 284.008,322.503C283.333,311.042 283.564,302.169 283.382,302.635Z" style="fill:rgb(128,128,128);stroke:black;stroke-width:2.23px;"/>
            </g>
            <g transform="matrix(1.30999,0,0,1.38783,-125.057,-192.247)">
                <path d="M302.979,525.178C289.292,532.074 284.791,523.247 294.061,548.351C306.275,581.427 367.983,737.765 373.749,722.314C375.247,718.3 375.71,706.155 381.669,703.86C383.879,703.008 380.999,704.297 377.741,701.397C372.203,696.468 371.188,678.284 356.25,644.743C355.103,642.169 353.769,639.689 352.521,637.181C325.34,582.551 301.881,525.374 302.979,525.178Z" style="fill:rgb(128,128,128);stroke:black;stroke-width:2.22px;"/>
            </g>
            <g transform="matrix(1.30999,0,0,1.38783,-123.425,-189.628)">
                <path d="M396.168,702.868C389.217,703.161 382.656,700.856 379.845,702.356C375.226,704.82 375.385,710.988 373.71,715.379C369.94,725.263 375.59,723.847 387.291,721.94C447.731,712.088 549.45,706.191 632.101,687.973C706.89,671.489 710.551,673.683 727.047,670.041C732.967,668.734 750.449,653.375 739.93,657.142C736.519,658.363 728.297,658.531 717.381,660.925C711.3,662.259 708.634,662.952 706.396,663.23C634.766,672.149 599.979,681.975 502.225,695.297C444.553,703.157 422.573,699.433 409.867,701.736C403.247,702.936 401.865,702.627 396.168,702.868Z" style="fill:rgb(128,128,128);stroke:black;stroke-width:2.22px;"/>
            </g>
            <g transform="matrix(1.30999,0,0,1.38783,-125.057,-192.247)">
                <path d="M316.088,308.429C316.924,309.848 295.611,308.29 297.861,338.292" style="fill:none;stroke:black;stroke-width:2.22px;"/>
            </g>
            <g transform="matrix(1.30999,0,0,1.38783,-125.057,-192.247)">
                <path d="M311.851,493.766C311.878,511.846 326.415,510.627 330.573,507.369" style="fill:none;stroke:black;stroke-width:2.22px;"/>
            </g>
            <g transform="matrix(1.30999,0,0,1.38783,-125.057,-192.247)">
                <path d="M566.309,297.869C583.133,298.609 588.022,296.5 590.741,319.889" style="fill:none;stroke:black;stroke-width:2.22px;"/>
            </g>
            <g transform="matrix(1.30999,0,0,1.38783,-125.057,-192.247)">
                <path d="M601.293,465.785C602.23,488.796 587.358,487.767 579.092,489.272" style="fill:none;stroke:black;stroke-width:2.22px;"/>
            </g>
            <g transform="matrix(1.30999,0,0,1.38783,-125.057,-192.247)">
                <path d="M438.943,296.827C434.312,291.319 428.118,301.721 433.294,304.434C438.356,307.086 443.687,302.519 438.943,296.827Z" style="fill:white;stroke:black;stroke-width:2.22px;"/>
            </g>
            <g transform="matrix(1.30999,0,0,1.38783,-125.057,-192.247)">
                <path d="M496.049,660.749C496.417,665.206 496.435,682.416 498.525,683.48C503.926,686.23 595.36,676.247 598.653,669.956C600.973,665.524 600.979,646.788 586.788,648.636C579.367,649.603 498.677,658.778 496.049,660.749Z" style="stroke:black;stroke-width:2.22px;"/>
            </g>
            <g transform="matrix(1.30999,0,0,1.38783,-125.057,-192.247)">
                <path d="M330.663,533.641C313.873,531.84 324.926,548.48 334.484,544.896C344.66,541.08 341.028,530.304 326.883,533.84" style="fill:white;stroke:black;stroke-width:2.22px;"/>
            </g>
        </g>
        <g id="lenovo" transform="matrix(1,0,0,1,2.79088,-4.44319)">
            <g transform="matrix(0.339459,0,0,0.278812,1102.75,462.088)">
                <path d="M1655.62,607.666L1662.79,608.902L1672.4,614.917L1681.2,626.201L1683.61,631.937L1683.87,632.396L1684.22,633.388L1684.36,633.709L1684.39,633.858L1686.73,640.505L1688.26,649.785L1687.88,659.725L1685.43,669.188L1680.46,678.447L1674.47,684.987L1665.15,690.816L1655.92,693.453L1648.23,693.83L1640.42,692.602L1632.45,689.475L1624.52,683.853L1619.56,678.372L1615.28,671.415L1612.14,663.225L1610.44,654.344L1610.18,645.621L1611.45,636.609L1614.39,628.082L1618.65,620.958L1624.07,615.154L1631.91,610.092L1639.5,607.506C1644.34,606.423 1648.5,606.52 1649.63,606.552C1651.71,606.611 1653.72,606.996 1655.62,607.666Z" style="fill:rgb(255,0,0);"/>
            </g>
            <path d="M1964.03,716.652C1963.83,716.529 1963.76,716.263 1963.88,716.058C1964.01,715.853 1964.27,715.787 1964.48,715.91C1966.4,717.06 1971.12,719.646 1971.23,719.729C1971.43,719.868 1971.47,720.139 1971.33,720.333C1971.19,720.528 1970.92,720.573 1970.73,720.434C1970.61,720.352 1965.93,717.793 1964.03,716.652Z" style="fill:rgb(243,234,179);"/>
            <path d="M1963.38,718.099C1963.34,718.326 1963.12,718.484 1962.89,718.455C1962.66,718.424 1962.49,718.208 1962.52,717.97C1962.53,717.877 1962.6,717.684 1962.72,717.441C1963.09,716.708 1963.96,715.313 1964.07,715.145C1964.55,714.363 1964.38,714.26 1965.03,713.607C1965.2,713.438 1965.48,713.438 1965.64,713.607C1965.81,713.776 1965.81,714.05 1965.64,714.219C1965.33,714.53 1965.26,714.684 1965.17,714.892C1965.09,715.072 1965,715.283 1964.8,715.604C1964.71,715.747 1964.05,716.805 1963.64,717.545C1963.51,717.792 1963.38,718.099 1963.38,718.099Z" style="fill:rgb(243,234,179);"/>
            <path d="M1965.97,712.272C1966.33,712.45 1967.46,713.032 1969.71,714.359C1969.99,714.521 1970.19,714.626 1970.39,714.714L1970.33,714.616C1970.28,714.552 1969.87,713.902 1969.75,713.362C1969.66,713.008 1969.71,712.69 1969.88,712.479L1969.99,712.365L1970.13,712.277C1970.21,712.234 1970.31,712.201 1970.43,712.185C1970.66,712.153 1971.01,712.19 1971.51,712.365C1971.79,712.465 1973.58,713.101 1974.96,713.854C1975.17,713.969 1975.25,714.232 1975.13,714.442C1975.02,714.652 1974.75,714.729 1974.55,714.615C1973.21,713.889 1971.49,713.278 1971.22,713.181C1970.96,713.089 1970.68,713.058 1970.58,713.049C1970.58,713.092 1970.58,713.149 1970.59,713.191C1970.61,713.254 1970.63,713.319 1970.66,713.384C1970.79,713.749 1971.02,714.103 1971.05,714.145C1971.47,714.788 1971.55,714.683 1973.16,715.958C1973.33,716.096 1973.37,716.343 1973.25,716.53C1973.13,716.717 1972.89,716.784 1972.69,716.685C1970.38,715.529 1970.3,715.714 1969.27,715.105C1966.78,713.633 1965.66,713.088 1965.48,712.996L1965.38,712.929L1965.31,712.859L1965.26,712.766L1965.22,712.591L1965.23,712.496L1965.27,712.398L1965.39,712.251L1965.56,712.173L1965.74,712.172L1965.88,712.218C1965.91,712.232 1965.94,712.251 1965.97,712.272Z" style="fill:rgb(243,234,179);"/>
            <path d="M1971.66,710.67C1971.47,710.519 1971.44,710.246 1971.59,710.061C1971.74,709.875 1972.02,709.847 1972.2,709.997C1972.28,710.057 1972.33,710.065 1972.53,710.144C1972.92,710.304 1973.76,710.65 1975.76,711.655C1975.98,711.762 1976.07,712.022 1975.96,712.236C1975.85,712.449 1975.59,712.536 1975.38,712.429C1973.08,711.279 1972.35,711.008 1972.04,710.88C1971.84,710.801 1971.76,710.756 1971.66,710.67Z" style="fill:rgb(243,234,179);"/>
            <path d="M1972.73,708.941C1972.5,708.99 1972.27,708.839 1972.22,708.605C1972.17,708.371 1972.32,708.142 1972.56,708.093C1972.76,708.052 1972.87,708.033 1973.29,708.208C1973.4,708.258 1973.56,708.328 1973.76,708.424C1973.53,708.182 1973.35,707.964 1973.2,707.767C1972.82,707.256 1972.68,706.859 1972.66,706.568C1972.6,705.872 1973.06,705.577 1973.34,705.49C1973.97,705.288 1974.48,705.342 1975.12,705.57C1975.92,705.859 1976.97,706.461 1978.98,707.098C1979.2,707.17 1979.33,707.413 1979.26,707.641C1979.19,707.869 1978.94,707.995 1978.71,707.923C1977.02,707.385 1976,706.872 1975.23,706.546C1974.59,706.273 1974.17,706.135 1973.6,706.315C1973.52,706.34 1973.48,706.459 1973.58,706.713C1973.82,707.326 1974.65,708.281 1976.75,709.802C1976.92,709.932 1976.98,710.177 1976.87,710.369C1976.75,710.561 1976.52,710.638 1976.31,710.547C1974.19,709.598 1973.35,709.176 1972.95,709.006C1972.82,708.952 1972.79,708.929 1972.73,708.941Z" style="fill:rgb(243,234,179);"/>
            <path d="M1976.49,703.549C1976.45,703.478 1976.41,703.394 1976.37,703.297C1976.14,703.055 1975.97,702.829 1975.84,702.6C1975.53,702.068 1975.42,701.509 1975.26,700.659C1975.22,700.447 1975.35,700.239 1975.55,700.171C1975.76,700.103 1975.98,700.195 1976.08,700.388C1976.58,701.392 1976.85,702.155 1977.05,702.673C1977.07,702.725 1977.09,702.774 1977.11,702.821C1977.2,702.91 1977.3,703.001 1977.41,703.096C1978.28,702.558 1980.2,702.119 1980.59,702.04C1980.66,702.027 1980.7,702.022 1980.71,702.021L1980.83,702.028C1981.07,702.075 1981.22,702.303 1981.17,702.538C1981.13,702.722 1980.98,702.856 1980.81,702.881L1980.76,702.889C1980.44,702.953 1979.01,703.265 1978.14,703.68C1978.59,704.011 1979.15,704.397 1979.85,704.872C1980.03,704.994 1980.09,705.231 1979.99,705.425C1979.89,705.62 1979.67,705.711 1979.46,705.638C1974.81,703.998 1974.99,703.53 1973.22,703.108C1972.99,703.052 1972.84,702.819 1972.9,702.586C1972.95,702.354 1973.19,702.21 1973.42,702.265C1974.64,702.556 1974.95,702.864 1976.49,703.549Z" style="fill:rgb(243,234,179);"/>
            <path d="M1975.28,696.05L1975.38,696.102C1975.38,696.104 1975.39,696.106 1975.39,696.108C1975.39,696.099 1975.39,696.09 1975.39,696.081C1975.32,695.561 1975.48,695.009 1975.98,694.446C1977.15,693.132 1979.15,693.629 1980.16,695.071C1980.59,695.684 1980.42,696.298 1980.12,696.818C1980.03,696.977 1979.92,697.125 1979.84,697.257C1979.8,697.313 1979.76,697.391 1979.74,697.429C1979.77,697.619 1979.66,697.81 1979.47,697.885C1979.25,697.973 1979,697.865 1978.91,697.643L1978.87,697.457L1978.88,697.295C1978.9,697.157 1978.99,696.983 1979.11,696.791C1979.22,696.626 1979.35,696.435 1979.45,696.227C1979.55,696.023 1979.62,695.796 1979.46,695.567C1978.77,694.585 1977.42,694.129 1976.62,695.023C1976.4,695.278 1976.27,695.521 1976.24,695.762C1976.21,696.03 1976.31,696.285 1976.48,696.53C1976.54,696.618 1976.61,696.704 1976.68,696.789C1978.12,697.534 1980.39,698.686 1982.3,699.543C1982.5,699.637 1982.6,699.874 1982.53,700.088C1982.45,700.301 1982.22,700.418 1982,700.354C1981.63,700.247 1978.63,699.372 1976.84,698.073C1976.59,697.89 1976.36,697.697 1976.16,697.496C1975.59,697.196 1975.16,696.968 1974.97,696.865C1974.88,696.82 1974.84,696.793 1974.83,696.787L1974.71,696.669L1974.66,696.588L1974.63,696.482L1974.63,696.343L1974.67,696.235L1974.75,696.117L1974.85,696.044C1974.99,695.965 1975.15,695.973 1975.28,696.05ZM1975.49,696.491C1975.49,696.49 1975.49,696.49 1975.49,696.489C1975.48,696.511 1975.48,696.532 1975.47,696.553C1975.48,696.535 1975.48,696.514 1975.49,696.491Z" style="fill:rgb(243,234,179);"/>
            <path d="M1982.53,691.323C1982.42,691.17 1982.3,691.008 1982.18,690.837C1982.06,690.678 1982.07,690.462 1982.19,690.31C1982.32,690.158 1982.53,690.108 1982.71,690.187C1987,692.097 1987.1,692.124 1987.52,692.17C1987.76,692.196 1987.93,692.411 1987.9,692.648C1987.87,692.886 1987.66,693.057 1987.42,693.031C1987.04,692.988 1986.9,692.985 1983.86,691.647C1984.65,692.661 1985.1,693.16 1985.33,693.512C1985.61,693.958 1985.63,694.237 1985.49,694.736C1985.38,695.119 1985.18,695.334 1984.97,695.461C1984.52,695.728 1983.94,695.55 1983.78,695.5C1981.7,694.876 1980.92,693.305 1980.98,692.351C1981.01,691.919 1981.19,691.585 1981.46,691.399C1981.72,691.222 1982.08,691.154 1982.53,691.323ZM1982.87,691.778C1982.87,691.826 1982.86,691.876 1982.84,691.923C1982.75,692.143 1982.49,692.245 1982.27,692.15C1982.13,692.092 1982.03,692.062 1981.95,692.114C1981.87,692.168 1981.85,692.278 1981.85,692.402C1981.8,693.115 1982.47,694.204 1984.03,694.671C1984.07,694.685 1984.18,694.726 1984.31,694.742C1984.38,694.751 1984.46,694.759 1984.53,694.717C1984.59,694.681 1984.62,694.608 1984.66,694.499C1984.69,694.387 1984.71,694.301 1984.7,694.217C1984.68,694.075 1984.59,693.951 1984.43,693.742C1984.13,693.354 1983.64,692.786 1982.87,691.778Z" style="fill:rgb(243,234,179);"/>
            <path d="M1985.11,686.623C1984.58,686.136 1983.95,685.534 1983.21,684.781C1983.06,684.626 1983.05,684.383 1983.18,684.212C1983.31,684.041 1983.55,683.995 1983.74,684.104C1986.46,685.694 1986.41,685.728 1989.24,687.068C1989.73,687.297 1989.7,687.284 1990.09,687.62C1990.27,687.775 1990.3,688.049 1990.14,688.23C1989.98,688.412 1989.71,688.433 1989.53,688.277C1989.23,688.018 1989.25,688.028 1988.87,687.851C1987.73,687.307 1987.05,686.976 1986.46,686.667C1987.58,687.634 1988.17,688.013 1988.49,688.383C1988.63,688.547 1988.85,688.951 1988.93,689.355C1988.99,689.695 1988.94,690.029 1988.75,690.276C1988.56,690.523 1988.21,690.727 1987.56,690.673C1985.96,690.54 1984.89,689.723 1984.38,688.913C1984.14,688.527 1984.02,688.136 1984.02,687.805C1984.01,687.325 1984.21,686.949 1984.59,686.753C1984.73,686.681 1984.9,686.632 1985.11,686.623ZM1986.14,687.526C1986.03,687.625 1985.87,687.659 1985.71,687.602C1985.49,687.518 1985.3,687.48 1985.15,687.487C1985.07,687.49 1985,687.505 1984.95,687.547C1984.89,687.601 1984.88,687.689 1984.88,687.785C1984.89,688.062 1985.04,688.395 1985.31,688.712C1985.76,689.25 1986.55,689.719 1987.63,689.81C1987.75,689.82 1987.86,689.818 1987.94,689.8C1988,689.789 1988.04,689.778 1988.06,689.748C1988.11,689.685 1988.09,689.596 1988.07,689.51C1988.03,689.275 1987.91,689.038 1987.83,688.942C1987.55,688.614 1987.05,688.28 1986.14,687.526Z" style="fill:rgb(243,234,179);"/>
            <g transform="matrix(1,0,0,1,-2.79088,4.44319)">
                <path d="M1971.64,704.154C1971.69,704.135 1971.73,704.123 1971.78,704.119L1971.81,704.108L1971.98,704.112L1972.11,704.16L1972.22,704.253L1972.29,704.343L1972.33,704.466L1972.34,704.614L1972.31,704.737L1972.22,704.886L1972.09,704.984L1971.97,705.031L1971.83,705.043L1971.66,705.012L1971.51,704.94L1971.41,704.853L1971.35,704.752L1971.31,704.579L1971.33,704.425L1971.41,704.291L1971.54,704.185L1971.64,704.154ZM1972.25,704.533C1972.26,704.604 1972.24,704.676 1972.21,704.744C1972.25,704.658 1972.26,704.587 1972.25,704.533ZM1971.74,704.134C1971.74,704.135 1971.73,704.136 1971.72,704.138L1971.73,704.138L1971.74,704.134ZM1971.97,704.961C1972,704.955 1972.03,704.945 1972.06,704.929L1971.97,704.961Z" style="fill:rgb(255,0,0);"/>
            </g>
        </g>
    </g></svg>