<svg width="100%" height="100%" viewBox="0 0 3440 1080" version="1.1" xmlns="http://www.w3.org/2000/svg" xmlns:xlink="http://www.w3.org/1999/xlink" xml:space="preserve" xmlns:serif="http://www.serif.com/" style="fill-rule:evenodd;clip-rule:evenodd;stroke-linecap:round;stroke-linejoin:round;stroke-miterlimit:1.5;"><g xmlns="http://www.w3.org/2000/svg" id="Artboard21" serif:id="Artboard2">
        <g id="neutral-duck" serif:id="neutral duck">
            <path d="M1842.09,624.634C1692.08,571.052 1569.29,593.181 1651.61,500.026C1721.76,420.65 1794.38,427.433 1777.08,265.949C1753.54,46.225 1559.28,111.452 1546.75,36.242C1546.62,35.458 1543.73,-2.038 1531.14,23.133C1521.11,43.201 1521.56,42.951 1518.48,65.319C1513.91,61.275 1480.88,31.996 1442.27,64.812C1475.14,69.353 1489.9,79.374 1493.47,81.798C1473.04,81.803 1434.17,70.074 1408.83,122.885C1468.88,96.973 1476.31,109.913 1471.84,112.395C1454.74,121.899 1415.23,123.524 1380.71,207.898C1322.89,349.231 1425.7,471.261 1506.17,465.071C1508.77,464.871 1514.11,464.46 1537.38,474.434C1569.18,488.06 1537.84,495.87 1478.08,570.561C1396.46,672.597 1439.74,805.591 1562.62,823.145C1624.43,831.976 1638,838.768 1719.68,833.058C1821.52,825.938 1842.94,833.264 1938.12,702.269C1945.82,691.673 2000.67,592.023 1952.48,634.854C1918.02,665.485 1983.3,551.164 1940.62,570.561C1917.91,580.885 1901.03,605.657 1890.5,617.734C1887.49,598.147 1895.97,598.099 1890.79,578.492C1863.08,616.512 1853.09,623.874 1842.62,627.364" style="fill:rgb(255,214,0);stroke:black;stroke-width:10px;"/>
            <path d="M1324.08,380.767C1323.71,383.531 1270.43,429.924 1309.84,443.834C1343.54,455.727 1366.28,421.61 1369.17,417.284C1383.47,395.828 1390.76,404.998 1413.09,387.456C1415.91,385.24 1446.27,361.385 1420.3,343.206C1407.64,334.342 1406.95,339.79 1372.68,315.612C1369.71,313.52 1372.9,310.873 1350.98,305.027C1349.13,304.534 1333.96,303.476 1317.7,295.35C1297.14,285.069 1234.89,241.766 1230.19,290.106C1227.67,315.967 1258.04,349.265 1304.92,365.167C1317.16,369.318 1317.08,368.9 1329.59,371.836C1328.69,373.546 1327.79,375.257 1326.88,376.967" style="fill:rgb(254,159,56);stroke:black;stroke-width:10px;"/>
            <path d="M1514.57,322.237C1514.58,322.189 1523.08,306.508 1542.13,307.777C1543.24,307.851 1550.46,308.333 1556.01,308.888C1558.19,309.106 1559.14,308.853 1568.97,284.819C1580.69,256.164 1572.7,206.2 1532.5,202.431C1525.38,201.763 1493.8,196.053 1479.18,247.235C1474.17,264.754 1481.5,277.936 1501.39,307.777C1501.98,308.658 1502.51,309.443 1510.47,317.405" style="fill:none;stroke:black;stroke-width:10px;"/>
            <path d="M1537.49,305.72C1549.31,305.038 1558.15,307.13 1569.53,281.672C1576.25,266.628 1575.95,229.382 1555.09,222.426C1498.1,203.431 1483.85,300.503 1527.5,307.777C1529.74,308.15 1529.57,307.768 1538.42,305.555" style="stroke:black;stroke-width:10px;"/>
            <path d="M1439.6,718.004C1427.52,718.56 1238.53,749.049 1222.68,777.087C1204.77,808.777 1201.86,822.924 1237.56,828.334C1298.31,837.538 1310.13,835.447 1305.28,864.187C1263.75,884.953 1261.31,866.864 1240.67,915.562C1235.71,940.071 1254.9,936.494 1285.58,939.045C1326.04,942.41 1481.84,914.748 1440.07,963.889C1435.4,969.383 1410.64,979.107 1405.36,1000.26C1400.45,1019.88 1469.18,1013.83 1591.33,1046.55C1636.93,1058.76 1925.62,1077.77 1856.66,1001.91C1838.53,981.97 2053.15,984.743 2012.88,950.664C1995.46,935.925 1969.26,923.238 1994.69,915.122C2042.98,899.711 2136.84,896.185 2150.09,856.437C2154,844.69 2088.37,834.839 2140.17,815.109C2168.96,804.139 2264.31,780.146 2207.94,766.342C2134.34,748.316 2132.26,760.953 2031.06,729.973C1940.36,702.207 1935.55,709.295 1931.1,715.781C1911.18,744.824 1864.88,808.811 1819.86,819.892C1637.57,864.754 1449.23,802.604 1444.2,735.759C1444.08,734.105 1442.67,723.479 1435.94,716.748" style="fill:rgb(41,121,255);stroke:black;stroke-width:10px;"/>
            <path d="M1677.48,762.923C1599.91,745.857 1565.6,653.675 1632.56,621.435C1683.35,596.981 1724.07,622.538 1764.92,636.579C1804.62,650.226 1843.02,643.768 1853.82,643.205C1851.02,648.818 1842.59,669.869 1787.63,682.313C1810.87,685.731 1810.36,689.77 1833.67,688.371C1790.62,738.593 1758.33,730.26 1743.63,729.208C1759.19,743.508 1758.09,744.427 1774.05,758.05C1723.42,756.7 1721.57,761.67 1676.48,738.346C1658.99,729.299 1672.56,751.434 1673.14,752.278C1677.08,757.928 1675.36,758.595 1679.51,764.393" style="fill:rgb(254,159,56);stroke:black;stroke-width:10px;"/>
            <path d="M1353.02,376.418C1345.87,372.236 1298.71,421.681 1324.09,427.651C1344.84,432.533 1338.42,417.021 1391.12,368.938C1374.03,373.553 1366.57,373.031 1353.02,376.418Z" style="fill:rgb(240,58,58);"/>
            <path d="M1352.81,370.908C1365.64,367.825 1373.14,368.2 1389.71,363.723C1392.12,363.073 1394.65,364.154 1395.85,366.34C1397.05,368.525 1396.6,371.247 1394.76,372.927C1363.3,401.635 1353.02,418.688 1345.37,426.678C1342,430.191 1338.93,432.246 1335.43,433.234C1332.04,434.192 1328.13,434.152 1322.85,432.909C1318.11,431.794 1315.13,429.501 1313.34,426.7C1311.65,424.052 1310.97,420.807 1311.36,417.118C1311.8,412.98 1313.68,408.108 1316.58,403.121C1324.17,390.059 1338.73,375.972 1346.57,372.196C1348.41,371.308 1350.05,370.878 1351.35,370.787L1352.81,370.908ZM1351.89,381.7C1351.17,382.051 1349.34,382.975 1347.98,383.955C1342.73,387.723 1336.02,394.399 1330.67,401.484C1326.49,407.009 1323.06,412.737 1322.21,417.487C1321.99,418.766 1321.88,419.923 1322.41,420.828C1322.9,421.669 1323.93,422.066 1325.33,422.394C1328.34,423.104 1330.56,423.385 1332.5,422.838C1335.66,421.947 1337.85,419.135 1341.44,414.74C1347.62,407.166 1356.44,395.235 1373.62,378.13C1367.31,379.121 1361.72,379.809 1354.33,381.658C1353.52,381.859 1352.69,381.87 1351.89,381.7Z"/>
            <path d="M1529.55,159.937C1526.97,161.426 1523.66,160.539 1522.17,157.957C1520.68,155.375 1521.57,152.07 1524.15,150.58C1526.48,149.238 1538.87,142.338 1551.6,146.5C1559.85,149.201 1568.67,156.46 1574.47,173.855C1575.41,176.683 1573.88,179.744 1571.06,180.687C1568.23,181.629 1565.17,180.099 1564.22,177.271C1560,164.588 1554.26,158.737 1548.24,156.767C1539.54,153.924 1531.14,159.02 1529.55,159.937Z"/>
            <path d="M1534.7,234.773C1533.63,235.135 1523.98,238.814 1522.28,254.112C1521.95,257.075 1519.28,259.213 1516.32,258.884C1513.35,258.554 1511.22,255.882 1511.55,252.919C1514.09,230 1527.04,225.086 1532.49,224.151C1533.91,223.907 1535.04,223.915 1535.72,223.985L1537.89,224.579C1540.57,225.884 1541.68,229.12 1540.38,231.8C1539.32,233.981 1536.98,235.126 1534.7,234.773Z" style="fill:white;"/>
        </g>
    </g></svg>