<?xml version="1.0" encoding="UTF-8" standalone="no"?><!DOCTYPE svg PUBLIC "-//W3C//DTD SVG 1.1//EN" "http://www.w3.org/Graphics/SVG/1.1/DTD/svg11.dtd"><svg width="100%" height="100%" viewBox="0 0 3386 1415" version="1.1" xmlns="http://www.w3.org/2000/svg" xmlns:xlink="http://www.w3.org/1999/xlink" xml:space="preserve" xmlns:serif="http://www.serif.com/" style="fill-rule:evenodd;clip-rule:evenodd;stroke-linecap:round;stroke-linejoin:round;stroke-miterlimit:1.5;"><clipPath id="_clip1"><rect x="5.331" y="5.331" width="3375" height="1423.23"/></clipPath><g clip-path="url(#_clip1)"><path d="M5.701,746.897c134.845,-9.058 333.211,-38.188 456.156,-115.61c129.951,-81.838 82.279,-171.273 163.053,-483.489c14.521,-56.123 35.454,-116.063 53.214,-60.408c54.807,171.708 112.153,837.066 423.736,584.461c11.929,-9.672 10.318,-10.542 75.142,-186.909c14.917,-40.586 22.327,-138.597 35.492,-118.19c43.197,66.947 13.412,144.68 204.739,195.23c324.468,85.723 471.051,-191.659 597.157,-438.623c7.687,-15.059 70.507,-126.773 96.386,-117.479c27.901,10.021 -53.292,552.666 173.952,582.795c281.063,37.264 403.112,-325.292 685.58,-477.763c-89.991,281.088 -180.517,443.521 -16.517,601.582c113.225,109.128 227.066,68.225 321.016,132.888c73.58,50.647 25.49,22.188 105.524,61.65c-137.075,-44.029 -445.253,-12.641 -557.218,3.082c-184.38,25.894 -239.155,244.171 -392.468,458.723c6.487,-291.378 -22.176,-333.655 -38.038,-353.188c-29.282,-36.062 -134.586,-188.062 -373.557,-124.697c-170.521,45.217 -430.967,405.604 -423.595,376.203c7.492,-29.886 -29.568,-382 -231.786,-398.786c-183.729,-15.248 -452.349,690.863 -459.983,512.056c-15.629,-366.178 -54.269,-337.854 -389.175,-483.144c-71.516,-31.028 -523.921,-180.834 -508.81,-150.384Z" style="fill:#ffd600;stroke:#000;stroke-width:10.66px;"/></g><g id="shadow"><path d="M532.633,646.593c33.903,-25.177 -60.102,27.96 -0,-0c38.55,-17.936 125.477,-194.334 123.887,-511.977c115.18,323.669 21.249,366.435 148.932,511.037c183.174,207.449 398.521,112.234 411.998,-182.261c95.126,137.734 154.069,171.056 357.149,151.816c301.208,-28.538 377.417,-372.647 505.963,-524.086c27.124,240.949 -103.2,369.058 95.886,561.057c15.885,15.317 158.893,95.321 342.75,-43.493c101.528,-76.655 78.329,-113.748 381.886,-402.955c-145.088,262.682 -94.838,283.723 -20.776,500.812c39.506,115.804 350.197,128.954 363.15,156.573c1.663,3.546 -322.671,-49.493 -489.642,2.174c-67.552,20.907 -97.339,20.18 -272.726,344.467c-7.37,-83.272 -8.03,-412.674 -378.088,-390.131c-198.311,12.077 -305.387,164.518 -486.876,371.382c-22.83,-117.141 -13.02,-397.184 -316.95,-353.985c-205.141,29.155 -314.191,497.344 -352.642,476.853c-72.667,-38.728 195.667,-319.325 -532.105,-493.471c-96.613,-23.117 -369.712,-81.825 -178.184,-72.543c69.894,3.385 240.764,-82.87 296.388,-101.269Z" style="fill:#2979ff;"/><path d="M510.079,649.29c0.195,-0.15 0.402,-0.303 0.619,-0.46c2.055,-1.479 5.61,-3.657 9.512,-5.862c6.234,-3.523 13.356,-7.096 16.653,-8.162c0.624,-0.2 1.166,-0.338 1.608,-0.417l1.509,-0.129l0.229,0.035c1.346,-1.348 2.729,-2.846 4.153,-4.49c8.453,-9.777 17.888,-24.508 27.581,-44.063c38.469,-77.606 80.373,-229.945 79.266,-451.099c-0.011,-2.606 1.841,-4.843 4.389,-5.299c2.549,-0.453 5.05,1.01 5.92,3.467c57.818,162.474 63.163,254.442 70.064,323.941c6.764,68.108 15.03,114.212 77.838,185.343c89.609,101.482 186.811,129.69 263.532,95.758c77.02,-34.066 132.574,-130.083 139.191,-274.704c0.107,-2.292 1.648,-4.262 3.836,-4.899c2.183,-0.633 4.529,0.204 5.831,2.088c46.856,67.84 84.64,110.134 135.878,132.933c51.379,22.861 116.105,26.112 216.413,16.61c148.825,-14.102 241.915,-106.38 313.826,-213.622c72.893,-108.707 124.22,-232.767 188.596,-308.616c1.376,-1.616 3.57,-2.261 5.595,-1.635c2.022,0.621 3.482,2.394 3.722,4.513c10.903,96.858 -3.452,175.577 -11.869,247.514c-12.382,105.834 -11.589,196.728 106.15,310.276c15.576,15.022 155.626,92.195 335.893,-43.91c101.415,-76.569 78.197,-113.67 381.423,-402.558c1.903,-1.813 4.835,-1.958 6.908,-0.334c2.069,1.619 2.655,4.517 1.379,6.825c-57.541,104.182 -84.234,169.975 -90.685,225.262c-9.674,82.945 26.224,142.038 70.292,271.209c9.092,26.655 33.398,47.405 64.908,64.271c48.892,26.167 115.113,42.695 172.293,55.115c45.079,9.793 84.618,17.062 106.077,24.335c6.023,2.04 10.718,4.128 13.897,6.223c2.947,1.943 4.806,4.058 5.754,6.082l0.406,1.227l0.088,1.573l-0.39,1.596l-0.727,1.246l-0.871,0.888l-1.043,0.665l-1.922,0.55c-1.018,0.122 -4.345,-0.047 -9.689,-0.609c-52.6,-5.52 -329.122,-43.859 -478.735,2.441c-66.951,20.719 -95.805,20.526 -269.625,341.908c-1.118,2.072 -3.453,3.161 -5.743,2.681c-2.291,-0.483 -4.002,-2.418 -4.208,-4.765c-5.098,-57.579 -6.44,-234.497 -132.471,-327.703c-53.894,-39.857 -130.589,-64.228 -240.007,-57.564c-97.911,5.964 -173.256,46.678 -246.569,111.334c-74.099,65.352 -146.081,155.024 -236.648,258.255c-1.339,1.525 -3.419,2.154 -5.37,1.62c-1.948,-0.531 -3.43,-2.135 -3.818,-4.132c-6.849,-35.135 -10.758,-84.927 -21.082,-136.255c-14.178,-70.495 -40.387,-144.111 -104.399,-185.182c-42.674,-27.382 -102.052,-40.148 -185.519,-28.283c-64.34,9.141 -118.746,62.714 -164.615,130.185c-70.045,103.039 -119.834,238.783 -152.262,304.819c-10.013,20.384 -18.722,34.325 -25.674,39.471c-4.85,3.594 -9.35,3.924 -13.319,1.809c-8.715,-4.647 -13.473,-12.101 -15.612,-22.13c-1.878,-8.791 -1.649,-19.755 -0.572,-32.529c3.227,-38.28 14.071,-93.929 -10.995,-155.688c-37.883,-93.351 -157.197,-199.743 -503.665,-282.645c-47.399,-11.342 -137.217,-31.243 -193.944,-47.492c-25.18,-7.214 -43.99,-13.929 -50.427,-18.761c-1.681,-1.266 -2.781,-2.539 -3.422,-3.664l-0.797,-1.95l-0.195,-2.453l0.376,-1.675l0.719,-1.458l1.103,-1.353l1.792,-1.364c1.929,-1.148 5.437,-2.245 10.811,-2.909c10.272,-1.266 28.677,-1.404 57.28,-0.02c27.474,1.333 70.783,-11.605 116.411,-28.558c57.619,-21.41 118.809,-49.37 157.168,-64.667Zm24.778,2.162c-9.73,4.529 -15.539,6.974 -18.545,8.004c-2.394,0.822 -3.891,0.897 -4.541,0.838l-0.291,-0.067c-38.381,15.427 -98.357,42.766 -154.895,63.771c-47.233,17.55 -92.154,30.587 -120.594,29.207c-22.717,-1.097 -38.82,-1.243 -49.406,-0.586c-2.537,0.157 -4.717,0.346 -6.561,0.574c2.825,1.435 6.454,3.133 10.198,4.509c46.433,17.078 167.62,43.663 225.435,57.497c514.567,123.129 534.938,300.506 526.739,408.329c-2.054,27.045 -6.112,49.697 -4.323,65.97c0.989,9.014 3.807,15.843 10.944,19.649c0.335,0.177 0.656,-0.11 1.051,-0.319c1.04,-0.558 2.106,-1.482 3.253,-2.673c5.746,-5.956 12.404,-17.703 20.197,-33.578c32.572,-66.323 82.667,-202.626 153.022,-306.12c47.734,-70.215 104.937,-125.22 171.891,-134.734c86.735,-12.329 148.367,1.4 192.712,29.855c66.519,42.68 94.366,118.827 109.101,192.082c9.313,46.3 13.411,91.354 19.15,125.53c87.539,-100.149 157.964,-187.092 230.363,-250.947c75.175,-66.299 152.524,-107.846 252.924,-113.96c112.616,-6.86 191.465,18.596 246.934,59.616c117.979,87.254 130.18,245.746 135.392,317.482c169.394,-311.341 200.206,-310.456 267.253,-331.206c135.163,-41.827 372.99,-15.494 459.323,-5.536c-22.344,-5.909 -55.007,-12.104 -91.29,-19.983c-58.106,-12.624 -125.355,-29.537 -175.037,-56.129c-34.202,-18.305 -60.102,-41.315 -69.972,-70.243c-44.806,-131.34 -80.634,-191.601 -70.794,-275.934c5.917,-50.723 28.356,-110.225 75.648,-199.162c-278.1,268.044 -258.943,305.173 -357.754,379.779c-187.452,141.531 -333.411,58.696 -349.606,43.077c-121.166,-116.85 -122.099,-210.351 -109.36,-319.263c7.967,-68.065 21.404,-142.255 13.157,-232.402c-60.471,76.187 -110.248,194.078 -179.847,297.872c-73.631,109.804 -169.247,203.848 -321.634,218.284c-102.772,9.738 -169.055,5.948 -221.699,-17.475c-49.553,-22.047 -87.178,-61.499 -131.537,-124.072c-10.055,141.276 -67.578,234.58 -144.635,268.666c-80.114,35.434 -182.17,7.524 -275.736,-98.443c-64.874,-73.47 -73.487,-121.049 -80.472,-191.393c-6.422,-64.633 -11.464,-148.856 -59.313,-291.912c-2.784,206.651 -43.212,349.892 -80.258,424.617c-17.368,35.036 -34.467,55.291 -46.587,60.929Z"/></g><g><path d="M436.776,689.442c-15.384,-7.57 -2.128,-43.736 -1.027,-47.514c5.697,-19.522 2.798,-34.018 -25.744,-46.344c-3.336,-1.438 -71.707,-21.788 -70.241,25.441c1.43,46.116 20.996,82.042 5.75,131.975c-5.463,17.895 -10.527,93.048 2.999,107.547c24.863,26.651 60.1,33.244 87.736,11.584c13.596,-10.653 37.064,-11.844 39.744,-67.247c1.062,-21.916 3.661,-58.074 23.996,-42.312c12.835,9.947 -15.615,58.831 9.248,86.387c20.009,22.177 21.938,19.801 31.498,24.178c6.958,3.19 10.693,12.705 49.992,4.788c2.358,-0.474 19.991,0.339 44.493,-26.95c15.143,-16.864 -5.464,-43.75 -12.499,-70.019c-10.697,-39.94 -18.61,-52.016 -7.747,-80.09c12.226,-31.61 10.647,-101.129 7.499,-105.785c-11.373,-16.804 -73.488,-10.353 -76.49,29.722c-2.128,28.392 -2.716,69.766 -14.942,66.27" style="fill:#f03a3a;"/><path d="M617.785,597.689c-1.313,-1.67 -3.463,-2.872 -6.037,-3.817c-5.314,-1.948 -12.346,-2.544 -19.722,-1.806c-18.266,1.838 -39.153,11.852 -40.746,33.137c-1.526,20.353 -2.412,47.196 -7.018,60.258c-3.176,8.994 -8.632,12.486 -14.669,10.76c-2.822,-0.807 -4.462,-3.768 -3.661,-6.608c0.768,-2.736 3.523,-4.37 6.245,-3.767c0.262,-0.332 0.808,-1.045 1.102,-1.631c1.016,-2.022 1.809,-4.741 2.503,-7.927c2.971,-13.689 3.647,-35.095 4.904,-51.888c2.007,-26.807 27.285,-40.668 50.285,-42.983c9.135,-0.917 17.828,-0.018 24.414,2.397c5.155,1.895 9.11,4.76 11.475,8.252l0.765,1.47c0.184,0.468 0.379,1.067 0.556,1.795c0.449,1.866 0.874,4.998 1.189,9.094c1.665,21.713 0.574,72.473 -9.45,98.382c-10.417,26.925 -2.33,38.455 7.928,76.754c4.235,15.809 13.352,31.842 16.701,45.788c2.677,11.145 1.888,21.109 -5.392,29.215c-26.074,29.041 -44.879,28.103 -47.389,28.609c-20.912,4.214 -32.373,3.6 -39.522,1.698c-7.127,-1.898 -10.016,-5.169 -13.709,-6.86c-10.077,-4.617 -12.138,-2.077 -33.23,-25.452c-8.342,-9.247 -11.447,-20.596 -11.911,-32.319c-0.432,-10.842 1.42,-21.991 2.988,-31.756c0.96,-5.958 1.817,-11.352 1.799,-15.73c-0.007,-1.406 -0.103,-2.683 -0.365,-3.803c-0.205,-0.885 -0.449,-1.659 -1.065,-2.137c-2.493,-1.934 -4.38,-3.011 -6.083,-2.722c-0.84,0.143 -1.463,0.76 -2.061,1.516c-1.154,1.452 -2.047,3.436 -2.819,5.719c-3.186,9.401 -3.983,23.322 -4.493,33.818c-1.136,23.511 -5.977,37.774 -12.091,47.204c-5.722,8.83 -12.619,13.6 -19.202,17.485c-3.763,2.222 -7.403,4.103 -10.494,6.521c-29.866,23.408 -67.996,16.661 -94.867,-12.144c-4.564,-4.891 -7.708,-15.783 -9.061,-29.372c-2.878,-28.927 0.931,-70.562 4.855,-83.412c7.354,-24.086 6.26,-44.796 3.204,-65.042c-3.194,-21.196 -8.462,-41.91 -9.185,-65.196c-0.347,-11.159 2.797,-19.069 7.779,-24.659c4.95,-5.555 11.851,-8.866 19.559,-10.514c21.032,-4.485 48.165,3.728 50.303,4.652c15.898,6.864 24.428,14.624 28.418,23.097c4.107,8.723 3.598,18.477 0.329,29.672c-0.633,2.169 -5.512,15.48 -6.086,27.357c-0.166,3.421 0.011,6.707 0.931,9.447c0.637,1.909 1.647,3.521 3.417,4.392c2.634,1.295 3.728,4.502 2.443,7.157c-1.285,2.654 -4.468,3.756 -7.103,2.461c-6.238,-3.071 -9.411,-9.376 -10.169,-17.174c-1.388,-14.246 5.559,-33.861 6.377,-36.658c2.429,-8.327 3.318,-15.58 0.266,-22.066c-3.173,-6.739 -10.364,-12.387 -23.008,-17.849c-1.565,-0.674 -18.387,-5.698 -34.635,-5.102c-8.898,0.328 -17.729,2.205 -23.139,8.277c-3.449,3.871 -5.304,9.447 -5.067,17.178c0.709,22.833 5.938,43.137 9.072,63.919c3.278,21.73 4.341,43.95 -3.555,69.797c-3.725,12.202 -7.17,51.735 -4.437,79.199c0.677,6.778 1.718,12.797 3.286,17.399c0.832,2.433 1.742,4.421 2.946,5.709c22.855,24.502 55.2,30.938 80.605,11.027c3.438,-2.693 7.46,-4.838 11.649,-7.31c5.346,-3.154 11.029,-6.932 15.678,-14.103c5.41,-8.348 9.365,-21.056 10.374,-41.87c0.677,-13.953 2.217,-33.293 7.779,-42.962c2.656,-4.616 6.214,-7.406 10.435,-8.123c3.859,-0.657 8.674,0.41 14.325,4.791c3.109,2.408 4.929,6.179 5.425,11.235c0.524,5.362 -0.482,12.544 -1.781,20.631c-1.466,9.109 -3.268,19.501 -2.865,29.616c0.369,9.236 2.585,18.262 9.16,25.548c18.925,20.977 20.721,18.765 29.764,22.908c3.268,1.494 5.725,4.577 12.031,6.254c6.281,1.673 16.34,1.858 34.724,-1.845c2.206,-0.446 18.663,0.246 41.596,-25.291c6.278,-6.996 4.416,-16.104 0.981,-26.151c-4.174,-12.219 -11.121,-25.634 -14.669,-38.884c-11.136,-41.581 -18.879,-54.203 -7.57,-83.43c8.349,-21.584 9.974,-61.299 9.22,-84.739c-0.248,-7.674 -1.278,-15.212 -1.459,-16.493Z"/></g><g><path d="M531.233,691.382c-20.909,-29.872 -33.71,-67.95 -62.055,-40.227c-13.759,13.458 -14.325,22.728 -25.41,37.739c-2.725,3.69 -1.941,2.594 -5.329,1.852c-0.552,-0.12 2.474,1.001 -1.988,-1.326" style="fill:#f03a3a;"/><path d="M439.879,685.192c10.937,-14.992 11.738,-24.321 25.599,-37.877c8.47,-8.28 15.957,-11.284 22.545,-11.119c6.808,0.168 13.019,3.719 18.797,9.763c9.508,9.943 18.13,27.164 28.755,42.339c1.691,2.415 1.114,5.755 -1.28,7.458c-2.394,1.703 -5.71,1.125 -7.4,-1.29c-10.288,-14.696 -18.519,-31.454 -27.725,-41.082c-3.58,-3.745 -7.19,-6.384 -11.408,-6.49c-4.441,-0.109 -9.178,2.522 -14.884,8.101c-13.501,13.206 -13.973,22.363 -24.848,37.092c-1.39,1.882 -2.242,2.836 -2.859,3.333l-1.255,0.8l-1.701,0.541l-1.328,0.076l-1.404,-0.215c-0.362,-0.095 -0.834,-0.3 -1.574,-0.501l-0.286,-0.004l-1.506,-0.522l-1.28,-0.859l-0.149,-0.204c-0.207,-0.11 -0.435,-0.234 -0.678,-0.358c-2.601,-1.36 -3.621,-4.59 -2.275,-7.213c1.346,-2.624 4.556,-3.651 7.157,-2.295c0.367,0.19 0.693,0.365 0.987,0.526Z"/></g><g><path d="M790.146,586.837c1.565,-0.838 8.795,-3.289 21.595,4.199c35.05,20.507 37.38,73.523 45.615,107.63c19.708,81.642 68.326,80.258 40.57,144.579c-14.375,33.318 -47.74,42.566 -71.516,36.722c-40.484,-9.95 -32.465,-30.832 -29.338,-52.891c3.48,-24.542 -15.062,-37.25 -21.545,-36.954c-22.626,1.039 -4.688,20.222 -19.255,71.6c-2.96,10.435 -21.843,17.781 -26.361,18.245c-50.873,5.23 -60.677,-12.027 -71.745,-59.819c-13.678,-59.059 14.233,-130.659 25.213,-148.044c26.184,-41.46 43.838,-52.894 48.823,-56.123c44.135,-28.587 52.665,-29.904 57.944,-29.144Zm-11.642,104.436c-21.148,47.946 -7.18,69.88 2.521,62.359c12.719,-9.857 14.107,-54.742 -2.521,-62.359Z" style="fill:#f03a3a;"/><path d="M789.371,581.372l0.01,-0c3.679,-1.271 12.099,-2.526 25.026,5.037c18.695,10.935 28.893,30.382 35.284,51.802c6.022,20.176 8.689,42.056 12.824,59.188c9.663,40.026 26.492,59.658 37.422,77.208c11.996,19.254 17.789,36.176 2.861,70.771c-15.604,36.159 -51.843,46.13 -77.645,39.787c-18.185,-4.467 -27.419,-11.306 -32.011,-19.001c-3.63,-6.08 -4.511,-12.88 -4.065,-20.143c0.386,-6.279 1.777,-12.937 2.737,-19.701c2.057,-14.517 -4.833,-24.199 -11.132,-28.577c-1.972,-1.37 -3.718,-2.326 -4.915,-2.273c-2.822,0.129 -4.727,0.354 -5.888,1.46c-0.662,0.627 -0.91,1.544 -1.133,2.64c-0.421,2.044 -0.513,4.552 -0.559,7.552c-0.167,11.638 0.662,29.726 -6.809,56.07c-1.487,5.244 -5.945,10.068 -11.398,13.767c-7.411,5.024 -16.446,8.017 -19.53,8.331c-21.818,2.244 -36.555,0.335 -47.188,-5.691c-15.901,-9.011 -23.17,-27.578 -30.269,-58.235c-14.053,-60.689 14.623,-134.265 25.907,-152.132c26.988,-42.733 45.293,-54.424 50.431,-57.753c27.023,-17.503 40.991,-24.938 48.986,-27.956c5.389,-2.034 8.604,-2.323 11.054,-2.151Zm0.025,10.763c-2.114,-0.303 -4.802,0.093 -11.451,3.14c-8.183,3.749 -21.138,11.131 -42.871,25.209c-4.83,3.129 -21.836,14.31 -47.212,54.492c-10.679,16.907 -37.822,86.527 -24.523,143.955c3.218,13.896 6.288,25.142 10.395,33.922c3.707,7.931 8.225,13.728 14.737,17.417c9.202,5.216 22.02,6.315 40.902,4.374c2.334,-0.239 9.064,-2.761 14.677,-6.565c3.229,-2.19 6.235,-4.723 7.113,-7.827c8.611,-30.361 5.623,-49.316 6.727,-59.837c0.535,-5.109 2.026,-8.73 4.699,-11.274c2.57,-2.44 6.458,-4.077 12.693,-4.363c2.695,-0.125 7.004,1.078 11.43,4.153c8.611,5.983 18.429,19.062 15.618,38.905c-0.917,6.472 -2.284,12.837 -2.652,18.845c-0.308,5.019 0.06,9.764 2.567,13.967c3.59,6.012 11.217,10.628 25.426,14.121c21.747,5.344 52.233,-3.183 65.386,-33.657c12.825,-29.726 8.187,-44.272 -2.117,-60.815c-11.366,-18.252 -28.698,-38.748 -38.746,-80.369c-4.097,-16.971 -6.71,-38.652 -12.676,-58.634c-5.594,-18.745 -14.085,-36.058 -30.443,-45.63c-9.85,-5.762 -15.225,-4.753 -16.429,-4.103c-0.995,0.535 -2.135,0.735 -3.25,0.574Zm-8.693,94.265c8.006,3.667 13.221,14.142 14.804,26.597c1.278,10.068 0.386,21.302 -2.298,30.064c-2.036,6.64 -5.191,11.906 -8.944,14.813c-2.694,2.087 -5.601,2.822 -8.402,2.476c-2.656,-0.324 -5.325,-1.655 -7.62,-4.245c-2.992,-3.379 -5.541,-9.397 -6.022,-18.145c-0.62,-11.267 2.081,-27.664 11.429,-48.859c0.577,-1.306 1.646,-2.323 2.971,-2.83c1.32,-0.506 2.793,-0.46 4.082,0.129Zm-0.159,13.785c-9.022,22.937 -9.288,38.524 -5.832,46.387c0.496,1.124 1.048,2.03 1.703,2.665c0.418,0.403 0.921,0.503 1.374,0.154c2.351,-1.824 3.994,-5.323 5.269,-9.487c2.28,-7.446 2.999,-16.996 1.912,-25.551c-0.577,-4.535 -1.654,-8.791 -3.353,-12.234c-0.337,-0.681 -0.691,-1.327 -1.073,-1.934Z"/></g><g><path d="M1098.38,600.401c-20.54,-29.907 -107.475,-14.556 -152.042,-13.767c-19.131,0.335 -71.342,-3.793 -68.333,46.23c2.783,46.261 81.685,18.166 87.856,38.605c8.417,27.864 -12.785,65.688 -20.012,98.118c-19.375,86.965 -2.471,87.129 11.961,99.345c19.364,16.39 28.927,8.909 47.346,3.935c20.023,-5.408 29.169,-1.505 45.637,-42.298c16.121,-39.929 3.37,-68.834 0.973,-74.261c-11.273,-25.562 -35.025,-65.356 -17.813,-83.854c0.62,-0.667 24.675,-6.722 40.513,-7.132c59.983,-1.548 44.733,-50.935 23.914,-64.921Z" style="fill:#f03a3a;"/><path d="M1102.14,596.516l0.014,0.015c6.703,4.798 12.86,12.765 16.49,21.752c3.898,9.643 4.85,20.385 1.044,29.6c-4.936,11.956 -18.033,22.088 -45.095,22.787c-13.153,0.343 -32.199,4.727 -37.542,6.333c-4.95,6.147 -4.578,14.859 -2.347,24.363c4.132,17.607 15.26,37.693 21.91,52.766c2.531,5.737 16.121,36.272 -0.91,78.456c-8.845,21.913 -16.015,31.635 -23.373,36.794c-7.336,5.141 -15.08,5.754 -25.808,8.651c-6.501,1.756 -11.907,3.818 -17.024,5.052c-5.987,1.441 -11.638,1.837 -17.895,0.004c-5.109,-1.499 -10.689,-4.535 -17.218,-10.061c-6.271,-5.305 -12.807,-8.695 -17.243,-16.686c-6.399,-11.524 -8.626,-33.422 3.519,-87.929c3.64,-16.34 10.782,-34.039 15.972,-51.16c4.816,-15.883 8.073,-31.206 4.139,-44.225c-0.318,-1.063 -1.239,-1.673 -2.354,-2.222c-1.356,-0.668 -2.999,-1.138 -4.851,-1.513c-8.608,-1.745 -21.004,-1.331 -33.244,-2.101c-23.648,-1.492 -46.047,-7.764 -47.626,-34.007c-0.811,-13.472 2.099,-23.411 7.056,-30.793c7.432,-11.06 19.68,-16.522 32.384,-19.001c12.934,-2.526 26.237,-1.97 34.101,-2.109c26.842,-0.474 68.998,-6.19 102.883,-4.217c14.198,0.824 26.998,3.019 36.844,7.3c6.869,2.986 12.372,7.003 16.174,12.151Zm-8.133,6.932c-3.516,-5.116 -9.404,-8.527 -16.719,-10.956c-8.161,-2.712 -18.036,-4.117 -28.779,-4.742c-33.619,-1.955 -75.449,3.761 -102.083,4.232c-7.442,0.132 -20.03,-0.471 -32.27,1.916c-9.953,1.944 -19.782,5.826 -25.606,14.495c-3.877,5.772 -5.885,13.607 -5.251,24.146c0.68,11.277 6.989,17.068 15.536,20.164c10.035,3.639 22.789,3.957 34.395,4.321c10.286,0.324 19.761,0.706 26.269,2.75c6.076,1.909 9.974,5.291 11.436,10.136c3.626,12.002 2.319,25.723 -1.257,40.094c-4.971,19.986 -14.326,41.334 -18.652,60.753c-5.708,25.623 -8.24,43.569 -8.562,56.466c-0.294,11.766 1.208,18.955 3.948,23.896c3.732,6.721 9.532,9.251 14.807,13.714c17.385,14.716 26.018,7.328 42.553,2.865c9.298,-2.512 16.135,-2.647 22.494,-7.104c6.338,-4.445 11.978,-13.161 19.598,-32.041c15.211,-37.678 3.304,-64.949 1.045,-70.072c-6.88,-15.598 -18.267,-36.433 -22.544,-54.65c-3.265,-13.913 -2.316,-26.418 5.707,-35.038l1.328,-1.048l1.76,-0.732c4.663,-1.527 26.368,-6.657 41.161,-7.042c20.936,-0.539 31.742,-6.95 35.559,-16.198c2.762,-6.685 1.753,-14.459 -1.072,-21.455c-2.943,-7.282 -7.914,-13.789 -13.381,-17.464c-0.556,-0.375 -1.037,-0.849 -1.42,-1.406Z"/></g><g><path d="M1245.52,585.139c-106.689,-4.039 -120.629,1.063 -136.788,18.702c-25.929,28.302 -8.502,69.548 35.315,59.216c35.046,-8.267 69.186,4.841 33.509,79.216c-3.378,7.039 -26.81,55.891 -19.077,95.835c11.698,60.407 87.859,45.837 108.261,8.833c16.751,-30.379 16.344,-67.543 14.949,-73.504c-17.137,-73.387 -43.661,-76.923 -26.548,-98.953c11.889,-15.305 42.711,0.396 75.01,-21.299c34.203,-22.976 -18.83,-59.712 -43.82,-65.449c-33.003,-7.577 -33.471,-0.153 -102.331,-4.156c-1.281,-0.075 74.855,0.103 61.52,1.559Z" style="fill:#f03a3a;"/><path d="M1182.38,578.525l0.202,-0.108c0.031,-0.007 0.676,-0.117 1.844,-0.171c-0.039,-0.003 -0.078,-0.007 -0.12,-0.007c0.042,0 0.088,0.004 0.131,0.007c0.386,-0.018 0.832,-0.028 1.328,-0.032c9.138,-0.007 50.313,0.182 59.82,0.935c15.293,-0.489 23.677,-0.821 41.926,3.371c15.986,3.668 42.69,19.301 53.656,36.458c4.192,6.561 6.175,13.383 5.216,19.915c-0.967,6.575 -4.858,13.086 -13.285,18.748c-20.363,13.678 -40.12,13.414 -55.406,14.324c-7.92,0.471 -14.481,0.814 -18.369,5.815c-2.631,3.393 -4.075,6.14 -4.351,8.934c-0.45,4.602 1.951,9.026 5.311,15.512c6.752,13.043 17.856,32.626 26.58,69.987c1.462,6.265 2.131,45.388 -15.48,77.325c-8.827,16.008 -27.196,28.285 -47,32.891c-18.043,4.199 -37.142,2.019 -51.223,-8.802c-9.475,-7.281 -16.787,-18.47 -19.892,-34.492c-8.002,-41.328 16.011,-91.91 19.506,-99.192c8.579,-17.884 13.026,-32.059 14.248,-43.175c1.08,-9.84 -0.372,-17.004 -3.973,-21.917c-3.413,-4.659 -8.693,-7.089 -14.807,-8.08c-6.954,-1.128 -14.942,-0.4 -22.983,1.494c-24.966,5.887 -42.206,-3.517 -49.716,-17.827c-7.499,-14.285 -5.459,-34.132 9.288,-50.229c8.809,-9.615 16.978,-15.891 37.524,-19.137c9.78,-1.545 22.58,-2.376 40.025,-2.547Zm66.997,11.034l-0.598,0.371c-0.386,0.139 -1.25,0.371 -2.687,0.528c-0.255,0.029 -0.514,0.036 -0.769,0.025c-4.128,-0.153 -8.119,-0.296 -11.971,-0.424c-10.658,0.225 -24.668,0.203 -45.116,-0.881c-19.69,0.017 -33.74,0.813 -44.234,2.468c-17.137,2.708 -24.017,7.803 -31.368,15.823c-11.181,12.208 -13.391,27.132 -7.704,37.963c5.676,10.81 19.053,16.861 37.907,12.412c19.817,-4.673 39.196,-2.401 48.759,10.65c3.952,5.394 6.388,12.676 6.391,22.305c0.004,12.911 -4.472,30.496 -15.65,53.8c-3.261,6.8 -26.113,53.918 -18.642,92.485c2.511,12.972 8.236,22.141 15.905,28.034c11.635,8.941 27.483,10.354 42.393,6.882c16.819,-3.913 32.61,-14.063 40.106,-27.66c15.891,-28.819 15.742,-64.021 14.422,-69.676c-10.159,-43.504 -23.702,-62.145 -29.226,-74.814c-2.29,-5.259 -3.331,-9.718 -2.892,-14.185c0.435,-4.47 2.344,-9.055 6.557,-14.478c5.63,-7.249 14.627,-9.222 26.106,-9.907c13.805,-0.821 31.746,-0.193 50.14,-12.547c5.254,-3.529 8.066,-7.307 8.668,-11.41c0.609,-4.145 -0.978,-8.384 -3.64,-12.551c-9.603,-15.03 -33.078,-28.602 -47.081,-31.816c-15.657,-3.596 -23.928,-3.764 -35.776,-3.397Z"/></g><g><path d="M1455.5,588.881c4.613,-0.317 26.913,-2.415 42.467,17.607c25.812,33.236 12.41,69.334 33.014,114.176c17.321,37.696 25.178,65.591 29.848,77.978c22.732,60.276 -52.615,92.092 -90.596,72.124c-31.261,-16.436 -9.174,-34.792 -8.718,-50.037c0.825,-27.378 -12.746,-25.926 -16.376,-27.142c-21.4,-7.189 -18.224,25.822 -18.489,33.001c-1.912,51.998 -63.177,61.306 -88.748,40.45c-38.892,-31.724 -37.267,-91.461 -3.959,-177.513c32.369,-83.629 111.119,-102.324 121.557,-100.644Zm-16.454,102.2c-3.601,2.661 -28.131,58.827 -2.886,63.914c19.531,3.935 26.071,-53.012 2.886,-63.914Z" style="fill:#f03a3a;"/><path d="M1455.58,583.509l0.028,-0c5.998,-0.418 29.781,-1.902 46.547,19.682c13.557,17.453 16.97,35.606 19.545,55.335c2.389,18.305 4.068,38.038 14.109,59.89c17.396,37.864 25.299,65.884 29.99,78.325c14.91,39.533 -8.522,67.996 -38.824,79.623c-19.948,7.652 -42.797,7.766 -59.194,-0.853c-11.047,-5.808 -16.188,-12.084 -18.305,-18.138c-2.213,-6.311 -1.232,-12.68 0.889,-18.916c2.127,-6.243 5.679,-12.265 5.849,-17.888c0.333,-11.11 -1.615,-16.54 -4.653,-19.148c-1.756,-1.505 -3.735,-1.834 -5.155,-2.098c-1.207,-0.224 -2.217,-0.42 -2.939,-0.66c-2.585,-0.87 -4.571,-1.041 -6.104,-0.289c-2.496,1.231 -3.463,4.3 -4.217,7.543c-1.824,7.866 -1.055,17.445 -1.183,20.867c-1.26,34.314 -25.928,51.82 -51.609,55.306c-17.095,2.319 -34.554,-1.731 -45.785,-10.892c-20.639,-16.833 -30.716,-41.018 -31.028,-72.488c-0.297,-30.197 8.502,-67.325 25.458,-111.129c23.401,-60.458 70.291,-88.036 100.004,-98.557c12.708,-4.499 22.526,-5.815 26.577,-5.515Zm-0.91,10.656c-2.811,-0.453 -11.079,1.038 -22.144,4.956c-27.833,9.854 -71.714,35.723 -93.631,92.349c-16.351,42.248 -25.018,78.014 -24.732,107.133c0.277,27.838 8.831,49.387 27.087,64.278c9.227,7.525 23.645,10.507 37.684,8.602c21.021,-2.854 41.384,-17.011 42.414,-45.095c0.17,-4.624 -0.757,-19.212 3.251,-28.495c1.781,-4.124 4.465,-7.342 8.101,-9.133c3.544,-1.745 8.147,-2.259 14.124,-0.254c2.16,0.728 7.166,0.946 11.62,4.767c4.455,3.821 8.877,11.341 8.385,27.621c-0.152,5.144 -2.355,10.645 -4.61,16.268c-2.28,5.676 -4.932,11.52 -2.454,17.353c1.686,3.975 5.672,7.692 12.931,11.506c13.989,7.353 33.481,6.871 50.498,0.342c25.139,-9.647 45.045,-33.025 32.677,-65.819c-4.652,-12.334 -12.46,-40.108 -29.703,-77.633c-10.566,-22.993 -12.485,-43.725 -14.999,-62.99c-2.329,-17.839 -5.123,-34.353 -17.381,-50.133c-13.866,-17.856 -33.807,-15.851 -37.921,-15.569c-0.4,0.028 -0.8,0.01 -1.197,-0.054Zm-13.37,92.067c6.777,3.186 11.632,9.469 14.521,17.318c3.902,10.599 4.196,24.092 1.646,35.013c-1.852,7.923 -5.272,14.491 -9.553,18.159c-3.675,3.15 -7.988,4.488 -12.789,3.521c-12.831,-2.586 -16.822,-14.927 -15.165,-29.775c1.65,-14.774 8.509,-31.792 12.357,-38.87c1.477,-2.719 2.897,-4.317 3.594,-4.831c1.565,-1.156 3.63,-1.362 5.389,-0.535Zm-0.665,12.387c-3.484,7.007 -8.76,20.889 -10.12,33.044c-0.446,4.021 -0.474,7.838 0.273,11.081c0.807,3.518 2.652,6.243 6.419,7.003c1.969,0.396 3.566,-0.688 4.943,-2.315c2.273,-2.683 3.902,-6.722 4.978,-11.32c2.1,-8.994 1.948,-20.115 -1.267,-28.841c-1.243,-3.379 -2.936,-6.408 -5.226,-8.652Z"/></g><g><path d="M1747.25,716.108c76.058,4.788 85.381,96.255 49.457,134.865c-21.294,22.886 -118.381,44.356 -176.332,18.08c-81.384,-36.9 -21.981,-139.517 -13.458,-160.637c18.861,-46.711 -6.593,-70.904 15.529,-105.35c20.445,-31.834 101.47,-25.672 140.447,4.171c21.786,16.686 21.347,86.708 -15.643,108.871Zm-55.345,-81.122c-13.997,-3.136 -13.646,7.043 -14.191,28.217c-1.434,55.623 25.999,17.499 27.182,15.291c8.274,-15.487 10.197,-57.311 -12.991,-43.508Zm4.928,111.936c-3.285,-6.715 -17.431,1.427 -15.041,14.417c6.052,32.926 7.687,45.865 24.237,36.971c21.329,-11.463 6.812,-54.613 -9.196,-51.388Z" style="fill:#f03a3a;"/><path d="M1760.46,712.444c40.081,8.127 59.403,41.271 61.566,75.417c1.579,24.938 -6.143,50.332 -21.439,66.772c-8.962,9.633 -30.55,19.347 -57.293,25.38c-39.174,8.841 -89.368,10.122 -125.093,-6.079c-43.495,-19.718 -49.634,-56.872 -43.498,-92.046c5.824,-33.375 22.975,-64.778 27.299,-75.488c9.029,-22.362 7.354,-39.344 6.164,-54.845c-1.328,-17.325 -2.011,-32.969 9.826,-51.396c8.926,-13.903 28.205,-21.684 51.128,-23.311c32.712,-2.323 72.698,7.527 96.987,26.129c9.663,7.396 15.895,24.057 16.656,43.194c0.924,23.261 -6.03,49.876 -22.303,66.273Zm-15.923,-0.938c20.604,-12.341 28.567,-40.864 27.611,-64.907c-0.613,-15.398 -4.695,-29.148 -12.467,-35.102c-22.48,-17.214 -59.541,-26.123 -89.814,-23.971c-19.074,1.352 -35.531,6.878 -42.96,18.445c-10.286,16.022 -9.305,29.697 -8.151,44.759c1.293,16.883 2.914,35.352 -6.915,59.705c-4.202,10.407 -21.014,40.871 -26.675,73.309c-5.35,30.642 -0.5,63.251 37.393,80.429c33.814,15.334 81.338,13.764 118.413,5.398c24.091,-5.437 43.791,-13.582 51.864,-22.259c13.444,-14.445 19.98,-36.85 18.589,-58.77c-2.071,-32.669 -22.08,-64.421 -64.505,-67.093c-2.323,-0.147 -4.284,-1.806 -4.83,-4.085c-0.548,-2.284 0.447,-4.656 2.447,-5.858Zm-53.521,-82.128l0.007,-0.004c5.661,-2.897 10.246,-2.982 13.773,-1.669c4.139,1.537 7.283,5.169 9.1,10.407c4.064,11.723 1.196,32.594 -4.324,42.919c-0.676,1.27 -8.784,12.593 -16.634,16.197c-5.028,2.308 -9.949,2.065 -13.968,-1.995c-1.792,-1.816 -3.484,-4.638 -4.66,-8.919c-1.384,-5.034 -2.177,-12.512 -1.901,-23.25c0.227,-8.834 0.343,-15.833 1.292,-20.842c1.006,-5.338 3.077,-8.884 6.08,-10.946c2.616,-1.798 6.203,-2.672 11.235,-1.898Zm-0.259,10.835c-2.287,-0.514 -3.888,-0.853 -4.992,-0.093c-1.059,0.724 -1.275,2.223 -1.629,4.103c-0.868,4.592 -0.899,11.017 -1.108,19.119c-0.266,10.221 0.425,17.007 1.88,21.292c0.396,1.177 0.828,2.105 1.352,2.776c0.209,0.26 0.372,0.492 0.627,0.52c0.62,0.065 1.246,-0.239 1.908,-0.567c1.268,-0.631 2.521,-1.577 3.722,-2.619c3.997,-3.478 7.34,-8.105 7.704,-8.787c4.416,-8.259 6.901,-24.934 3.647,-34.313c-0.626,-1.806 -1.324,-3.368 -2.751,-3.9c-1.664,-0.621 -3.725,0.196 -6.508,1.852c-1.157,0.688 -2.538,0.909 -3.852,0.617Zm8.356,101.193c3.615,0.143 7.149,1.691 10.343,4.467c4.9,4.263 9.057,11.67 11.128,19.925c3.562,14.192 0.754,30.35 -12.056,37.236c-6.919,3.717 -12.077,4.042 -15.983,2.355c-2.847,-1.231 -5.304,-3.6 -7.276,-7.403c-3.381,-6.522 -5.534,-18.467 -8.696,-35.673c-2.323,-12.641 7.057,-21.703 14.195,-22.965c2.177,-0.386 4.227,-0.157 5.987,0.581l1.477,0.778l0.881,0.699Zm-6.632,8.577c-0.52,0.182 -1.473,0.549 -2.06,1.002c-2.341,1.809 -4.168,5.216 -3.403,9.38c2.358,12.836 3.998,22.565 6.186,29.051c0.658,1.959 1.342,3.568 2.17,4.788c0.414,0.61 0.811,1.113 1.363,1.348c0.705,0.307 1.533,0.14 2.536,-0.139c1.267,-0.353 2.673,-0.97 4.259,-1.823c4.808,-2.586 7.018,-7.42 7.676,-12.708c0.758,-6.104 -0.513,-12.847 -2.939,-18.416c-1.518,-3.478 -3.469,-6.504 -5.753,-8.487c-1.452,-1.263 -2.985,-2.145 -4.639,-1.809c-2.092,0.421 -4.202,-0.464 -5.396,-2.187Z"/></g><g><path d="M1913.18,587.312c40.371,-1.37 48.618,9.351 61.173,16.307c69.136,38.314 75.701,147.391 75.857,156.671c0.718,41.92 -23.497,82.769 -33.687,93.526c-14.698,15.512 -56.503,21.67 -62.667,21.841c-78.02,2.151 -96.042,-15.908 -108.608,-25.402c-17.042,-12.879 -33.127,-72.131 -28.032,-123.437c0.665,-6.729 3.377,-34.046 27.09,-79.998c28.527,-55.274 47.399,-57.307 68.874,-59.508Zm18.999,63.308c-14.063,3.778 -51.361,82.249 -12.247,123.912c25.447,27.107 51.974,-49.619 37.22,-99.463c-0.704,-2.387 -2.609,-15.409 -10.601,-19.701c-7.524,-4.045 -13.267,-4.955 -14.372,-4.748Z" style="fill:#f03a3a;"/><path d="M1913,581.964c42.17,-1.431 50.803,9.7 63.91,16.964c28.748,15.93 47.198,43.533 58.869,71.653c17.215,41.492 19.647,83.922 19.743,89.616c0.747,43.632 -24.548,86.116 -35.156,97.315c-6.388,6.739 -17.396,12.016 -28.843,15.737c-16.454,5.351 -33.672,7.649 -37.521,7.756c-80.46,2.223 -98.981,-16.675 -111.94,-26.468c-5.648,-4.267 -11.401,-13.019 -16.256,-24.888c-10.516,-25.709 -17.53,-66.53 -13.876,-103.363c0.684,-6.889 3.385,-34.884 27.664,-81.935c17.937,-34.749 32.507,-49.187 45.93,-55.858c9.164,-4.553 17.906,-5.559 27.119,-6.504c0.117,-0.015 0.237,-0.022 0.357,-0.025Zm0.535,10.688c-7.899,0.81 -15.448,1.531 -23.309,5.438c-12.201,6.065 -24.909,19.622 -41.207,51.199c-23.145,44.853 -25.868,71.492 -26.52,78.06c-2.981,30.04 1.477,62.873 9.114,87.044c4.784,15.149 10.569,26.858 16.822,31.581c12.173,9.198 29.696,26.419 105.277,24.332c3.547,-0.097 19.389,-2.312 34.546,-7.243c9.631,-3.132 19.05,-7.271 24.424,-12.94c9.776,-10.321 32.908,-49.533 32.221,-89.741c-0.096,-5.444 -2.464,-46.001 -18.925,-85.673c-10.785,-25.987 -27.618,-51.678 -54.184,-66.402c-11.978,-6.635 -19.835,-16.925 -58.259,-15.655Zm17.679,52.706c1.359,-0.254 8.586,0.313 17.838,5.287c4.189,2.251 7.223,6.222 9.27,10.507c2.503,5.248 3.47,10.856 3.923,12.386c6.458,21.82 5.389,48.585 -0.06,70.194c-3.757,14.884 -9.649,27.328 -16.369,34.392c-4.433,4.663 -9.33,7.164 -14.269,7.386c-5.018,0.221 -10.329,-1.82 -15.473,-7.3c-28.995,-30.882 -19,-80.836 -4.89,-109.417c4.355,-8.819 9.103,-15.608 13.094,-19.34c2.361,-2.208 4.631,-3.493 6.536,-4.003c0.131,-0.035 0.265,-0.068 0.4,-0.092Zm1.76,10.674c-0.829,0.467 -1.711,1.427 -2.766,2.59c-3.024,3.339 -6.348,8.534 -9.514,14.938c-6.377,12.922 -11.989,30.678 -12.714,48.695c-0.705,17.406 3.147,35.113 15.809,48.599c2.631,2.804 5.123,4.22 7.68,3.931c1.954,-0.218 3.792,-1.352 5.594,-2.997c2.362,-2.162 4.553,-5.184 6.582,-8.823c11.182,-20.061 16.865,-57.831 8.42,-86.365c-0.34,-1.142 -0.942,-4.831 -2.436,-8.745c-1.126,-2.943 -2.698,-6.218 -5.577,-7.767c-4.733,-2.543 -9.634,-3.739 -11.078,-4.056Z"/></g><g><path d="M2146.82,590.815c-0.022,-0.011 -39.2,-20.471 -58.79,9.654c-18.462,28.392 14.75,68.456 -4.402,120.562c-12.626,34.35 -26.52,117.087 31.077,147.18c24.743,12.93 27.409,17.746 84.174,17.746c11.369,-0 62.175,-7.082 82.357,-47.757c29.42,-59.284 -8.774,-97.525 -4.404,-179.014c3.445,-64.215 -9.196,-70.572 -50.243,-73.33c-18.09,-1.217 -32.77,25.091 -29.785,48.799c3.86,30.596 36.519,85.481 -0.775,130.219c-17.346,20.803 -42.924,-52.908 -38.329,-83.248c2.033,-13.425 13.625,-53.572 8.544,-70.978c-4.514,-15.473 -5.835,-15.841 -19.424,-19.833Z" style="fill:#f03a3a;"/><path d="M2148.66,585.774l0.011,0.007c7.775,2.294 11.957,3.867 14.967,6.797c3.045,2.964 5.063,7.474 7.711,16.557c2.196,7.521 1.686,18.973 -0.067,30.932c-2.44,16.621 -7.103,34.306 -8.324,42.366c-3.045,20.132 7.92,60.414 20.416,76.005c1.235,1.541 2.467,2.811 3.724,3.703c0.949,0.678 1.813,1.22 2.734,0.978c0.765,-0.203 1.423,-0.828 2.142,-1.688c17.481,-20.97 18.387,-44.36 14.652,-66.055c-4.002,-23.229 -13.144,-44.688 -15.08,-60.047c-1.98,-15.719 3.122,-32.455 11.797,-43.055c6.413,-7.831 14.744,-12.355 23.61,-11.759c22.505,1.513 36.99,4.706 45.611,15.63c8.349,10.578 11.412,29.226 9.582,63.33c-2.157,40.193 6.249,69.715 11.503,96.509c5.549,28.309 7.68,53.711 -7.651,84.61c-21.372,43.065 -75.074,50.714 -87.109,50.714c-58.425,0 -61.152,-5.041 -86.617,-18.344c-24.587,-12.848 -37.064,-34.61 -42.205,-58.535c-7.46,-34.713 0.772,-73.979 8.59,-95.257c11.103,-30.203 3.749,-56.222 0.134,-78.128c-2.733,-16.586 -3.293,-31.049 4.808,-43.507c11.15,-17.15 27.809,-20.054 41.753,-18.517c12.19,1.345 22.115,6.158 23.308,6.754Zm-3.778,10.018c-0.01,-0.004 -9.195,-4.863 -20.688,-6.133c-10.548,-1.163 -23.273,0.767 -31.711,13.743c-4.008,6.161 -5.106,12.983 -4.914,20.418c0.212,8.312 2.007,17.338 3.756,27.085c3.746,20.896 7.259,44.871 -2.705,71.985c-6.125,16.657 -12.562,45.049 -10.48,72.926c2.014,26.947 12.017,53.537 39.022,67.647c24.02,12.547 26.623,17.143 81.727,17.143c10.7,-0 58.61,-6.511 77.606,-44.796c14.085,-28.388 11.829,-51.749 6.731,-77.754c-5.397,-27.521 -13.901,-57.867 -11.685,-99.159c0.836,-15.619 0.722,-27.721 -0.584,-37.129c-1.176,-8.484 -3.261,-14.592 -6.71,-18.962c-3.257,-4.131 -7.729,-6.564 -13.454,-8.213c-6.604,-1.901 -14.73,-2.74 -24.548,-3.4c-5.605,-0.374 -10.651,2.936 -14.705,7.892c-7.025,8.584 -11.061,22.166 -9.454,34.895c1.919,15.238 11.037,36.519 15.006,59.566c4.235,24.585 2.825,51.003 -16.985,74.767c-3.325,3.985 -6.975,5.537 -10.573,5.555c-4.641,0.029 -9.768,-2.893 -14.424,-8.705c-13.866,-17.303 -26.035,-62.002 -22.651,-84.343c1.219,-8.049 5.878,-25.716 8.314,-42.316c1.494,-10.189 2.256,-19.943 0.386,-26.347c-1.866,-6.39 -2.762,-9.797 -4.904,-11.884c-2.135,-2.076 -5.322,-2.679 -10.912,-4.32c-0.156,-0.047 -0.308,-0.1 -0.461,-0.161Z"/></g><g><path d="M2393.84,586.645c19.177,-9.662 41.746,-6.39 62.958,1.794c30.422,11.741 68.75,68.264 72.171,76.598c21.311,51.888 24.629,82.291 25.44,89.709c0.842,7.738 7.453,68.285 -27.508,93.287c-85.795,61.349 -139.473,39.426 -175.11,24.738c-26.088,-10.753 -34.469,-53.601 -34.901,-57.521c-4.076,-36.947 16.574,-85.988 19.52,-92.992c22.097,-52.476 4.932,-84.542 10.353,-97.457c16.51,-39.32 42.846,-32.163 47.077,-38.156Zm28.496,73.739c-4.238,1.749 -13.717,133.524 8.728,121.187c8.908,-4.899 19.803,-3.5 24.551,-32.188c5.535,-33.468 -9.506,-71.57 -16.861,-78.981c-9.878,-9.953 -6.961,-20.553 -16.418,-10.018Z" style="fill:#f03a3a;"/><path d="M2389.78,583.191c0.464,-0.553 1.038,-1.006 1.686,-1.334c20.479,-10.318 44.584,-7.153 67.231,1.587c12.785,4.931 27.005,17.264 39.567,31.003c18.515,20.243 33.496,43.383 35.613,48.542c21.655,52.73 24.987,83.633 25.812,91.171c0.524,4.81 3.172,29.295 -2.592,53.704c-3.997,16.94 -12.049,33.754 -27.122,44.532c-88.277,63.126 -143.527,40.443 -180.194,25.327c-11.554,-4.763 -20.115,-15.063 -26.088,-26.165c-8.558,-15.905 -11.809,-33.23 -12.081,-35.72c-4.189,-37.995 16.878,-88.467 19.909,-95.667c14.96,-35.526 11.245,-61.385 9.51,-77.982c-0.892,-8.516 -1.041,-14.987 0.843,-19.472c12.637,-30.097 30.645,-35.173 41.834,-37.828c2.457,-0.581 5.538,-1.53 6.072,-1.698Zm7.075,7.924l-0.008,0.003l-0.527,0.546c-0.793,0.617 -1.763,1.167 -2.911,1.634c-1.83,0.746 -4.316,1.31 -7.265,2.009c-9.277,2.201 -24.01,6.629 -34.487,31.581c-0.828,1.966 -0.8,4.531 -0.627,7.674c0.224,4.063 0.854,8.89 1.399,14.492c1.71,17.674 2.606,42.676 -11.128,75.295c-2.865,6.804 -23.09,54.414 -19.131,90.308c0.244,2.219 3.236,17.625 10.859,31.799c4.816,8.951 11.458,17.521 20.774,21.363c34.607,14.264 86.712,35.423 170.025,-24.149c12.899,-9.226 19.513,-23.786 22.937,-38.285c5.372,-22.751 2.854,-45.573 2.366,-50.054c-0.797,-7.3 -4.104,-37.197 -25.069,-88.25c-1.986,-4.838 -16.241,-26.394 -33.608,-45.381c-11.352,-12.412 -24.003,-23.803 -35.556,-28.263c-19.538,-7.538 -40.301,-10.935 -58.043,-2.322Zm21.839,65.352l0.007,-0.007c4.412,-4.802 7.683,-5.872 9.712,-5.787l1.937,0.357l1.653,0.799l1.438,1.185c0.467,0.478 0.928,1.059 1.381,1.748c1.568,2.394 3.098,7.228 7.69,11.855c2.486,2.508 5.885,8.056 9.072,15.719c6.897,16.569 13.32,43.44 9.269,67.925c-2.114,12.787 -5.502,20.143 -9.231,24.795c-3.101,3.875 -6.507,6.047 -9.981,7.674c-2.705,1.27 -5.46,2.123 -8.034,3.539c-2.655,1.46 -5.12,1.731 -7.34,1.263c-2.184,-0.463 -4.241,-1.691 -6.03,-3.824c-3.165,-3.782 -5.647,-11.599 -7.021,-21.827c-3.778,-28.149 -0.949,-76.02 1.884,-94.679c0.687,-4.527 1.522,-7.602 2.146,-8.819l1.434,-1.909l0.014,-0.007Zm9.783,120.43c0.014,-0.011 0.032,-0.018 0.046,-0.025c2.298,-1.263 4.709,-2.155 7.131,-3.179c2.648,-1.116 5.346,-2.415 7.701,-5.358c2.967,-3.7 5.339,-9.669 7.021,-19.833c3.173,-19.169 -0.793,-39.926 -5.938,-54.995c-3.232,-9.469 -6.791,-16.654 -9.439,-19.323c-4.076,-4.106 -6.168,-8.277 -7.74,-11.238c-0.216,0.214 -0.436,0.439 -0.655,0.667c-0.029,0.1 -0.057,0.207 -0.082,0.3c-2.953,11.477 -6.872,66.027 -2.779,96.534c0.726,5.419 1.689,10.032 3.02,13.389c0.322,0.814 0.659,1.538 1.03,2.159c0.181,0.303 0.478,0.667 0.684,0.902Z"/></g><g><path d="M2625.47,586.93c-3.76,0.685 -27.271,4.955 -27.947,39.019c-0.719,36.33 26.846,39.862 -9.018,118.161c-16.471,35.955 -18.964,88.86 -4.012,106.72c59.435,70.975 122.655,-15.883 118.275,-51.171c-4.632,-37.339 -44.443,-77.194 -34.08,-138.7c0.864,-5.127 17.835,-71.439 -26.392,-74.061c-3.902,-0.232 -7.843,-3.257 -16.826,0.032Z" style="fill:#f03a3a;"/><path d="M2624.08,581.75l0.021,-0.007c6.476,-2.284 10.817,-1.856 14.28,-1.117c1.6,0.342 2.914,0.849 4.234,0.927c20.629,1.224 29.948,14.207 33.51,29.876c4.783,21.024 -1.65,47.218 -2.192,50.425c-6.009,35.663 5.612,63.758 16.698,88.353c7.892,17.507 15.505,33.376 17.417,48.788c1.423,11.495 -3.474,28.117 -13.168,43.554c-13.419,21.367 -35.8,40.276 -61.035,40.725c-16.939,0.3 -35.411,-7.51 -53.401,-28.994c-6.551,-7.821 -10.36,-21.692 -11.04,-38.153c-0.963,-23.322 4.064,-51.945 14.287,-74.257c24.069,-52.555 18.641,-69.933 13.274,-87.608c-2.546,-8.391 -4.971,-16.843 -4.741,-28.42c0.301,-15.269 4.865,-25.141 10.303,-31.606c8.055,-9.582 18.295,-11.873 21.553,-12.486Zm2.34,10.446c-1.884,0.342 -9.716,1.737 -15.788,8.958c-4.267,5.073 -7.552,12.919 -7.79,24.902c-0.202,10.222 2.033,17.664 4.281,25.074c5.828,19.19 12.35,38.16 -13.788,95.224c-9.542,20.832 -14.216,47.557 -13.316,69.327c0.559,13.604 3.13,25.234 8.544,31.699c15.292,18.263 30.694,25.448 45.094,25.191c21.769,-0.385 40.673,-17.31 52.247,-35.744c8.162,-12.997 12.803,-26.826 11.603,-36.505c-1.795,-14.459 -9.146,-29.265 -16.549,-45.691c-11.858,-26.304 -23.925,-56.422 -17.495,-94.568c0.496,-2.943 6.696,-26.957 2.309,-46.244c-2.546,-11.209 -9.026,-20.706 -23.78,-21.58c-1.476,-0.086 -2.963,-0.45 -4.617,-0.864c-2.348,-0.581 -5.269,-1.181 -10.084,0.585c-0.283,0.104 -0.574,0.182 -0.871,0.236Z"/></g><g><path d="M2805.85,585.724c-7.029,0.36 -111.271,-17.531 -122.785,35.513c-3.764,17.338 13.454,42.326 75.173,45.783c67.858,3.796 -22.707,86.295 -16.036,142.739c4.712,39.897 25.415,51.392 37.085,62.281c3.003,2.8 18.869,17.602 51.118,1.009c76.908,-39.572 -23.879,-189.489 26.729,-200.306c51.631,-11.035 75.732,-19.308 74.507,-46.458c-0.69,-15.302 -47.679,-45.952 -91.212,-43.09c-6.671,0.438 -10.024,2.022 -34.579,2.529Z" style="fill:#f03a3a;"/><path d="M2805.74,580.373c24.385,-0.5 27.716,-2.084 34.338,-2.519c31.905,-2.098 65.591,12.979 83.175,27.721c8.706,7.299 13.437,14.916 13.688,20.467c0.715,15.823 -5.81,26.23 -20.175,34.203c-12.647,7.018 -32.043,12.07 -58.535,17.732c-7.599,1.626 -10.148,7.777 -10.629,16.257c-0.62,10.914 2.145,25.267 5.594,41.15c5.435,25.013 12.612,53.625 12.64,78.984c0.032,27.111 -7.998,50.572 -33.02,63.448c-17.708,9.111 -30.957,9.383 -40.152,7.21c-9.751,-2.301 -15.243,-7.432 -16.989,-9.062c-12.265,-11.442 -33.799,-23.65 -38.753,-65.574c-1.696,-14.356 2.39,-30.332 8.816,-46.333c9.075,-22.587 22.799,-45.284 29.25,-63.229c3.003,-8.356 4.66,-15.427 2.203,-20.622c-2.344,-4.948 -8.452,-7.238 -19.251,-7.845c-39.104,-2.187 -61.131,-13.029 -71.767,-24.934c-8.098,-9.062 -10.116,-18.969 -8.3,-27.336c5.067,-23.346 26.028,-34.774 50.371,-39.426c33.495,-6.397 73.077,-0.068 77.333,-0.285l0.163,-0.007Zm0.378,10.695c-0.053,0.004 -0.106,0.004 -0.162,0.004c-4.933,0.064 -43.25,-6.094 -75.737,0.111c-19.906,3.803 -37.825,12.105 -41.971,31.195c-1.533,7.068 1.643,15.484 11.057,22.698c10.994,8.419 29.849,14.955 59.223,16.6c16.358,0.917 24.703,6.429 28.247,13.925c3.431,7.245 2.39,17.221 -1.798,28.869c-6.49,18.052 -20.267,40.889 -29.392,63.604c-5.704,14.196 -9.62,28.313 -8.115,41.053c4.475,37.871 24.342,48.649 35.421,58.985c1.254,1.17 5.198,4.841 12.195,6.493c7.552,1.784 18.358,1.159 32.9,-6.322c21.124,-10.871 27.253,-31.014 27.228,-53.9c-0.025,-24.639 -7.117,-52.413 -12.396,-76.712c-4.483,-20.636 -7.549,-38.927 -4.89,-51.214c2.174,-10.05 7.708,-16.729 18.1,-18.948c25.14,-5.376 43.608,-9.975 55.615,-16.639c10.285,-5.709 15.196,-13.012 14.687,-24.343c-0.068,-1.466 -0.981,-3.068 -2.27,-4.869c-1.799,-2.512 -4.394,-5.166 -7.598,-7.856c-16.004,-13.418 -46.653,-27.175 -75.69,-25.267c-6.703,0.439 -10.081,2.023 -34.654,2.533Z"/></g><g><path d="M3020.15,562.608c-33.656,12.606 -81.56,80.217 -49.521,100.624c52.732,33.585 50.381,-46.563 77.313,-27.507c2.892,2.047 23.257,25.022 -13.389,56.851c-35.921,31.196 -16.382,96.058 -1.298,100.861c20.478,6.522 59.723,4.375 62.194,-27.966c4.08,-53.402 11.602,-51.285 39.737,-81.147c39.68,-42.121 22.167,-173.118 -115.036,-121.716Z" style="fill:#f03a3a;stroke:#000;stroke-width:10.66px;"/></g><g><path d="M3051.88,827.502c-30.04,-9.936 -72.089,49.998 -11.755,70.893c39.762,13.775 86.687,-21.302 74.256,-40.097c-24.845,-37.553 -50.257,-33.503 -62.501,-30.796Z" style="fill:#f03a3a;stroke:#000;stroke-width:10.66px;"/></g><g><path d="M3233.84,544.11c-3.704,1.708 -38.392,-12.616 -56.167,49.066c-10.976,38.102 12.191,34.089 23.628,94.789c7.517,39.89 -11.564,107.344 36.069,102.773c50.473,-4.845 14.995,-68.706 23.316,-115.674c21.456,-120.983 6.09,-120.023 -26.846,-130.954Z" style="fill:#f03a3a;stroke:#000;stroke-width:10.66px;"/></g><g><path d="M3237.91,813.12c-79.383,10.61 -21.003,115.025 32.784,63.914c17.562,-16.675 19.438,-25.901 5.559,-47.853c-11.401,-17.999 -18.026,-18.619 -38.343,-16.061Z" style="fill:#f03a3a;stroke:#000;stroke-width:10.66px;"/></g><g><path d="M2625.92,511.934c-53.426,7.389 -14.818,65.788 14.896,55.096c24.714,-8.891 50.473,-48.51 -14.896,-55.096Z" style="fill:#f03a3a;stroke:#000;stroke-width:10.66px;"/></g></svg>