<?xml version="1.0" encoding="UTF-8" standalone="no"?>
<!DOCTYPE svg PUBLIC "-//W3C//DTD SVG 1.1//EN" "http://www.w3.org/Graphics/SVG/1.1/DTD/svg11.dtd">
<svg width="100%" height="100%" viewBox="0 0 1080 1080" version="1.1" xmlns="http://www.w3.org/2000/svg" xmlns:xlink="http://www.w3.org/1999/xlink" xml:space="preserve" xmlns:serif="http://www.serif.com/" style="fill-rule:evenodd;clip-rule:evenodd;stroke-linecap:round;stroke-linejoin:round;stroke-miterlimit:1.5;">
    <path d="M43.401,492.473C81.485,489.934 137.509,481.769 172.232,460.068C208.934,437.129 195.47,412.061 218.283,324.548C222.384,308.817 228.296,292.016 233.312,307.616C248.791,355.745 264.987,542.242 352.987,471.438C356.356,468.727 355.901,468.483 374.209,419.048C378.422,407.672 380.515,380.2 384.233,385.92C396.433,404.685 388.021,426.473 442.057,440.642C533.696,464.67 575.095,386.921 610.711,317.698C612.882,313.477 630.624,282.164 637.933,284.769C645.813,287.578 622.882,439.679 687.062,448.124C766.442,458.569 800.912,356.946 880.689,314.209C855.273,392.997 829.706,438.526 876.024,482.83C908.002,513.418 940.154,501.953 966.688,520.078C987.469,534.274 973.887,526.297 996.491,537.358C957.777,525.017 870.739,533.815 839.117,538.222C787.043,545.48 771.573,606.662 728.273,666.8C730.105,585.128 722.01,573.278 717.53,567.803C709.26,557.695 679.519,515.09 612.027,532.851C563.867,545.525 490.31,646.54 492.392,638.299C494.508,629.922 484.041,531.226 426.929,526.521C375.039,522.247 299.173,720.167 297.017,670.048C292.603,567.41 281.69,575.349 187.103,534.625C166.905,525.928 39.133,483.938 43.401,492.473Z" style="fill:rgb(255,214,0);stroke:black;stroke-width:3px;"/>
    <g transform="matrix(1.04169,0,0,1.10196,-47.4717,-35.1571)">
        <g id="shadow">
            <path d="M230.1,453.297C239.292,446.893 213.805,460.409 230.1,453.297C240.552,448.735 264.12,403.866 263.689,323.07C294.917,405.399 269.45,416.277 304.068,453.058C353.731,505.825 412.117,481.606 415.771,406.698C441.562,441.732 457.543,450.208 512.603,445.314C594.268,438.055 614.93,350.527 649.782,312.007C657.136,373.295 621.802,405.881 675.779,454.718C680.086,458.614 718.859,478.964 768.707,443.655C796.234,424.157 789.944,414.722 872.246,341.159C832.909,407.975 846.533,413.327 866.613,468.546C877.324,498.002 961.56,501.347 965.072,508.372C965.523,509.274 877.588,495.783 832.318,508.925C814.003,514.243 805.927,514.058 758.375,596.544C756.377,575.363 756.198,491.576 655.866,497.31C602.099,500.382 573.068,539.157 523.862,591.775C517.672,561.979 520.332,490.747 437.929,501.735C382.31,509.151 352.744,628.24 342.319,623.028C322.617,613.177 395.369,541.804 198.052,497.508C171.858,491.628 97.814,476.695 149.742,479.056C168.692,479.917 215.019,457.977 230.1,453.297Z" style="fill:rgb(41,121,255);"/>
            <path d="M223.985,453.983C224.038,453.945 224.094,453.906 224.153,453.866C224.71,453.49 225.674,452.936 226.732,452.375C228.422,451.479 230.353,450.57 231.247,450.299C231.416,450.248 231.563,450.213 231.683,450.193L232.092,450.16L232.154,450.169C232.519,449.826 232.894,449.445 233.28,449.027C235.572,446.54 238.13,442.793 240.758,437.819C251.188,418.079 262.549,379.33 262.249,323.077C262.246,322.414 262.748,321.845 263.439,321.729C264.13,321.614 264.808,321.986 265.044,322.611C280.72,363.938 282.169,387.331 284.04,405.009C285.874,422.333 288.115,434.06 305.144,452.153C329.439,477.966 355.793,485.141 376.594,476.51C397.476,467.845 412.538,443.422 414.332,406.636C414.361,406.053 414.779,405.552 415.372,405.39C415.964,405.229 416.6,405.442 416.953,405.921C429.657,423.177 439.901,433.935 453.793,439.734C467.723,445.549 485.272,446.376 512.468,443.959C552.818,440.372 578.057,416.9 597.554,389.622C617.317,361.971 631.233,330.415 648.687,311.122C649.06,310.711 649.655,310.547 650.204,310.706C650.752,310.864 651.148,311.315 651.213,311.854C654.169,336.491 650.277,356.514 647.995,374.812C644.638,401.732 644.853,424.852 676.775,453.734C680.998,457.555 718.969,477.185 767.844,442.565C795.34,423.089 789.045,413.652 871.257,340.17C871.773,339.709 872.568,339.672 873.13,340.085C873.691,340.497 873.85,341.234 873.504,341.821C857.903,368.321 850.666,385.056 848.917,399.119C846.294,420.217 856.027,435.248 867.975,468.104C870.44,474.884 877.03,480.162 885.573,484.452C898.829,491.108 916.783,495.312 932.286,498.471C944.508,500.962 955.228,502.811 961.046,504.661C962.679,505.18 963.952,505.711 964.814,506.244C965.613,506.738 966.117,507.276 966.374,507.791L966.484,508.103L966.508,508.503L966.402,508.909L966.205,509.226L965.969,509.452L965.686,509.621L965.165,509.761C964.889,509.792 963.987,509.749 962.538,509.606C948.277,508.202 873.305,498.45 832.741,510.227C814.589,515.497 806.766,515.448 759.639,597.195C759.336,597.722 758.703,597.999 758.082,597.877C757.461,597.754 756.997,597.262 756.941,596.665C755.559,582.019 755.195,537.018 721.025,513.31C706.413,503.172 685.619,496.973 655.953,498.668C629.407,500.185 608.979,510.541 589.102,526.987C569.012,543.61 549.496,566.419 524.941,592.677C524.578,593.065 524.014,593.225 523.485,593.089C522.957,592.954 522.555,592.546 522.45,592.038C520.593,583.101 519.533,570.436 516.734,557.38C512.89,539.449 505.784,520.724 488.429,510.277C476.859,503.312 460.76,500.065 438.13,503.083C420.686,505.408 405.935,519.035 393.499,536.197C374.508,562.406 361.009,596.934 352.217,613.731C349.502,618.916 347.141,622.462 345.256,623.771C343.941,624.685 342.721,624.769 341.645,624.231C339.282,623.049 337.992,621.153 337.412,618.602C336.903,616.366 336.965,613.577 337.257,610.328C338.132,600.591 341.072,586.436 334.276,570.727C324.005,546.982 291.656,519.92 197.72,498.833C184.869,495.948 160.517,490.886 145.137,486.753C138.31,484.918 133.21,483.21 131.465,481.981C131.009,481.659 130.711,481.335 130.537,481.049L130.321,480.553L130.268,479.929L130.37,479.503L130.565,479.132L130.864,478.788L131.35,478.441C131.873,478.149 132.824,477.87 134.281,477.701C137.066,477.379 142.056,477.344 149.811,477.696C157.26,478.035 169.002,474.744 181.373,470.432C196.995,464.986 213.585,457.874 223.985,453.983ZM230.703,454.533C228.065,455.685 226.49,456.307 225.675,456.569C225.026,456.778 224.62,456.797 224.444,456.782L224.365,456.765C213.959,460.689 197.698,467.643 182.369,472.986C169.563,477.45 157.384,480.766 149.673,480.415C143.514,480.136 139.148,480.099 136.278,480.266C135.59,480.306 134.999,480.354 134.499,480.412C135.265,480.777 136.249,481.209 137.264,481.559C149.853,485.903 182.71,492.665 198.385,496.184C337.897,527.503 343.42,572.621 341.197,600.047C340.64,606.926 339.54,612.688 340.025,616.827C340.293,619.12 341.057,620.857 342.992,621.825C343.083,621.87 343.17,621.797 343.277,621.744C343.559,621.602 343.848,621.367 344.159,621.064C345.717,619.549 347.522,616.561 349.635,612.523C358.466,595.653 372.048,560.983 391.123,534.658C404.065,516.798 419.574,502.807 437.727,500.387C461.243,497.251 477.953,500.743 489.976,507.981C508.011,518.837 515.561,538.206 519.556,556.839C522.081,568.616 523.192,580.076 524.748,588.769C548.482,563.295 567.576,541.18 587.205,524.938C607.587,508.074 628.558,497.506 655.779,495.951C686.312,494.206 707.69,500.681 722.729,511.115C754.716,533.309 758.024,573.623 759.437,591.87C805.364,512.677 813.718,512.902 831.896,507.624C868.542,496.985 933.023,503.683 956.43,506.216C950.372,504.713 941.516,503.137 931.679,501.133C915.925,497.922 897.692,493.62 884.222,486.856C874.949,482.2 867.927,476.347 865.251,468.989C853.103,435.581 843.389,420.253 846.057,398.802C847.661,385.9 853.745,370.765 866.567,348.143C791.167,416.323 796.361,425.767 769.571,444.744C718.748,480.744 679.175,459.674 674.784,455.701C641.933,425.979 641.68,402.196 645.134,374.493C647.294,357.18 650.937,338.309 648.701,315.379C632.306,334.758 618.81,364.745 599.94,391.146C579.977,419.076 554.053,442.997 512.737,446.669C484.873,449.146 466.902,448.182 452.629,442.224C439.194,436.616 428.993,426.581 416.966,410.665C414.24,446.6 398.644,470.333 377.752,479.003C356.031,488.016 328.361,480.917 302.993,453.963C285.404,435.275 283.069,423.173 281.175,405.28C279.434,388.84 278.067,367.417 265.094,331.029C264.339,383.593 253.378,420.028 243.334,439.035C238.625,447.947 233.989,453.099 230.703,454.533Z"/>
        </g>
    </g>
    <g id="text">
        <g transform="matrix(1,0,0,1,-38.0354,10.0406)">
            <path d="M203.184,466.328C198.839,464.206 202.583,454.069 202.894,453.01C204.503,447.538 203.684,443.475 195.623,440.02C194.681,439.617 175.371,433.913 175.785,447.151C176.189,460.077 181.715,470.147 177.409,484.143C175.866,489.159 174.436,510.224 178.256,514.288C185.278,521.758 195.23,523.606 203.035,517.535C206.875,514.549 213.503,514.215 214.26,498.686C214.56,492.543 215.294,482.408 221.037,486.826C224.662,489.614 216.627,503.316 223.649,511.04C229.3,517.256 229.845,516.59 232.545,517.817C234.51,518.711 235.565,521.378 246.664,519.159C247.33,519.026 252.31,519.254 259.23,511.605C263.507,506.878 257.687,499.342 255.7,491.979C252.679,480.784 250.444,477.399 253.512,469.53C256.965,460.67 256.519,441.184 255.63,439.879C252.418,435.169 234.875,436.977 234.027,448.21C233.426,456.168 233.26,467.765 229.807,466.785" style="fill:rgb(240,58,58);"/>
            <path d="M254.306,440.61C253.935,440.142 253.328,439.805 252.601,439.54C251.1,438.994 249.114,438.827 247.031,439.034C241.872,439.549 235.973,442.356 235.523,448.322C235.092,454.027 234.842,461.551 233.541,465.212C232.644,467.733 231.103,468.712 229.398,468.228C228.601,468.002 228.138,467.172 228.364,466.376C228.581,465.609 229.359,465.151 230.128,465.32C230.202,465.227 230.356,465.027 230.439,464.863C230.726,464.296 230.95,463.534 231.146,462.641C231.985,458.804 232.176,452.804 232.531,448.097C233.098,440.583 240.237,436.698 246.733,436.049C249.313,435.792 251.768,436.044 253.628,436.721C255.084,437.252 256.201,438.055 256.869,439.034L257.085,439.446C257.137,439.577 257.192,439.745 257.242,439.949C257.369,440.472 257.489,441.35 257.578,442.498C258.048,448.584 257.74,462.812 254.909,470.074C251.967,477.621 254.251,480.853 257.148,491.588C258.344,496.019 260.919,500.513 261.865,504.422C262.621,507.546 262.398,510.339 260.342,512.611C252.978,520.751 247.667,520.488 246.958,520.63C241.052,521.811 237.815,521.639 235.796,521.106C233.783,520.574 232.967,519.657 231.924,519.183C229.078,517.889 228.496,518.601 222.539,512.049C220.183,509.457 219.306,506.276 219.175,502.99C219.053,499.951 219.576,496.826 220.019,494.089C220.29,492.419 220.532,490.907 220.527,489.68C220.525,489.286 220.498,488.928 220.424,488.614C220.366,488.366 220.297,488.149 220.123,488.015C219.419,487.473 218.886,487.171 218.405,487.252C218.168,487.292 217.992,487.465 217.823,487.677C217.497,488.084 217.245,488.64 217.027,489.28C216.127,491.915 215.902,495.817 215.758,498.759C215.437,505.349 214.07,509.347 212.343,511.99C210.727,514.465 208.779,515.802 206.92,516.891C205.857,517.514 204.829,518.041 203.956,518.719C195.521,525.28 184.752,523.389 177.163,515.315C175.874,513.944 174.986,510.891 174.604,507.082C173.791,498.974 174.867,487.304 175.975,483.702C178.052,476.951 177.743,471.146 176.88,465.471C175.978,459.53 174.49,453.724 174.286,447.197C174.188,444.069 175.076,441.852 176.483,440.285C177.881,438.728 179.83,437.8 182.007,437.338C187.947,436.081 195.61,438.383 196.214,438.642C200.704,440.566 203.113,442.741 204.24,445.116C205.4,447.561 205.256,450.295 204.333,453.433C204.154,454.041 202.776,457.772 202.614,461.101C202.567,462.06 202.617,462.981 202.877,463.749C203.057,464.284 203.342,464.736 203.842,464.98C204.586,465.343 204.895,466.242 204.532,466.986C204.169,467.73 203.27,468.039 202.526,467.676C200.764,466.815 199.868,465.048 199.654,462.862C199.262,458.869 201.224,453.371 201.455,452.587C202.141,450.253 202.392,448.22 201.53,446.402C200.634,444.513 198.603,442.93 195.032,441.399C194.59,441.21 189.839,439.802 185.25,439.969C182.737,440.061 180.243,440.587 178.715,442.289C177.741,443.374 177.217,444.937 177.284,447.104C177.484,453.504 178.961,459.195 179.846,465.02C180.772,471.111 181.072,477.339 178.842,484.584C177.79,488.004 176.817,499.085 177.589,506.783C177.78,508.683 178.074,510.37 178.517,511.66C178.752,512.342 179.009,512.899 179.349,513.26C185.804,520.128 194.939,521.932 202.114,516.351C203.085,515.596 204.221,514.995 205.404,514.302C206.914,513.418 208.519,512.359 209.832,510.349C211.36,508.009 212.477,504.447 212.762,498.613C212.953,494.702 213.388,489.281 214.959,486.571C215.709,485.277 216.714,484.495 217.906,484.294C218.996,484.11 220.356,484.409 221.952,485.637C222.83,486.312 223.344,487.369 223.484,488.786C223.632,490.289 223.348,492.302 222.981,494.569C222.567,497.122 222.058,500.035 222.172,502.87C222.276,505.459 222.902,507.989 224.759,510.031C230.104,515.911 230.611,515.291 233.165,516.452C234.088,516.871 234.782,517.735 236.563,518.205C238.337,518.674 241.178,518.726 246.37,517.688C246.993,517.563 251.641,517.757 258.118,510.599C259.891,508.638 259.365,506.085 258.395,503.269C257.216,499.844 255.254,496.084 254.252,492.37C251.107,480.715 248.92,477.177 252.114,468.985C254.472,462.935 254.931,451.803 254.718,445.233C254.648,443.082 254.357,440.969 254.306,440.61Z"/>
        </g>
        <g transform="matrix(1.0245,0,0,1.0242,-43.5622,-1.4239)">
            <path d="M229.759,467.034C223.995,458.859 220.466,448.438 212.652,456.025C208.859,459.708 208.703,462.245 205.647,466.353C204.896,467.363 205.112,467.063 204.178,466.86C204.026,466.827 204.86,467.134 203.63,466.497" style="fill:rgb(240,58,58);"/>
            <path d="M204.575,465.34C207.59,461.237 207.811,458.684 211.632,454.974C213.967,452.708 216.031,451.886 217.847,451.931C219.724,451.977 221.436,452.949 223.029,454.603C225.65,457.324 228.027,462.037 230.956,466.19C231.422,466.851 231.263,467.765 230.603,468.231C229.943,468.697 229.029,468.539 228.563,467.878C225.727,463.856 223.458,459.27 220.92,456.635C219.933,455.61 218.938,454.888 217.775,454.859C216.551,454.829 215.245,455.549 213.672,457.076C209.95,460.69 209.82,463.196 206.822,467.227C206.439,467.742 206.204,468.003 206.034,468.139L205.688,468.358L205.219,468.506L204.853,468.527L204.466,468.468C204.366,468.442 204.236,468.386 204.032,468.331L203.953,468.33L203.538,468.187L203.185,467.952L203.144,467.896C203.087,467.866 203.024,467.832 202.957,467.798C202.24,467.426 201.959,466.542 202.33,465.824C202.701,465.106 203.586,464.825 204.303,465.196C204.404,465.248 204.494,465.296 204.575,465.34Z"/>
        </g>
        <g transform="matrix(1,0,0,1,-38.2948,9.56588)">
            <path d="M303.245,438.043C303.687,437.808 305.729,437.121 309.344,439.22C319.243,444.968 319.901,459.828 322.227,469.388C327.793,492.272 341.524,491.884 333.685,509.913C329.625,519.252 320.202,521.844 313.487,520.206C302.053,517.417 304.318,511.564 305.201,505.381C306.184,498.502 300.947,494.94 299.116,495.023C292.726,495.314 297.792,500.691 293.678,515.092C292.842,518.017 287.509,520.076 286.233,520.206C271.865,521.672 269.096,516.835 265.97,503.439C262.107,486.885 269.99,466.816 273.091,461.943C280.486,450.322 285.472,447.117 286.88,446.212C299.345,438.199 301.754,437.83 303.245,438.043ZM299.957,467.316C293.984,480.755 297.929,486.903 300.669,484.795C304.261,482.032 304.653,469.451 299.957,467.316Z" style="fill:rgb(240,58,58);"/>
            <path d="M303.026,436.511L303.029,436.511C304.068,436.155 306.446,435.803 310.097,437.923C315.377,440.988 318.257,446.439 320.062,452.443C321.763,458.098 322.516,464.231 323.684,469.033C326.413,480.252 331.166,485.755 334.253,490.674C337.641,496.071 339.277,500.814 335.061,510.511C330.654,520.646 320.419,523.441 313.132,521.663C307.996,520.411 305.388,518.494 304.091,516.337C303.066,514.633 302.817,512.727 302.943,510.691C303.052,508.931 303.445,507.065 303.716,505.169C304.297,501.1 302.351,498.386 300.572,497.159C300.015,496.775 299.522,496.507 299.184,496.522C298.387,496.558 297.849,496.621 297.521,496.931C297.334,497.107 297.264,497.364 297.201,497.671C297.082,498.244 297.056,498.947 297.043,499.788C296.996,503.05 297.23,508.12 295.12,515.504C294.7,516.974 293.441,518.326 291.901,519.363C289.808,520.771 287.256,521.61 286.385,521.698C280.223,522.327 276.061,521.792 273.058,520.103C268.567,517.577 266.514,512.373 264.509,503.78C260.54,486.769 268.639,466.146 271.826,461.138C279.448,449.16 284.618,445.883 286.069,444.95C293.701,440.044 297.646,437.96 299.904,437.114C301.426,436.544 302.334,436.463 303.026,436.511ZM303.033,439.528C302.436,439.443 301.677,439.554 299.799,440.408C297.488,441.459 293.829,443.528 287.691,447.474C286.327,448.351 281.524,451.485 274.357,462.748C271.341,467.487 263.675,487.001 267.431,503.098C268.34,506.993 269.207,510.145 270.367,512.606C271.414,514.829 272.69,516.454 274.529,517.488C277.128,518.95 280.748,519.258 286.081,518.714C286.74,518.647 288.641,517.94 290.226,516.874C291.138,516.26 291.987,515.55 292.235,514.68C294.667,506.17 293.823,500.857 294.135,497.908C294.286,496.476 294.707,495.461 295.462,494.748C296.188,494.064 297.286,493.605 299.047,493.525C299.808,493.49 301.025,493.827 302.275,494.689C304.707,496.366 307.48,500.032 306.686,505.594C306.427,507.408 306.041,509.192 305.937,510.876C305.85,512.283 305.954,513.613 306.662,514.791C307.676,516.476 309.83,517.77 313.843,518.749C319.985,520.247 328.595,517.857 332.31,509.315C335.932,500.983 334.622,496.906 331.712,492.269C328.502,487.153 323.607,481.408 320.769,469.742C319.612,464.985 318.874,458.908 317.189,453.307C315.609,448.053 313.211,443.2 308.591,440.517C305.809,438.902 304.291,439.185 303.951,439.367C303.67,439.517 303.348,439.573 303.033,439.528ZM300.578,465.95C302.839,466.978 304.312,469.914 304.759,473.405C305.12,476.227 304.868,479.376 304.11,481.832C303.535,483.693 302.644,485.169 301.584,485.984C300.823,486.569 300.002,486.775 299.211,486.678C298.461,486.587 297.707,486.214 297.059,485.488C296.214,484.541 295.494,482.854 295.358,480.402C295.183,477.244 295.946,472.648 298.586,466.707C298.749,466.341 299.051,466.056 299.425,465.914C299.798,465.772 300.214,465.785 300.578,465.95ZM300.533,469.814C297.985,476.243 297.91,480.612 298.886,482.816C299.026,483.131 299.182,483.385 299.367,483.563C299.485,483.676 299.627,483.704 299.755,483.606C300.419,483.095 300.883,482.114 301.243,480.947C301.887,478.86 302.09,476.183 301.783,473.785C301.62,472.514 301.316,471.321 300.836,470.356C300.741,470.165 300.641,469.984 300.533,469.814Z"/>
        </g>
        <g transform="matrix(1,0,0,1,-38.2948,9.56588)">
            <path d="M390.298,441.845C384.497,433.462 359.944,437.765 347.357,437.986C341.954,438.08 327.208,436.923 328.058,450.944C328.844,463.911 351.128,456.036 352.871,461.765C355.248,469.575 349.26,480.177 347.219,489.267C341.747,513.643 346.521,513.689 350.597,517.113C356.066,521.707 358.767,519.61 363.969,518.216C369.624,516.7 372.207,517.794 376.858,506.36C381.411,495.168 377.81,487.066 377.133,485.545C373.949,478.38 367.241,467.226 372.102,462.041C372.277,461.854 379.071,460.157 383.544,460.042C400.485,459.608 396.178,445.765 390.298,441.845Z" style="fill:rgb(240,58,58);"/>
            <path d="M391.362,440.756L391.366,440.76C393.259,442.105 394.998,444.338 396.023,446.857C397.124,449.56 397.393,452.571 396.318,455.154C394.924,458.505 391.225,461.345 383.582,461.541C379.867,461.637 374.488,462.866 372.979,463.316C371.581,465.039 371.686,467.481 372.316,470.145C373.483,475.08 376.626,480.71 378.504,484.935C379.219,486.543 383.057,495.102 378.247,506.926C375.749,513.068 373.724,515.793 371.646,517.239C369.574,518.68 367.387,518.852 364.357,519.664C362.521,520.156 360.994,520.734 359.549,521.08C357.858,521.484 356.262,521.595 354.495,521.081C353.052,520.661 351.476,519.81 349.632,518.261C347.861,516.774 346.015,515.824 344.762,513.584C342.955,510.354 342.326,504.216 345.756,488.938C346.784,484.358 348.801,479.397 350.267,474.598C351.627,470.146 352.547,465.851 351.436,462.202C351.346,461.904 351.086,461.733 350.771,461.579C350.388,461.392 349.924,461.26 349.401,461.155C346.97,460.666 343.469,460.782 340.012,460.566C333.333,460.148 327.007,458.39 326.561,451.034C326.332,447.258 327.154,444.472 328.554,442.403C330.653,439.303 334.112,437.772 337.7,437.077C341.353,436.369 345.11,436.525 347.331,436.486C354.912,436.353 366.818,434.751 376.388,435.304C380.398,435.535 384.013,436.15 386.794,437.35C388.734,438.187 390.288,439.313 391.362,440.756ZM389.065,442.699C388.072,441.265 386.409,440.309 384.343,439.628C382.038,438.868 379.249,438.474 376.215,438.299C366.72,437.751 354.906,439.353 347.384,439.485C345.282,439.522 341.727,439.353 338.27,440.022C335.459,440.567 332.683,441.655 331.038,444.085C329.943,445.703 329.376,447.899 329.555,450.853C329.747,454.014 331.529,455.637 333.943,456.505C336.777,457.525 340.379,457.614 343.657,457.716C346.562,457.807 349.238,457.914 351.076,458.487C352.792,459.022 353.893,459.97 354.306,461.328C355.33,464.692 354.961,468.538 353.951,472.566C352.547,478.168 349.905,484.152 348.683,489.595C347.071,496.777 346.356,501.807 346.265,505.422C346.182,508.72 346.606,510.735 347.38,512.12C348.434,514.004 350.072,514.713 351.562,515.964C356.472,520.089 358.91,518.018 363.58,516.767C366.206,516.063 368.137,516.025 369.933,514.776C371.723,513.53 373.316,511.087 375.468,505.795C379.764,495.234 376.401,487.59 375.763,486.154C373.82,481.782 370.604,475.942 369.396,470.836C368.474,466.936 368.742,463.431 371.008,461.015L371.383,460.721L371.88,460.516C373.197,460.088 379.327,458.65 383.505,458.542C389.418,458.391 392.47,456.594 393.548,454.002C394.328,452.128 394.043,449.949 393.245,447.988C392.414,445.947 391.01,444.123 389.466,443.093C389.309,442.988 389.173,442.855 389.065,442.699Z"/>
        </g>
        <g transform="matrix(1,0,0,1,-38.2948,9.56588)">
            <path d="M431.856,437.567C401.724,436.435 397.787,437.865 393.223,442.809C385.9,450.742 390.822,462.303 403.197,459.407C413.095,457.09 422.737,460.764 412.661,481.611C411.707,483.584 405.089,497.277 407.273,508.473C410.577,525.405 432.087,521.321 437.849,510.949C442.58,502.434 442.465,492.017 442.071,490.346C437.231,469.776 429.74,468.785 434.573,462.61C437.931,458.32 446.636,462.721 455.758,456.64C465.418,450.2 450.44,439.903 443.382,438.295C434.061,436.171 433.929,438.252 414.481,437.13C414.119,437.109 435.622,437.159 431.856,437.567Z" style="fill:rgb(240,58,58);"/>
            <path d="M414.023,435.713L414.08,435.683C414.089,435.681 414.271,435.65 414.601,435.635C414.59,435.634 414.579,435.633 414.567,435.633C414.579,435.633 414.592,435.634 414.604,435.635C414.713,435.63 414.839,435.627 414.979,435.626C417.56,435.624 429.189,435.677 431.874,435.888C436.193,435.751 438.561,435.658 443.715,436.833C448.23,437.861 455.772,442.243 458.869,447.052C460.053,448.891 460.613,450.803 460.342,452.634C460.069,454.477 458.97,456.302 456.59,457.889C450.839,461.723 445.259,461.649 440.942,461.904C438.705,462.036 436.852,462.132 435.754,463.534C435.011,464.485 434.603,465.255 434.525,466.038C434.398,467.328 435.076,468.568 436.025,470.386C437.932,474.042 441.068,479.531 443.532,490.003C443.945,491.759 444.134,502.725 439.16,511.677C436.667,516.164 431.479,519.605 425.886,520.896C420.79,522.073 415.396,521.462 411.419,518.429C408.743,516.388 406.678,513.252 405.801,508.761C403.541,497.177 410.323,482.999 411.31,480.958C413.733,475.945 414.989,471.972 415.334,468.856C415.639,466.098 415.229,464.09 414.212,462.713C413.248,461.407 411.757,460.726 410.03,460.448C408.066,460.132 405.81,460.336 403.539,460.867C396.488,462.517 391.619,459.881 389.498,455.87C387.38,451.866 387.956,446.303 392.121,441.791C394.609,439.096 396.916,437.337 402.719,436.427C405.481,435.994 409.096,435.761 414.023,435.713ZM432.945,438.806L432.776,438.91C432.667,438.949 432.423,439.014 432.017,439.058C431.945,439.066 431.872,439.068 431.8,439.065C430.634,439.022 429.507,438.982 428.419,438.946C425.409,439.009 421.452,439.003 415.677,438.699C410.116,438.704 406.148,438.927 403.184,439.391C398.344,440.15 396.401,441.578 394.325,443.826C391.167,447.248 390.543,451.431 392.149,454.467C393.752,457.497 397.53,459.193 402.855,457.946C408.452,456.636 413.925,457.273 416.626,460.931C417.742,462.443 418.43,464.484 418.431,467.183C418.432,470.802 417.168,475.731 414.011,482.263C413.09,484.169 406.636,497.376 408.746,508.186C409.455,511.822 411.072,514.392 413.238,516.044C416.524,518.55 421,518.946 425.211,517.973C429.961,516.876 434.421,514.031 436.538,510.22C441.026,502.142 440.984,492.275 440.611,490.69C437.742,478.496 433.917,473.271 432.357,469.72C431.71,468.246 431.416,466.996 431.54,465.744C431.663,464.491 432.202,463.206 433.392,461.686C434.982,459.654 437.523,459.101 440.765,458.909C444.664,458.679 449.731,458.855 454.926,455.392C456.41,454.403 457.204,453.344 457.374,452.194C457.546,451.032 457.098,449.844 456.346,448.676C453.634,444.463 447.004,440.659 443.049,439.758C438.627,438.75 436.291,438.703 432.945,438.806Z"/>
        </g>
        <g transform="matrix(1,0,0,1,-38.2948,9.56588)">
            <path d="M491.16,438.616C492.463,438.527 498.761,437.939 503.154,443.551C510.444,452.867 506.659,462.985 512.478,475.554C517.37,486.12 519.589,493.939 520.908,497.411C527.328,514.306 506.048,523.224 495.321,517.627C486.492,513.02 492.73,507.875 492.859,503.602C493.092,495.928 489.259,496.335 488.234,495.994C482.19,493.979 483.087,503.232 483.012,505.244C482.472,519.819 465.169,522.428 457.947,516.582C446.963,507.69 447.422,490.946 456.829,466.826C465.971,443.385 488.212,438.145 491.16,438.616ZM486.513,467.262C485.496,468.008 478.568,483.751 485.698,485.177C491.214,486.28 493.061,470.318 486.513,467.262Z" style="fill:rgb(240,58,58);"/>
            <path d="M491.181,437.11L491.189,437.11C492.883,436.993 499.6,436.577 504.335,442.627C508.164,447.519 509.128,452.607 509.855,458.137C510.53,463.268 511.004,468.799 513.84,474.924C518.753,485.537 520.985,493.391 522.31,496.878C526.521,507.959 519.903,515.937 511.345,519.196C505.711,521.341 499.258,521.373 494.627,518.957C491.507,517.329 490.055,515.57 489.457,513.873C488.832,512.104 489.109,510.319 489.708,508.571C490.309,506.821 491.312,505.133 491.36,503.557C491.454,500.443 490.904,498.921 490.046,498.19C489.55,497.768 488.991,497.676 488.59,497.602C488.249,497.539 487.964,497.484 487.76,497.417C487.03,497.173 486.469,497.125 486.036,497.336C485.331,497.681 485.058,498.541 484.845,499.45C484.33,501.655 484.547,504.34 484.511,505.299C484.155,514.917 477.188,519.824 469.935,520.801C465.107,521.451 460.176,520.316 457.004,517.748C451.175,513.03 448.329,506.251 448.241,497.43C448.157,488.966 450.642,478.559 455.431,466.281C462.04,449.335 475.283,441.605 483.675,438.656C487.264,437.395 490.037,437.026 491.181,437.11ZM490.924,440.097C490.13,439.97 487.795,440.388 484.67,441.486C476.809,444.248 464.416,451.499 458.226,467.371C453.608,479.213 451.16,489.238 451.241,497.4C451.319,505.203 453.735,511.243 458.891,515.417C461.497,517.526 465.569,518.362 469.534,517.828C475.471,517.028 481.222,513.06 481.513,505.188C481.561,503.892 481.299,499.803 482.431,497.201C482.934,496.045 483.692,495.143 484.719,494.641C485.72,494.152 487.02,494.008 488.708,494.57C489.318,494.774 490.732,494.835 491.99,495.906C493.248,496.977 494.497,499.085 494.358,503.648C494.315,505.09 493.693,506.632 493.056,508.208C492.412,509.799 491.663,511.437 492.363,513.072C492.839,514.186 493.965,515.228 496.015,516.297C499.966,518.358 505.471,518.223 510.277,516.393C517.377,513.689 522.999,507.136 519.506,497.944C518.192,494.487 515.987,486.702 511.117,476.184C508.133,469.739 507.591,463.928 506.881,458.528C506.223,453.528 505.434,448.899 501.972,444.476C498.056,439.471 492.424,440.033 491.262,440.112C491.149,440.12 491.036,440.115 490.924,440.097ZM487.148,465.903C489.062,466.796 490.433,468.557 491.249,470.757C492.351,473.728 492.434,477.51 491.714,480.571C491.191,482.792 490.225,484.633 489.016,485.661C487.978,486.544 486.76,486.919 485.404,486.648C481.78,485.923 480.653,482.464 481.121,478.302C481.587,474.161 483.524,469.391 484.611,467.407C485.028,466.645 485.429,466.197 485.626,466.053C486.068,465.729 486.651,465.671 487.148,465.903ZM486.96,469.375C485.976,471.339 484.486,475.23 484.102,478.637C483.976,479.764 483.968,480.834 484.179,481.743C484.407,482.729 484.928,483.493 485.992,483.706C486.548,483.817 486.999,483.513 487.388,483.057C488.03,482.305 488.49,481.173 488.794,479.884C489.387,477.363 489.344,474.246 488.436,471.8C488.085,470.853 487.607,470.004 486.96,469.375Z"/>
        </g>
        <g transform="matrix(1,0,0,1,-38.2948,9.56588)">
            <path d="M573.559,474.277C595.04,475.619 597.673,501.257 587.527,512.079C581.513,518.494 554.093,524.512 537.726,517.147C514.741,506.804 531.518,478.041 533.925,472.121C539.252,459.028 532.063,452.247 538.311,442.592C544.085,433.669 566.969,435.396 577.977,443.761C584.13,448.438 584.006,468.065 573.559,474.277ZM557.928,451.539C553.975,450.66 554.074,453.513 553.92,459.448C553.515,475.039 561.263,464.353 561.597,463.734C563.934,459.393 564.477,447.67 557.928,451.539ZM559.32,482.914C558.392,481.032 554.397,483.314 555.072,486.955C556.781,496.184 557.243,499.811 561.917,497.318C567.941,494.105 563.841,482.01 559.32,482.914Z" style="fill:rgb(240,58,58);"/>
            <path d="M577.289,473.25C588.609,475.528 594.066,484.818 594.677,494.389C595.123,501.379 592.942,508.497 588.622,513.105C586.091,515.805 579.994,518.528 572.441,520.219C561.377,522.697 547.201,523.056 537.111,518.515C524.827,512.988 523.093,502.574 524.826,492.715C526.471,483.36 531.315,474.558 532.536,471.556C535.086,465.288 534.613,460.528 534.277,456.183C533.902,451.327 533.709,446.942 537.052,441.777C539.573,437.88 545.018,435.699 551.492,435.243C560.731,434.592 572.024,437.353 578.884,442.567C581.613,444.64 583.373,449.31 583.588,454.674C583.849,461.194 581.885,468.654 577.289,473.25ZM572.792,472.987C578.611,469.528 580.86,461.533 580.59,454.794C580.417,450.478 579.264,446.624 577.069,444.955C570.72,440.13 560.253,437.633 551.703,438.236C546.316,438.615 541.668,440.164 539.57,443.406C536.665,447.897 536.942,451.73 537.268,455.952C537.633,460.684 538.091,465.861 535.315,472.687C534.128,475.604 529.38,484.143 527.781,493.235C526.27,501.824 527.64,510.964 538.342,515.779C547.892,520.077 561.314,519.637 571.785,517.292C578.589,515.768 584.153,513.485 586.433,511.053C590.23,507.004 592.076,500.724 591.683,494.58C591.098,485.423 585.447,476.523 573.465,475.774C572.809,475.733 572.255,475.268 572.101,474.629C571.946,473.989 572.227,473.324 572.792,472.987ZM557.676,449.967L557.678,449.966C559.277,449.154 560.572,449.13 561.568,449.498C562.737,449.929 563.625,450.947 564.138,452.415C565.286,455.701 564.476,461.551 562.917,464.445C562.726,464.801 560.436,467.975 558.219,468.985C556.799,469.632 555.409,469.564 554.274,468.426C553.768,467.917 553.29,467.126 552.958,465.926C552.567,464.515 552.343,462.419 552.421,459.409C552.485,456.933 552.518,454.971 552.786,453.567C553.07,452.071 553.655,451.077 554.503,450.499C555.242,449.995 556.255,449.75 557.676,449.967ZM557.603,453.004C556.957,452.86 556.505,452.765 556.193,452.978C555.894,453.181 555.833,453.601 555.733,454.128C555.488,455.415 555.479,457.216 555.42,459.487C555.345,462.352 555.54,464.254 555.951,465.455C556.063,465.785 556.185,466.045 556.333,466.233C556.392,466.306 556.438,466.371 556.51,466.379C556.685,466.397 556.862,466.312 557.049,466.22C557.407,466.043 557.761,465.778 558.1,465.486C559.229,464.511 560.173,463.214 560.276,463.023C561.523,460.708 562.225,456.034 561.306,453.405C561.129,452.899 560.932,452.461 560.529,452.312C560.059,452.138 559.477,452.367 558.691,452.831C558.364,453.024 557.974,453.086 557.603,453.004ZM559.963,481.368C560.984,481.408 561.982,481.842 562.884,482.62C564.268,483.815 565.442,485.891 566.027,488.205C567.033,492.183 566.24,496.712 562.622,498.642C560.668,499.684 559.211,499.775 558.108,499.302C557.304,498.957 556.61,498.293 556.053,497.227C555.098,495.399 554.49,492.051 553.597,487.228C552.941,483.685 555.59,481.145 557.606,480.791C558.221,480.683 558.8,480.747 559.297,480.954L559.714,481.172L559.963,481.368ZM558.09,483.772C557.943,483.823 557.674,483.926 557.508,484.053C556.847,484.56 556.331,485.515 556.547,486.682C557.213,490.28 557.676,493.007 558.294,494.825C558.48,495.374 558.673,495.825 558.907,496.167C559.024,496.338 559.136,496.479 559.292,496.545C559.491,496.631 559.725,496.584 560.008,496.506C560.366,496.407 560.763,496.234 561.211,495.995C562.569,495.27 563.193,493.915 563.379,492.433C563.593,490.722 563.234,488.832 562.549,487.271C562.12,486.296 561.569,485.448 560.924,484.892C560.514,484.538 560.081,484.291 559.614,484.385C559.023,484.503 558.427,484.255 558.09,483.772Z"/>
        </g>
        <g transform="matrix(1,0,0,1,-38.2948,9.56588)">
            <path d="M620.422,438.176C631.824,437.792 634.153,440.797 637.699,442.747C657.225,453.486 659.079,484.06 659.123,486.661C659.326,498.411 652.487,509.861 649.609,512.876C645.458,517.224 633.651,518.95 631.91,518.998C609.875,519.601 604.785,514.539 601.236,511.878C596.423,508.268 591.88,491.66 593.319,477.279C593.507,475.393 594.273,467.736 600.97,454.856C609.027,439.363 614.357,438.793 620.422,438.176ZM625.788,455.921C621.816,456.98 611.282,478.975 622.329,490.653C629.516,498.251 637.008,476.745 632.841,462.774C632.642,462.105 632.104,458.455 629.847,457.252C627.722,456.118 626.1,455.863 625.788,455.921Z" style="fill:rgb(240,58,58);"/>
            <path d="M620.371,436.677C632.281,436.276 634.719,439.396 638.421,441.432C646.54,445.897 651.751,453.634 655.047,461.516C659.909,473.146 660.596,485.039 660.623,486.635C660.834,498.865 653.69,510.773 650.694,513.912C648.89,515.801 645.781,517.28 642.548,518.323C637.901,519.823 633.038,520.467 631.951,520.497C609.227,521.12 603.996,515.823 600.336,513.078C598.741,511.882 597.116,509.429 595.745,506.102C592.775,498.896 590.794,487.454 591.826,477.13C592.019,475.199 592.782,467.352 599.639,454.164C604.705,444.424 608.82,440.377 612.611,438.507C615.199,437.231 617.668,436.949 620.27,436.684C620.303,436.68 620.337,436.678 620.371,436.677ZM620.522,439.673C618.291,439.9 616.159,440.102 613.939,441.197C610.493,442.897 606.904,446.697 602.301,455.548C595.764,468.12 594.995,475.587 594.811,477.428C593.969,485.848 595.228,495.051 597.385,501.826C598.736,506.072 600.37,509.354 602.136,510.678C605.574,513.256 610.523,518.083 631.869,517.498C632.871,517.471 637.345,516.85 641.626,515.468C644.346,514.59 647.006,513.43 648.524,511.841C651.285,508.948 657.818,497.957 657.624,486.687C657.597,485.161 656.928,473.793 652.279,462.673C649.233,455.389 644.479,448.188 636.976,444.061C633.593,442.201 631.374,439.317 620.522,439.673ZM625.515,454.446C625.899,454.375 627.94,454.534 630.553,455.928C631.736,456.559 632.593,457.672 633.171,458.873C633.878,460.344 634.151,461.916 634.279,462.345C636.103,468.461 635.801,475.963 634.262,482.02C633.201,486.192 631.537,489.68 629.639,491.66C628.387,492.967 627.004,493.668 625.609,493.73C624.192,493.792 622.692,493.22 621.239,491.684C613.05,483.028 615.873,469.026 619.858,461.015C621.088,458.543 622.429,456.64 623.556,455.594C624.223,454.975 624.864,454.615 625.402,454.472C625.439,454.462 625.477,454.453 625.515,454.446ZM626.012,457.438C625.778,457.569 625.529,457.838 625.231,458.164C624.377,459.1 623.438,460.556 622.544,462.351C620.743,465.973 619.158,470.95 618.953,476C618.754,480.879 619.842,485.842 623.418,489.622C624.161,490.408 624.865,490.805 625.587,490.724C626.139,490.663 626.658,490.345 627.167,489.884C627.834,489.278 628.453,488.431 629.026,487.411C632.184,481.788 633.789,471.201 631.404,463.203C631.308,462.883 631.138,461.849 630.716,460.752C630.398,459.927 629.954,459.009 629.141,458.575C627.804,457.862 626.42,457.527 626.012,457.438Z"/>
        </g>
        <g transform="matrix(1,0,0,1,-38.2948,9.56588)">
            <path d="M686.409,439.158C686.403,439.155 675.338,433.42 669.805,441.864C664.591,449.822 673.971,461.052 668.562,475.657C664.996,485.285 661.072,508.476 677.339,516.911C684.327,520.535 685.08,521.885 701.112,521.885C704.323,521.885 718.672,519.9 724.372,508.499C732.681,491.882 721.894,481.163 723.128,458.322C724.101,440.323 720.531,438.541 708.938,437.768C703.829,437.427 699.683,444.801 700.526,451.446C701.616,460.022 710.84,475.406 700.307,487.946C695.408,493.777 688.184,473.116 689.482,464.612C690.056,460.849 693.33,449.596 691.895,444.717C690.62,440.38 690.247,440.277 686.409,439.158Z" style="fill:rgb(240,58,58);"/>
            <path d="M686.926,437.745L686.929,437.747C689.125,438.39 690.306,438.831 691.156,439.652C692.016,440.483 692.586,441.747 693.334,444.293C693.954,446.401 693.81,449.611 693.315,452.963C692.626,457.622 691.309,462.579 690.964,464.838C690.104,470.481 693.201,481.772 696.73,486.142C697.079,486.574 697.427,486.93 697.782,487.18C698.05,487.37 698.294,487.522 698.554,487.454C698.77,487.397 698.956,487.222 699.159,486.981C704.096,481.103 704.352,474.547 703.297,468.466C702.167,461.955 699.585,455.94 699.038,451.635C698.479,447.229 699.92,442.538 702.37,439.567C704.181,437.372 706.534,436.104 709.038,436.271C715.394,436.695 719.485,437.59 721.92,440.652C724.278,443.617 725.143,448.844 724.626,458.403C724.017,469.669 726.391,477.944 727.875,485.454C729.442,493.389 730.044,500.509 725.714,509.17C719.678,521.241 704.511,523.385 701.112,523.385C684.611,523.385 683.841,521.972 676.649,518.243C669.705,514.642 666.181,508.542 664.729,501.836C662.622,492.106 664.947,481.1 667.155,475.136C670.291,466.67 668.214,459.377 667.193,453.237C666.421,448.588 666.263,444.534 668.551,441.042C671.7,436.235 676.405,435.421 680.343,435.852C683.786,436.229 686.589,437.578 686.926,437.745ZM685.859,440.553C685.856,440.552 683.262,439.19 680.016,438.834C677.037,438.508 673.443,439.049 671.06,442.686C669.928,444.413 669.618,446.325 669.672,448.409C669.732,450.739 670.239,453.269 670.733,456.001C671.791,461.858 672.783,468.578 669.969,476.178C668.239,480.847 666.421,488.805 667.009,496.619C667.578,504.172 670.403,511.625 678.03,515.58C684.814,519.097 685.549,520.385 701.112,520.385C704.134,520.385 717.665,518.56 723.03,507.829C727.008,499.872 726.371,493.324 724.931,486.035C723.407,478.321 721.005,469.815 721.631,458.241C721.867,453.863 721.835,450.471 721.466,447.834C721.134,445.456 720.545,443.744 719.571,442.519C718.651,441.361 717.388,440.679 715.771,440.217C713.906,439.684 711.611,439.449 708.838,439.264C707.255,439.159 705.83,440.087 704.685,441.476C702.701,443.882 701.561,447.689 702.015,451.257C702.557,455.528 705.132,461.493 706.253,467.953C707.449,474.844 707.051,482.249 701.456,488.91C700.517,490.027 699.486,490.462 698.47,490.467C697.159,490.475 695.711,489.656 694.396,488.027C690.48,483.177 687.043,470.648 687.999,464.386C688.343,462.13 689.659,457.178 690.347,452.525C690.769,449.669 690.984,446.935 690.456,445.14C689.929,443.349 689.676,442.394 689.071,441.809C688.468,441.227 687.568,441.058 685.989,440.598C685.945,440.585 685.902,440.57 685.859,440.553Z"/>
        </g>
        <g transform="matrix(1,0,0,1,-38.2948,9.56588)">
            <path d="M756.172,437.989C761.588,435.281 767.962,436.198 773.953,438.492C782.545,441.783 793.37,457.626 794.336,459.962C800.355,474.506 801.292,483.028 801.521,485.107C801.759,487.276 803.626,504.247 793.752,511.255C769.521,528.451 754.361,522.306 744.296,518.189C736.928,515.175 734.561,503.165 734.439,502.066C733.288,491.71 739.12,477.964 739.952,476.001C746.193,461.292 741.345,452.304 742.876,448.684C747.539,437.663 754.977,439.669 756.172,437.989ZM764.22,458.658C763.023,459.148 760.346,496.084 766.685,492.626C769.201,491.253 772.278,491.645 773.619,483.604C775.182,474.223 770.934,463.543 768.857,461.466C766.067,458.676 766.891,455.705 764.22,458.658Z" style="fill:rgb(240,58,58);"/>
            <path d="M755.025,437.021C755.156,436.866 755.318,436.739 755.501,436.647C761.285,433.755 768.093,434.642 774.489,437.092C778.1,438.474 782.116,441.931 785.664,445.782C790.893,451.456 795.124,457.942 795.722,459.388C801.838,474.168 802.779,482.83 803.012,484.943C803.16,486.291 803.908,493.154 802.28,499.996C801.151,504.744 798.877,509.457 794.62,512.478C769.688,530.172 754.084,523.814 743.728,519.577C740.465,518.242 738.047,515.355 736.36,512.243C733.943,507.785 733.025,502.929 732.948,502.231C731.765,491.581 737.715,477.434 738.571,475.416C742.796,465.458 741.747,458.21 741.257,453.558C741.005,451.171 740.963,449.357 741.495,448.1C745.064,439.664 750.15,438.241 753.31,437.497C754.004,437.334 754.874,437.068 755.025,437.021ZM757.023,439.242L757.021,439.243L756.872,439.396C756.648,439.569 756.374,439.723 756.05,439.854C755.533,440.063 754.831,440.221 753.998,440.417C751.378,441.034 747.217,442.275 744.258,449.269C744.024,449.82 744.032,450.539 744.081,451.42C744.144,452.559 744.322,453.912 744.476,455.482C744.959,460.436 745.212,467.444 741.333,476.587C740.524,478.494 734.812,491.839 735.93,501.9C735.999,502.522 736.844,506.84 738.997,510.813C740.357,513.322 742.233,515.724 744.864,516.801C754.638,520.799 769.354,526.73 792.884,510.032C796.527,507.446 798.395,503.365 799.362,499.301C800.879,492.924 800.168,486.527 800.03,485.271C799.805,483.225 798.871,474.845 792.95,460.535C792.389,459.179 788.363,453.137 783.458,447.815C780.252,444.336 776.679,441.143 773.416,439.893C767.898,437.78 762.034,436.828 757.023,439.242ZM763.191,457.56L763.193,457.558C764.439,456.212 765.363,455.912 765.936,455.936L766.483,456.036L766.95,456.26L767.356,456.592C767.488,456.726 767.618,456.889 767.746,457.082C768.189,457.753 768.621,459.108 769.918,460.405C770.62,461.108 771.58,462.663 772.48,464.811C774.428,469.455 776.242,476.987 775.098,483.85C774.501,487.434 773.544,489.496 772.491,490.8C771.615,491.886 770.653,492.495 769.672,492.951C768.908,493.307 768.13,493.546 767.403,493.943C766.653,494.352 765.957,494.428 765.33,494.297C764.713,494.167 764.132,493.823 763.627,493.225C762.733,492.165 762.032,489.974 761.644,487.107C760.577,479.217 761.376,465.799 762.176,460.569C762.37,459.3 762.606,458.438 762.782,458.097L763.187,457.562L763.191,457.56ZM765.954,491.316C765.958,491.313 765.963,491.311 765.967,491.309C766.616,490.955 767.297,490.705 767.981,490.418C768.729,490.105 769.491,489.741 770.156,488.916C770.994,487.879 771.664,486.206 772.139,483.357C773.035,477.984 771.915,472.166 770.462,467.942C769.549,465.288 768.544,463.274 767.796,462.526C766.645,461.375 766.054,460.206 765.61,459.376C765.549,459.436 765.487,459.499 765.425,459.563C765.417,459.591 765.409,459.621 765.402,459.647C764.568,462.864 763.461,478.154 764.617,486.705C764.822,488.224 765.094,489.517 765.47,490.458C765.561,490.686 765.656,490.889 765.761,491.063C765.812,491.148 765.896,491.25 765.954,491.316Z"/>
        </g>
        <g transform="matrix(1,0,0,1,-38.2948,9.56588)">
            <path d="M821.593,438.069C820.531,438.261 813.891,439.458 813.7,449.006C813.497,459.189 821.282,460.179 811.153,482.126C806.501,492.204 805.797,507.033 810.02,512.039C826.806,531.933 844.661,507.587 843.424,497.696C842.116,487.23 830.872,476.059 833.799,458.819C834.043,457.382 838.836,438.795 826.345,438.06C825.243,437.995 824.13,437.147 821.593,438.069Z" style="fill:rgb(240,58,58);"/>
            <path d="M821.198,436.617L821.204,436.615C823.033,435.975 824.259,436.095 825.237,436.302C825.689,436.398 826.06,436.54 826.433,436.562C832.259,436.905 834.891,440.544 835.897,444.936C837.248,450.829 835.431,458.171 835.278,459.07C833.581,469.066 836.863,476.941 839.994,483.835C842.223,488.742 844.373,493.19 844.913,497.51C845.315,500.732 843.932,505.391 841.194,509.718C837.404,515.707 831.083,521.007 823.956,521.133C819.172,521.217 813.955,519.028 808.874,513.006C807.024,510.814 805.948,506.926 805.756,502.312C805.484,495.775 806.904,487.752 809.791,481.498C816.589,466.767 815.056,461.896 813.54,456.942C812.821,454.59 812.136,452.221 812.201,448.976C812.286,444.696 813.575,441.929 815.111,440.117C817.386,437.431 820.278,436.789 821.198,436.617ZM821.859,439.545C821.327,439.641 819.115,440.032 817.4,442.056C816.195,443.478 815.267,445.677 815.2,449.036C815.143,451.901 815.774,453.987 816.409,456.064C818.055,461.443 819.897,466.76 812.515,482.755C809.82,488.594 808.5,496.085 808.754,502.187C808.912,506 809.638,509.26 811.167,511.072C815.486,516.191 819.836,518.205 823.903,518.133C830.051,518.025 835.39,513.281 838.659,508.114C840.964,504.471 842.275,500.595 841.936,497.882C841.429,493.829 839.353,489.679 837.262,485.075C833.913,477.702 830.505,469.26 832.321,458.568C832.461,457.743 834.212,451.012 832.973,445.606C832.254,442.464 830.424,439.802 826.257,439.557C825.84,439.533 825.42,439.431 824.953,439.315C824.29,439.152 823.465,438.984 822.105,439.479C822.025,439.508 821.943,439.53 821.859,439.545Z"/>
        </g>
        <g transform="matrix(1,0,0,1,-38.2948,9.56588)">
            <path d="M872.535,437.731C870.55,437.832 841.109,432.817 837.857,447.685C836.794,452.545 841.657,459.549 859.088,460.518C878.253,461.582 852.675,484.706 854.559,500.527C855.89,511.71 861.737,514.932 865.033,517.984C865.881,518.769 870.362,522.918 879.47,518.267C901.191,507.175 872.726,465.154 887.019,462.122C901.601,459.029 908.408,456.71 908.062,449.1C907.867,444.811 894.596,436.22 882.301,437.022C880.417,437.145 879.47,437.589 872.535,437.731Z" style="fill:rgb(240,58,58);"/>
            <path d="M872.505,436.231C879.392,436.091 880.333,435.647 882.203,435.525C891.214,434.937 900.728,439.163 905.694,443.295C908.153,445.341 909.489,447.476 909.56,449.032C909.762,453.467 907.919,456.384 903.862,458.619C900.29,460.586 894.812,462.002 887.33,463.589C885.184,464.045 884.464,465.769 884.328,468.146C884.153,471.205 884.934,475.228 885.908,479.68C887.443,486.691 889.47,494.711 889.478,501.819C889.487,509.418 887.219,515.994 880.152,519.603C875.151,522.157 871.409,522.233 868.812,521.624C866.058,520.979 864.507,519.541 864.014,519.084C860.55,515.877 854.468,512.455 853.069,500.704C852.59,496.68 853.744,492.202 855.559,487.717C858.122,481.386 861.998,475.024 863.82,469.994C864.668,467.652 865.136,465.67 864.442,464.214C863.78,462.827 862.055,462.185 859.005,462.015C847.961,461.402 841.74,458.363 838.736,455.026C836.449,452.486 835.879,449.709 836.392,447.364C837.823,440.82 843.743,437.617 850.618,436.313C860.078,434.52 871.257,436.294 872.459,436.233L872.505,436.231ZM872.612,439.229C872.597,439.23 872.582,439.23 872.566,439.23C871.173,439.248 860.351,437.522 851.176,439.261C845.554,440.327 840.493,442.654 839.322,448.005C838.889,449.986 839.786,452.345 842.445,454.367C845.55,456.727 850.875,458.559 859.171,459.02C863.791,459.277 866.148,460.822 867.149,462.923C868.118,464.954 867.824,467.75 866.641,471.015C864.808,476.075 860.917,482.476 858.34,488.843C856.729,492.822 855.623,496.779 856.048,500.35C857.312,510.965 862.923,513.986 866.052,516.883C866.406,517.211 867.52,518.24 869.496,518.703C871.629,519.203 874.681,519.028 878.788,516.931C884.754,513.884 886.485,508.238 886.478,501.823C886.471,494.917 884.468,487.132 882.977,480.321C881.711,474.537 880.845,469.41 881.596,465.966C882.21,463.149 883.773,461.277 886.708,460.655C893.808,459.148 899.024,457.859 902.415,455.991C905.32,454.391 906.707,452.344 906.563,449.168C906.544,448.757 906.286,448.308 905.922,447.803C905.414,447.099 904.681,446.355 903.776,445.601C899.256,441.84 890.6,437.984 882.399,438.519C880.506,438.642 879.552,439.086 872.612,439.229Z"/>
        </g>
        <g transform="matrix(0.889924,0,0,0.937523,64.6037,45.9788)">
            <path d="M932.845,421.151C922.164,424.92 906.961,445.134 917.129,451.235C933.864,461.276 933.118,437.314 941.665,443.011C942.583,443.623 949.046,450.492 937.416,460.008C926.016,469.335 932.217,488.727 937.004,490.163C943.503,492.113 955.958,491.471 956.742,481.802C958.037,465.836 960.424,466.469 969.353,457.541C981.946,444.948 976.388,405.783 932.845,421.151Z" style="fill:rgb(240,58,58);stroke:black;stroke-width:3.28px;"/>
        </g>
        <g transform="matrix(1,0,0,1,-37.9687,20.2393)">
            <path d="M941.695,494.827C933.211,492.042 921.335,508.841 938.375,514.698C949.605,518.559 962.858,508.727 959.347,503.459C952.33,492.933 945.153,494.068 941.695,494.827Z" style="fill:rgb(240,58,58);stroke:black;stroke-width:3px;"/>
        </g>
        <g transform="matrix(1,0,0,1,-41.2017,14.8725)">
            <path d="M996.318,420.76C995.272,421.239 985.475,417.224 980.455,434.513C977.355,445.193 983.898,444.068 987.128,461.082C989.251,472.263 983.862,491.17 997.315,489.889C1011.57,488.531 1001.55,470.631 1003.9,457.466C1009.96,423.555 1005.62,423.824 996.318,420.76Z" style="fill:rgb(240,58,58);stroke:black;stroke-width:3px;"/>
        </g>
        <g transform="matrix(1,0,0,1,-37.5423,16.1709)">
            <path d="M993.811,494.864C971.391,497.838 987.879,527.105 1003.07,512.779C1008.03,508.105 1008.56,505.519 1004.64,499.366C1001.42,494.321 999.549,494.147 993.811,494.864Z" style="fill:rgb(240,58,58);stroke:black;stroke-width:3px;"/>
        </g>
        <g transform="matrix(1,0,0,1,-38.2948,9.56588)">
            <path d="M821.72,417.048C806.631,419.119 817.535,435.488 825.927,432.491C832.907,429.999 840.182,418.894 821.72,417.048Z" style="fill:rgb(240,58,58);stroke:black;stroke-width:3px;"/>
        </g>
    </g>
</svg>
